<svg width="70" height="70" viewBox="0 0 70 70" fill="none" xmlns="http://www.w3.org/2000/svg">
<rect x="0.858643" y="0.855713" width="68.1852" height="68.1852" rx="12" fill="#D0662A"/>
<path d="M34.9512 15.9482C34.1113 15.9482 33.3059 16.2819 32.712 16.8757C32.1181 17.4696 31.7845 18.2751 31.7845 19.1149V31.7816H19.1178C18.278 31.7816 17.4725 32.1152 16.8787 32.7091C16.2848 33.3029 15.9512 34.1084 15.9512 34.9482C15.9512 35.7881 16.2848 36.5935 16.8787 37.1874C17.4725 37.7813 18.278 38.1149 19.1178 38.1149H31.7845V50.7816C31.7845 51.6214 32.1181 52.4269 32.712 53.0208C33.3059 53.6146 34.1113 53.9482 34.9512 53.9482C35.791 53.9482 36.5965 53.6146 37.1903 53.0208C37.7842 52.4269 38.1178 51.6214 38.1178 50.7816V38.1149H50.7845C51.6244 38.1149 52.4298 37.7813 53.0237 37.1874C53.6175 36.5935 53.9512 35.7881 53.9512 34.9482C53.9512 34.1084 53.6175 33.3029 53.0237 32.7091C52.4298 32.1152 51.6244 31.7816 50.7845 31.7816H38.1178V19.1149C38.1178 18.2751 37.7842 17.4696 37.1903 16.8757C36.5965 16.2819 35.791 15.9482 34.9512 15.9482Z" fill="white"/>
</svg>
