<svg width="36" height="36" viewBox="0 0 36 36" fill="none" xmlns="http://www.w3.org/2000/svg">
<circle cx="17.522" cy="17.522" r="17.522" fill="white"/>
<path d="M22.956 18.0955H10.3464C10.0615 18.0955 9.7883 17.9823 9.58685 17.7808C9.38539 17.5794 9.27222 17.3061 9.27222 17.0212C9.27222 16.7363 9.38539 16.4631 9.58685 16.2617C9.7883 16.0602 10.0615 15.947 10.3464 15.947H22.956C23.2409 15.947 23.5142 16.0602 23.7156 16.2617C23.9171 16.4631 24.0303 16.7363 24.0303 17.0212C24.0303 17.3061 23.9171 17.5794 23.7156 17.7808C23.5142 17.9823 23.2409 18.0955 22.956 18.0955Z" fill="black"/>
<path d="M17.7827 23.5318C17.5701 23.5318 17.3623 23.4687 17.1856 23.3504C17.0089 23.2322 16.8713 23.0642 16.7901 22.8677C16.7089 22.6712 16.6879 22.455 16.7297 22.2466C16.7715 22.0381 16.8742 21.8467 17.0248 21.6967L21.7152 17.0212L17.0248 12.3458C16.8287 12.1435 16.72 11.8724 16.7219 11.5907C16.7239 11.309 16.8364 11.0394 17.0352 10.8398C17.2341 10.6403 17.5033 10.5269 17.785 10.524C18.0667 10.5211 18.3382 10.6289 18.5411 10.8243L23.9952 16.2602C24.0953 16.36 24.1748 16.4786 24.229 16.6092C24.2833 16.7398 24.3112 16.8798 24.3112 17.0212C24.3112 17.1626 24.2833 17.3026 24.229 17.4332C24.1748 17.5638 24.0953 17.6824 23.9952 17.7822L18.5411 23.2182C18.4415 23.3177 18.3233 23.3967 18.1931 23.4505C18.063 23.5043 17.9236 23.532 17.7827 23.5318Z" fill="black"/>
</svg>
