<svg width="45" height="44" viewBox="0 0 45 44" fill="none" xmlns="http://www.w3.org/2000/svg">
<circle cx="22.1689" cy="22" r="22" fill="#FAF8F6"/>
<path d="M32.2349 7.4248H19.2625C18.1003 7.4248 17.1582 8.36691 17.1582 9.52906V26.9067C17.1582 28.0688 18.1003 29.0109 19.2625 29.0109H32.2349C33.397 29.0109 34.3391 28.0688 34.3391 26.9067V9.52906C34.3391 8.36691 33.397 7.4248 32.2349 7.4248V7.4248Z" fill="#F9F097"/>
<path d="M28.9527 9.00781H17.2234C17.1809 9.17451 17.1582 9.34919 17.1582 9.52913V26.9067C17.1582 28.0689 18.1003 29.011 19.2625 29.011H32.2349C32.4148 29.011 32.5894 28.9882 32.7562 28.9458V12.8113C32.7562 10.7141 31.0499 9.00781 28.9527 9.00781V9.00781Z" fill="#FBC072"/>
<path d="M28.9526 10.707H15.9802C14.8181 10.707 13.876 11.6491 13.876 12.8113V30.1889C13.876 31.3511 14.8181 32.2932 15.9802 32.2932H28.9526C30.1148 32.2932 31.0569 31.3511 31.0569 30.1889V12.8113C31.0569 11.6491 30.1148 10.707 28.9526 10.707Z" fill="#A4E6FF"/>
<path d="M25.6705 12.2898H13.9412C13.8987 12.4565 13.876 12.6312 13.876 12.8111V30.1887C13.876 31.3508 14.8181 32.2929 15.9802 32.2929H28.9526C29.1326 32.2929 29.3072 32.2703 29.4739 32.2277V16.0933C29.474 13.996 27.7677 12.2898 25.6705 12.2898V12.2898Z" fill="#5BD6FD"/>
<path d="M25.6704 13.989H15.5718L13.9416 17.557L10.5938 18.967V33.4708C10.5938 34.633 11.5359 35.5751 12.698 35.5751H25.6704C26.8326 35.5751 27.7747 34.633 27.7747 33.4708V16.0933C27.7747 14.9311 26.8326 13.989 25.6704 13.989V13.989Z" fill="#FF97C0"/>
<path d="M15.5718 13.989L13.9416 17.557L10.5938 18.967V20.6663H14.1894C15.8886 20.6663 17.271 19.2838 17.271 17.5846V13.989H15.5718Z" fill="#FF71A7"/>
<path d="M10.5938 18.967H14.1894C14.9529 18.967 15.5718 18.3481 15.5718 17.5846V13.989L10.5938 18.967Z" fill="#FF97C0"/>
<path d="M14.1703 27.2819C15.192 27.2819 16.0203 26.6223 16.0203 25.8087C16.0203 24.995 15.192 24.3354 14.1703 24.3354C13.1486 24.3354 12.3203 24.995 12.3203 25.8087C12.3203 26.6223 13.1486 27.2819 14.1703 27.2819Z" fill="#FFBDD7"/>
<path d="M24.1981 27.2819C25.2199 27.2819 26.0481 26.6223 26.0481 25.8087C26.0481 24.995 25.2199 24.3354 24.1981 24.3354C23.1764 24.3354 22.3481 24.995 22.3481 25.8087C22.3481 26.6223 23.1764 27.2819 24.1981 27.2819Z" fill="#FFBDD7"/>
<path d="M15.2485 23.2092C15.0139 23.2092 14.8237 23.3994 14.8237 23.634V24.3903C14.8237 24.6249 15.0139 24.8151 15.2485 24.8151C15.4831 24.8151 15.6733 24.6249 15.6733 24.3903V23.634C15.6733 23.3994 15.4831 23.2092 15.2485 23.2092Z" fill="black"/>
<path d="M23.1201 23.2092C22.8855 23.2092 22.6953 23.3994 22.6953 23.634V24.3903C22.6953 24.6249 22.8855 24.8151 23.1201 24.8151C23.3547 24.8151 23.5449 24.6249 23.5449 24.3903V23.634C23.5449 23.3994 23.3547 23.2092 23.1201 23.2092Z" fill="black"/>
<path d="M20.5008 24.0477C20.324 23.8935 20.0557 23.9119 19.9015 24.0888C19.7204 24.2967 19.4589 24.4158 19.1841 24.4158C18.9093 24.4158 18.6479 24.2967 18.4668 24.0888C18.3127 23.9119 18.0443 23.8935 17.8674 24.0477C17.6905 24.2018 17.6721 24.4701 17.8262 24.647C18.1687 25.0401 18.6637 25.2654 19.1841 25.2654C19.7045 25.2654 20.1994 25.0401 20.5419 24.647C20.6962 24.4701 20.6777 24.2018 20.5008 24.0477V24.0477Z" fill="black"/>
<path d="M10.1689 33.4709C10.1689 34.8655 11.3035 36 12.6979 36H25.6704C27.0649 36 28.1994 34.8655 28.1994 33.4709V32.7178H28.9525C30.347 32.7178 31.4815 31.5833 31.4815 30.1888V29.4357H32.2346C33.6292 29.4357 34.7637 28.3012 34.7637 26.9067V9.52906C34.7638 8.13451 33.6293 7 32.2347 7H19.2623C17.8678 7 16.7333 8.13451 16.7333 9.52906V10.2822H15.9802C14.5856 10.2822 13.4511 11.4167 13.4511 12.8112V15.5091L10.2934 18.6668C10.2186 18.7416 10.1689 18.8498 10.1689 18.9672V33.4709ZM14.3007 12.8112C14.3007 11.8852 15.0541 11.1318 15.9802 11.1318H28.9526C29.8786 11.1318 30.632 11.8851 30.632 12.8112V16.4513C30.632 16.6859 30.8222 16.8761 31.0568 16.8761C31.2914 16.8761 31.4816 16.6859 31.4816 16.4513V12.8112C31.4816 11.4167 30.3471 10.2822 28.9526 10.2822H17.5829V9.52906C17.5829 8.60299 18.3362 7.84961 19.2623 7.84961H32.2347C33.1608 7.84961 33.9142 8.60299 33.9142 9.52906V26.9067C33.9142 27.8327 33.1608 28.5861 32.2347 28.5861H31.4816V18.1274C31.4816 17.8928 31.2914 17.7026 31.0568 17.7026C30.8222 17.7026 30.632 17.8928 30.632 18.1274V29.0109V30.1888C30.632 31.1149 29.8786 31.8682 28.9526 31.8682H28.1995V28.3096C28.1995 28.075 28.0093 27.8848 27.7747 27.8848C27.5401 27.8848 27.3499 28.075 27.3499 28.3096V33.4709C27.3499 34.397 26.5965 35.1504 25.6705 35.1504H12.698C11.772 35.1504 11.0186 34.397 11.0186 33.4709V19.3919H14.1894C15.1872 19.3919 15.9966 18.58 15.9966 17.5847V14.4139H25.6704C26.5965 14.4139 27.3499 15.1673 27.3499 16.0934V26.6198C27.3499 26.8544 27.5401 27.0446 27.7747 27.0446C28.0093 27.0446 28.1995 26.8544 28.1995 26.6198V16.0934C28.1995 14.6989 27.065 13.5643 25.6704 13.5643H15.5718C15.4648 13.5643 15.3529 13.6072 15.2714 13.6888L14.3008 14.6595V12.8112H14.3007ZM15.147 15.0147V17.5847C15.147 18.1115 14.7186 18.5423 14.1894 18.5423H11.6193L15.147 15.0147Z" fill="black"/>
</svg>
