<svg width="45" height="44" viewBox="0 0 45 44" fill="none" xmlns="http://www.w3.org/2000/svg">
<circle cx="22.1689" cy="22" r="22" fill="#FAF8F6"/>
<path d="M20.9818 14.8515C20.2248 10.9572 20.7427 6.99316 20.7427 6.99316L23.0678 7.16953C23.3967 7.19448 23.6886 7.37672 23.8527 7.66292C24.399 8.61624 26.0793 10.7896 30.2245 11.2759C35.5729 11.9133 21.7287 18.7458 20.9818 14.8515Z" fill="#F3A250" stroke="black" stroke-width="0.470831"/>
<path d="M36.9478 14.0291C36.7585 16.3397 36.0415 24.1981 34.4778 28.9489C34.418 29.1182 34.3583 29.2875 34.2885 29.4469C34.189 29.666 34.0793 29.8752 33.9499 30.0843C31.0715 34.6758 24.5179 38.2016 23.1833 38.8889C23.0239 38.9685 22.8546 39.0084 22.6853 39.0084L20.7427 38.8646C20.9007 38.5527 32.9696 14.7278 34.5667 11.575C34.5667 11.575 36.0514 12.6446 36.4598 12.9833C36.7685 13.2522 36.9777 13.6108 36.9478 14.0291Z" fill="#FFB961" stroke="black" stroke-width="0.470831"/>
<path d="M34.7641 12.0625C34.6546 14.4828 34.1466 22.6 32.2144 28.2772C32.1148 28.566 32.0053 28.8349 31.8758 29.1038C28.8579 34.9602 20.7407 38.8645 20.7407 38.8645C20.7407 38.8645 11.2689 33.2869 8.78887 27.082C7.21519 21.634 7.33471 14.9907 7.44425 12.4211C7.47416 11.8634 7.95221 11.445 8.50996 11.5048C8.56972 11.5147 8.63944 11.5247 8.70917 11.5247C10.9501 11.7537 15.9201 11.6243 20.153 7.232C20.4717 6.91328 20.9797 6.90331 21.2685 7.25194C22.2247 8.37741 24.6748 10.5486 29.7543 11.2159C31.0192 11.3852 32.4534 11.455 34.0769 11.3952C34.4653 11.3852 34.784 11.6841 34.7641 12.0625Z" fill="#FFD475" stroke="black" stroke-width="0.470831"/>
<path d="M29.633 11.4857C27.7407 13.5076 24.8224 15.0912 21.3763 15.7386C15.8187 16.7844 10.6496 15.0712 8.58789 11.7945C10.8289 12.0235 15.7988 11.894 20.0317 7.50178C20.3505 7.18305 20.8584 7.17308 21.1472 7.52172C22.1034 8.64718 24.5535 10.8184 29.633 11.4857Z" fill="#FFDE9B"/>
<path d="M29.6292 15.3494C29.3702 18.3672 28.8224 23.0583 27.697 26.5442C27.5874 26.8928 27.4579 27.2215 27.2687 27.5402C25.6751 30.2493 21.8704 32.6596 19.4701 33.795C19.2809 33.8747 19.0916 33.9244 18.9024 33.9244C16.4025 32.0719 13.5241 29.2832 12.309 26.4147C11.3428 22.9786 11.1437 18.4967 11.1537 15.678C11.1537 15.2995 11.4325 14.9908 11.811 14.9809C14.052 14.8812 17.6375 14.3434 20.7749 11.9829C20.8346 11.9331 20.8944 11.9032 20.9641 11.8833C22.6971 13.1283 25.1572 14.3035 28.9818 14.5924C29.3702 14.6223 29.669 14.9609 29.6292 15.3494Z" fill="#F3A250"/>
<path d="M20.7327 11.857C20.9724 12.0544 21.2318 12.2519 21.5114 12.4493C21.4415 12.4691 21.3816 12.4987 21.3217 12.5481C18.1773 14.8879 14.5837 15.421 12.3377 15.5197C11.9583 15.5295 11.6789 15.8356 11.6789 16.2108C11.6689 19.0047 11.8685 23.4474 12.8368 26.8535C14.0546 29.6968 16.9395 32.4611 19.445 34.2974C19.1556 34.3171 18.866 34.2283 18.6165 34.0604C15.9911 32.2242 12.687 29.2525 11.3793 26.1525C10.4111 22.7563 10.2114 18.3136 10.2114 15.5098C10.2214 15.1347 10.5009 14.8385 10.8702 14.8187C13.1262 14.72 16.7099 14.1869 19.8643 11.8471C20.1338 11.6496 20.4832 11.6496 20.7327 11.857Z" fill="#FFB961"/>
<path d="M21.486 12.4559C21.4163 12.4759 21.3565 12.5058 21.2967 12.5555C18.1594 14.916 14.5738 15.4538 12.3329 15.5535C11.9544 15.5634 11.6756 15.8721 11.6756 16.2506L10.2114 15.5435C10.2214 15.165 10.5002 14.8662 10.8687 14.8463C13.1197 14.7467 16.6953 14.2089 19.8426 11.8484C20.1115 11.6492 20.4601 11.6492 20.7091 11.8583C20.9482 12.0576 21.2071 12.2568 21.486 12.4559Z" fill="#DD8536"/>
<path d="M24.9282 22.2865C24.9282 22.2865 25.1867 22.9482 25.6799 23.0152C26.0575 23.0665 25.5605 22.0077 25.5605 22.0077L25.1227 21.9202L24.9282 22.2865Z" fill="#DD8536"/>
<path d="M21.8117 22.2033C22.447 23.9991 22.3621 27.5066 24.2978 29.0823C24.3881 29.1558 24.3215 29.3109 24.1971 29.3137C23.2456 29.3351 22.1969 28.344 21.9033 27.7225C21.5592 28.7597 20.9679 29.6329 20.5379 29.9868C20.4064 30.0951 20.2188 30.1052 20.0923 30.0105C19.682 29.7032 18.6306 28.8011 18.2097 28.0133C17.9908 28.6745 17.3338 29.6741 16.3058 29.773C16.1688 29.7862 16.1024 29.6294 16.2065 29.5423C18.4026 27.7053 18.6307 24.0536 19.4113 22.2449C19.4761 22.0946 19.446 21.9223 19.3375 21.804L19.3356 21.8019C18.7478 21.1557 17.9488 20.9311 17.1204 21.1241C16.2081 21.3369 15.5326 22.1491 15.3508 23.0876C15.3136 23.2798 15.0474 23.3159 14.9482 23.1444C14.7526 22.8061 14.633 22.4135 14.6176 21.9836C14.5371 19.74 17.0916 18.4892 18.6114 20.0051C18.4178 18.5825 19.416 17.185 20.4727 16.2308C20.7017 16.0305 20.2477 15.3682 20.539 15.5656C21.443 16.1784 22.885 18.1156 22.8009 19.579C22.7938 19.7169 22.7796 19.8562 22.7519 19.9862C23.2095 19.5488 23.3333 18.7021 23.962 18.7383C25.5753 19.0008 26.986 21.1117 25.8866 22.9149C25.7884 23.0761 25.556 23.0407 25.5359 22.8607C25.3159 20.8969 23.2105 20.4328 21.9784 21.7082C21.8476 21.794 21.7414 22.0044 21.8117 22.2033Z" fill="#DD8536"/>
<path d="M14.0459 21.7666C14.0459 21.7666 14.3874 23.5151 15.2191 23.2403C14.978 22.4092 14.6017 21.8842 14.0459 21.7666Z" fill="#DD8536"/>
<path d="M15.5674 28.947C15.3786 29.2174 15.6969 29.8933 16.3055 29.7729C18.1844 27.7257 17.7723 27.571 15.5674 28.947Z" fill="#DD8536"/>
<path d="M21.3004 21.1467L21.2914 21.1563C21.1811 21.2727 21.1426 21.4399 21.1942 21.5859C21.7988 23.2949 21.7363 26.8825 23.6803 28.4649C23.7706 28.5384 23.7041 28.6936 23.5797 28.6964C22.6282 28.7177 21.9398 28.0365 21.618 27.1269C21.2738 28.1642 20.3504 29.0155 19.9204 29.3694C19.7889 29.4777 19.6013 29.4878 19.4749 29.3931C19.0646 29.0858 18.1864 28.3288 17.9113 27.3073C17.5017 28.2732 16.7164 29.0567 15.6883 29.1557C15.5514 29.1688 15.485 29.012 15.589 28.925C17.805 27.0713 17.9958 23.4766 18.7938 21.6275C18.8586 21.4772 18.8286 21.3049 18.72 21.1866L18.7181 21.1845C17.4524 19.7931 15.1312 20.4166 14.7333 22.4702C14.6961 22.6625 14.4299 22.6986 14.3308 22.5271C12.9296 20.1038 16.0237 17.4224 17.9939 19.3877C17.8003 17.9651 18.7986 16.5676 19.8552 15.6135C20.0842 15.4131 20.401 15.4187 20.6109 15.626C21.1976 16.2186 22.2675 17.4982 22.1834 18.9617C22.1763 19.0995 22.1621 19.2388 22.1344 19.3688C24.1037 17.4865 26.6986 19.953 25.2692 22.2975C25.1709 22.4587 24.9385 22.4233 24.9184 22.2433C24.6958 20.2562 22.5297 19.7963 21.3004 21.1467Z" fill="#4C5C75"/>
<path d="M22.1368 19.3638C22.1646 19.2337 22.1787 19.0945 22.1859 18.9566C22.2315 18.164 21.9359 17.4301 21.5645 16.8254C21.9754 19.3685 20.8737 22.1816 18.2905 23.2056C17.8188 25.1283 17.1832 27.5883 15.5915 28.9201C15.4874 29.007 15.5539 29.1639 15.6907 29.1506C16.7187 29.0517 17.5041 28.2681 17.9137 27.3024C18.1888 28.3237 19.067 29.0808 19.4773 29.388C19.6038 29.4828 19.7914 29.4726 19.9229 29.3644C20.3528 29.0106 21.2763 28.1593 21.6204 27.122C21.9423 28.0314 22.6306 28.7128 23.5821 28.6913C23.7065 28.6886 23.7731 28.5334 23.6828 28.46C21.7445 26.8818 21.8144 23.3253 21.1966 21.581C21.1451 21.4348 21.1835 21.2677 21.2938 21.1513L21.3028 21.1416C22.5383 19.7929 24.698 20.2478 24.9209 22.2382C24.941 22.4182 25.1734 22.4537 25.2717 22.2926C26.7004 19.9476 24.1069 17.4818 22.1368 19.3638Z" fill="#31445B"/>
<g opacity="0.6">
<path d="M18.7826 19.4617C19.0603 19.5453 19.0843 18.993 19.2714 18.3719C19.4586 17.7509 19.738 17.2961 19.4603 17.2124C19.1827 17.1288 18.8037 17.5639 18.6166 18.185C18.4295 18.806 18.5049 19.378 18.7826 19.4617Z" fill="white"/>
</g>
<g opacity="0.6">
<path d="M19.8843 16.8198C19.9859 16.6931 19.9856 16.5242 19.8837 16.4423C19.7817 16.3605 19.6167 16.3968 19.5151 16.5234C19.4134 16.65 19.4137 16.819 19.5157 16.9009C19.6176 16.9827 19.7827 16.9464 19.8843 16.8198Z" fill="white"/>
</g>
<path d="M9.405 14.9484C10.1268 14.9484 10.7119 14.3633 10.7119 13.6416C10.7119 12.9198 10.1268 12.3347 9.405 12.3347C8.68324 12.3347 8.09814 12.9198 8.09814 13.6416C8.09814 14.3633 8.68324 14.9484 9.405 14.9484Z" fill="#F3A250"/>
<path d="M9.96286 12.7453C10.4357 13.0395 10.6189 13.6916 10.3019 14.201C9.99277 14.6979 9.34304 14.8492 8.84615 14.54C8.72008 14.4616 8.61986 14.358 8.53633 14.2444C8.30047 13.9125 8.2764 13.4551 8.50712 13.0843C8.81628 12.5875 9.46596 12.4361 9.96286 12.7453Z" fill="#1D2943"/>
<path d="M9.96471 12.748C9.98689 12.762 10.0092 12.7756 10.0194 12.7923C10.2553 13.1242 10.2793 13.5816 10.0486 13.9524C9.73945 14.4492 9.0898 14.6005 8.5929 14.2914C8.57063 14.2775 8.5484 14.2637 8.53817 14.247C8.30232 13.9151 8.27852 13.4566 8.50897 13.087C8.82192 12.5852 9.4674 12.4343 9.96471 12.748Z" fill="#4C5C75"/>
<g opacity="0.5">
<path d="M9.50105 12.9027C9.67164 13.0733 9.6235 13.3895 9.38757 13.6254C9.16251 13.8505 8.83549 13.9095 8.6649 13.7389C8.5065 13.5805 8.5655 13.2535 8.79057 13.0284C9.0265 12.7925 9.34265 12.7443 9.50105 12.9027Z" fill="white"/>
</g>
<g opacity="0.8">
<path d="M9.13082 13.0393C9.19059 13.0991 9.16574 13.2178 9.07273 13.3108C8.98401 13.3995 8.86097 13.4287 8.8012 13.3689C8.7457 13.3134 8.77483 13.1904 8.86356 13.1016C8.95656 13.0086 9.07532 12.9838 9.13082 13.0393Z" fill="white"/>
</g>
<path d="M28.0258 17.2786C28.0107 17.1931 28.1009 17.1298 28.174 17.1741C28.5512 17.4025 28.8653 17.5831 28.8815 17.5574C28.8962 17.534 28.6082 17.314 28.2521 17.0544C28.183 17.004 28.2024 16.8938 28.2844 16.8729C29.12 16.6592 29.8788 16.4502 29.8674 16.3964C29.8564 16.3447 29.0778 16.4676 28.229 16.6192C28.1456 16.6342 28.0832 16.5415 28.126 16.4669C28.3457 16.0841 28.52 15.7641 28.4948 15.7474C28.4719 15.7322 28.2587 16.0258 28.0071 16.3889C27.9583 16.4594 27.8506 16.4389 27.8296 16.3549C27.6165 15.4997 27.4077 14.7199 27.3553 14.7313C27.3048 14.7423 27.4296 15.5418 27.5823 16.4101C27.5973 16.4956 27.5071 16.5589 27.434 16.5146C27.059 16.2875 26.7456 16.1069 26.7309 16.1303C26.7147 16.1559 27.0034 16.3768 27.3586 16.6334C27.4281 16.6836 27.4089 16.7941 27.3267 16.8152C26.493 17.0287 25.7318 17.2401 25.7428 17.2918C25.7542 17.3455 26.5345 17.2204 27.3818 17.0688C27.4651 17.0539 27.5275 17.1463 27.4849 17.221C27.2652 17.6056 27.0903 17.926 27.1132 17.9412C27.1383 17.9579 27.3524 17.6636 27.6006 17.3001C27.6492 17.2291 27.7574 17.2492 27.7784 17.3336C27.9918 18.1885 28.2028 18.9705 28.2532 18.9595C28.3056 18.9481 28.1787 18.1471 28.0258 17.2786Z" fill="white"/>
<path d="M10.3977 27.4504C11.1194 27.4504 11.7045 26.8653 11.7045 26.1435C11.7045 25.4218 11.1194 24.8367 10.3977 24.8367C9.67592 24.8367 9.09082 25.4218 9.09082 26.1435C9.09082 26.8653 9.67592 27.4504 10.3977 27.4504Z" fill="#F3A250"/>
<path d="M11.2966 26.7022C10.9874 27.1991 10.3377 27.3504 9.84078 27.0412C9.71488 26.9629 9.61473 26.8595 9.53126 26.7459C9.53111 26.7458 9.53104 26.7457 9.53097 26.7455C9.29509 26.4137 9.27104 25.9564 9.50178 25.5855C9.81092 25.0887 10.4606 24.9374 10.9575 25.2465C10.9704 25.2545 10.983 25.2628 10.9955 25.2714C11.44 25.5761 11.6049 26.2066 11.2966 26.7022Z" fill="#1D2943"/>
<path d="M11.0265 26.4342C10.7174 26.9311 10.0677 27.0824 9.5708 26.7732C9.55658 26.7644 9.54236 26.7555 9.53126 26.7459C9.53111 26.7458 9.53104 26.7457 9.53097 26.7455C9.29509 26.4137 9.27104 25.9564 9.50178 25.5855C9.81092 25.0887 10.4606 24.9374 10.9575 25.2465C10.9704 25.2545 10.983 25.2628 10.9955 25.2714C10.9961 25.2723 10.9967 25.2732 10.9973 25.2742C11.2332 25.6061 11.2573 26.0634 11.0265 26.4342Z" fill="#4C5C75"/>
<g opacity="0.5">
<path d="M10.4947 25.4037C10.6653 25.5743 10.6172 25.8905 10.3812 26.1264C10.1562 26.3515 9.82915 26.4105 9.65855 26.2399C9.50015 26.0815 9.55915 25.7545 9.78422 25.5294C10.0201 25.2935 10.3363 25.2453 10.4947 25.4037Z" fill="white"/>
</g>
<g opacity="0.8">
<path d="M10.1245 25.5403C10.1842 25.6 10.1594 25.7188 10.0664 25.8118C9.97766 25.9005 9.85462 25.9297 9.79485 25.8699C9.73935 25.8144 9.76849 25.6913 9.85721 25.6026C9.95022 25.5096 10.069 25.4848 10.1245 25.5403Z" fill="white"/>
</g>
<path d="M20.8445 37.6025C21.5662 37.6025 22.1513 37.0174 22.1513 36.2956C22.1513 35.5739 21.5662 34.9888 20.8445 34.9888C20.1227 34.9888 19.5376 35.5739 19.5376 36.2956C19.5376 37.0174 20.1227 37.6025 20.8445 37.6025Z" fill="#F3A250"/>
<path d="M21.7414 36.8541C21.4322 37.3509 20.7825 37.5022 20.2856 37.1931C20.1597 37.1147 20.0596 37.0113 19.9761 36.8978C19.9759 36.8976 19.9759 36.8975 19.9758 36.8974C19.7399 36.5655 19.7159 36.1082 19.9466 35.7374C20.2557 35.2405 20.9054 35.0892 21.4023 35.3984C21.4152 35.4064 21.4279 35.4147 21.4403 35.4232C21.8848 35.728 22.0497 36.3585 21.7414 36.8541Z" fill="#1D2943"/>
<path d="M21.4713 36.5861C21.1622 37.0829 20.5126 37.2342 20.0156 36.9251C20.0014 36.9162 19.9872 36.9074 19.9761 36.8978C19.9759 36.8976 19.9759 36.8975 19.9758 36.8974C19.7399 36.5655 19.7159 36.1082 19.9466 35.7374C20.2557 35.2405 20.9054 35.0892 21.4023 35.3984C21.4152 35.4064 21.4279 35.4147 21.4403 35.4232C21.441 35.4242 21.4416 35.4251 21.4421 35.4261C21.678 35.7579 21.7021 36.2153 21.4713 36.5861Z" fill="#4C5C75"/>
<g opacity="0.5">
<path d="M20.9395 35.5556C21.1101 35.7262 21.062 36.0423 20.8261 36.2782C20.601 36.5033 20.274 36.5623 20.1034 36.3917C19.945 36.2333 20.004 35.9063 20.229 35.6812C20.465 35.4453 20.7811 35.3972 20.9395 35.5556Z" fill="white"/>
</g>
<g opacity="0.8">
<path d="M20.5693 35.6921C20.6291 35.7519 20.6042 35.8706 20.5112 35.9637C20.4225 36.0524 20.2994 36.0815 20.2397 36.0217C20.1842 35.9662 20.2133 35.8432 20.302 35.7545C20.395 35.6615 20.5138 35.6366 20.5693 35.6921Z" fill="white"/>
</g>
<path d="M30.3845 29.0754C31.1062 29.0754 31.6913 28.4903 31.6913 27.7685C31.6913 27.0468 31.1062 26.4617 30.3845 26.4617C29.6627 26.4617 29.0776 27.0468 29.0776 27.7685C29.0776 28.4903 29.6627 29.0754 30.3845 29.0754Z" fill="#F3A250"/>
<path d="M31.278 28.3245C30.9689 28.8214 30.3192 28.9727 29.8222 28.6635C29.6963 28.5852 29.5962 28.4818 29.5127 28.3682C29.5126 28.3681 29.5125 28.368 29.5124 28.3679C29.2765 28.036 29.2525 27.5787 29.4832 27.2078C29.7924 26.711 30.442 26.5597 30.9389 26.8688C30.9518 26.8769 30.9645 26.8851 30.9769 26.8937C31.4214 27.1984 31.5863 27.8289 31.278 28.3245Z" fill="#1D2943"/>
<path d="M31.008 28.0566C30.6988 28.5534 30.0492 28.7047 29.5522 28.3956C29.538 28.3867 29.5238 28.3778 29.5127 28.3682C29.5126 28.3681 29.5125 28.368 29.5124 28.3679C29.2765 28.036 29.2525 27.5787 29.4832 27.2078C29.7924 26.711 30.442 26.5597 30.9389 26.8688C30.9518 26.8769 30.9645 26.8851 30.9769 26.8937C30.9776 26.8947 30.9782 26.8955 30.9788 26.8965C31.2146 27.2284 31.2387 27.6858 31.008 28.0566Z" fill="#4C5C75"/>
<g opacity="0.5">
<path d="M30.4761 27.0263C30.6467 27.1969 30.5986 27.513 30.3627 27.749C30.1376 27.974 29.8106 28.033 29.64 27.8624C29.4816 27.704 29.5406 27.377 29.7657 27.1519C30.0016 26.916 30.3177 26.8679 30.4761 27.0263Z" fill="white"/>
</g>
<g opacity="0.8">
<path d="M30.1059 27.1626C30.1657 27.2223 30.1408 27.3411 30.0478 27.4341C29.9591 27.5228 29.8361 27.552 29.7763 27.4922C29.7208 27.4367 29.7499 27.3137 29.8387 27.2249C29.9317 27.1319 30.0504 27.1071 30.1059 27.1626Z" fill="white"/>
</g>
<path d="M32.7468 14.9472C33.4686 14.9472 34.0537 14.3621 34.0537 13.6404C34.0537 12.9186 33.4686 12.3335 32.7468 12.3335C32.025 12.3335 31.4399 12.9186 31.4399 13.6404C31.4399 14.3621 32.025 14.9472 32.7468 14.9472Z" fill="#F3A250"/>
<path d="M33.6359 14.2039C33.3268 14.7008 32.6771 14.8521 32.1801 14.5429C32.0542 14.4646 31.9541 14.3612 31.8706 14.2476C31.8705 14.2475 31.8704 14.2474 31.8703 14.2473C31.6344 13.9154 31.6104 13.4581 31.8411 13.0872C32.1503 12.5904 32.7999 12.4391 33.2968 12.7482C33.3097 12.7563 33.3224 12.7645 33.3348 12.7731C33.7793 13.0778 33.9442 13.7083 33.6359 14.2039Z" fill="#1D2943"/>
<path d="M33.3659 13.9359C33.0567 14.4328 32.4071 14.5841 31.9102 14.275C31.8959 14.2661 31.8817 14.2572 31.8706 14.2476C31.8705 14.2475 31.8704 14.2474 31.8703 14.2473C31.6344 13.9154 31.6104 13.4581 31.8411 13.0872C32.1503 12.5904 32.7999 12.4391 33.2968 12.7482C33.3097 12.7563 33.3224 12.7645 33.3348 12.7731C33.3355 12.774 33.3361 12.7749 33.3367 12.7759C33.5726 13.1078 33.5966 13.5652 33.3659 13.9359Z" fill="#4C5C75"/>
<g opacity="0.5">
<path d="M32.8341 12.9057C33.0046 13.0763 32.9565 13.3924 32.7206 13.6283C32.4955 13.8534 32.1685 13.9124 31.9979 13.7418C31.8395 13.5834 31.8985 13.2564 32.1236 13.0313C32.3595 12.7954 32.6757 12.7473 32.8341 12.9057Z" fill="white"/>
</g>
<g opacity="0.8">
<path d="M32.4638 13.0425C32.5236 13.1022 32.4987 13.221 32.4057 13.314C32.317 13.4027 32.194 13.4319 32.1342 13.3721C32.0787 13.3166 32.1078 13.1935 32.1966 13.1048C32.2896 13.0118 32.4083 12.987 32.4638 13.0425Z" fill="white"/>
</g>
<path d="M20.5827 10.6591C21.3045 10.6591 21.8896 10.074 21.8896 9.35227C21.8896 8.63051 21.3045 8.04541 20.5827 8.04541C19.861 8.04541 19.2759 8.63051 19.2759 9.35227C19.2759 10.074 19.861 10.6591 20.5827 10.6591Z" fill="#F3A250"/>
<path d="M21.4797 9.91193C21.1705 10.4088 20.5208 10.5601 20.0239 10.2509C19.898 10.1726 19.7978 10.0692 19.7144 9.95563C19.7142 9.95548 19.7141 9.95541 19.7141 9.95526C19.4782 9.6234 19.4541 9.16609 19.6849 8.79522C19.994 8.29837 20.6437 8.14707 21.1406 8.45622C21.1535 8.46426 21.1661 8.47252 21.1786 8.48109C21.6231 8.78584 21.788 9.41634 21.4797 9.91193Z" fill="#1D2943"/>
<path d="M21.2096 9.64395C20.9005 10.1408 20.2508 10.2921 19.7539 9.98296C19.7397 9.9741 19.7255 9.96524 19.7144 9.95563C19.7142 9.95548 19.7141 9.95541 19.7141 9.95526C19.4782 9.6234 19.4541 9.16609 19.6849 8.79522C19.994 8.29837 20.6437 8.14707 21.1406 8.45622C21.1535 8.46426 21.1661 8.47252 21.1786 8.48109C21.1792 8.48205 21.1798 8.48295 21.1804 8.48391C21.4163 8.81577 21.4404 9.27316 21.2096 9.64395Z" fill="#4C5C75"/>
<g opacity="0.5">
<path d="M20.6778 8.61344C20.8484 8.78403 20.8003 9.10018 20.5643 9.33611C20.3393 9.56118 20.0123 9.62018 19.8417 9.44958C19.6833 9.29119 19.7423 8.96417 19.9673 8.7391C20.2033 8.50318 20.5194 8.45504 20.6778 8.61344Z" fill="white"/>
</g>
<g opacity="0.8">
<path d="M20.3076 8.74973C20.3674 8.8095 20.3425 8.92826 20.2495 9.02127C20.1608 9.10999 20.0377 9.13913 19.978 9.07935C19.9225 9.02386 19.9516 8.90082 20.0403 8.81209C20.1333 8.71909 20.2521 8.69423 20.3076 8.74973Z" fill="white"/>
</g>
</svg>
