<svg width="45" height="44" viewBox="0 0 45 44" fill="none" xmlns="http://www.w3.org/2000/svg">
<circle cx="22.1689" cy="22" r="22" fill="#FAF8F6"/>
<path d="M35.1011 23.8957V28.6802C35.1011 29.9473 34.0743 30.5955 32.8072 30.5955H32.7708H30.3604V21.2231H31.9697H32.8145C34.0743 21.2231 35.1011 22.6359 35.1011 23.8957Z" fill="#ED664C"/>
<path d="M25.6122 34.6515C25.6195 34.6952 25.6195 34.7389 25.6195 34.7826C25.6195 36.3993 24.2723 37.6737 22.6338 37.6737C20.9515 37.6737 19.5752 36.2973 19.5752 34.6515C19.5752 33.8068 19.9175 33.0567 20.4709 32.5106C21.0244 31.9644 21.7744 31.6294 22.5973 31.6294C23.4421 31.6294 24.1995 31.9717 24.7383 32.5251C25.2772 33.0713 25.6122 33.8286 25.6122 34.6515Z" fill="#FDC75B"/>
<path d="M13.2976 21.2231V30.5955H10.4648C9.1977 30.5955 8.1709 29.5687 8.1709 28.3015V23.5171C8.1709 22.2499 9.1977 21.2231 10.4648 21.2231H11.6882H13.2976Z" fill="#ED664C"/>
<path d="M32.8071 20.524H32.7051V18.4704C32.7051 15.5793 31.5691 12.8558 29.5082 10.8022C27.4546 8.75583 24.7164 7.61979 21.8181 7.60522C15.8248 7.60522 10.931 12.4771 10.931 18.4704V20.524H10.465C8.79734 20.524 7.43555 21.8494 7.43555 23.517V28.3015C7.43555 29.9692 8.79734 31.3018 10.465 31.3018H13.2978C13.6983 31.3018 13.9896 30.996 13.9896 30.5954V21.2231C13.9896 20.8226 13.6983 20.524 13.2978 20.524H12.3875V18.4704C12.3875 13.2854 16.6258 9.06168 21.8035 9.06168C24.3159 9.07625 26.6899 10.0666 28.4668 11.8362C30.251 13.6131 31.2414 15.9726 31.2414 18.4704V20.524H30.3529C29.9524 20.524 29.6393 20.8153 29.6393 21.2231V30.5954C29.6393 30.996 29.9451 31.3018 30.3529 31.3018H31.3215L31.1831 31.4984C30.0325 33.0496 28.1828 33.9599 26.2748 33.9453C26.1365 33.2171 25.7869 32.5471 25.248 32.0082C24.5417 31.2945 23.595 30.894 22.59 30.894C21.5996 30.894 20.6602 31.28 19.9465 31.9864C19.2329 32.7 18.8396 33.6394 18.8396 34.6444C18.8396 36.7126 20.5364 38.3948 22.6264 38.3948C24.4543 38.3948 25.9763 37.0985 26.2821 35.409C26.2894 35.409 26.2967 35.409 26.3113 35.409C28.6634 35.409 30.9282 34.2876 32.3483 32.3796L33.1421 31.3091C34.7587 31.1853 35.8292 30.1585 35.8292 28.6802V23.8957C35.8365 22.2936 34.5403 20.524 32.8071 20.524ZM12.5332 21.9805V29.8454H10.465C9.59839 29.8454 8.89201 29.1608 8.89201 28.3015V23.517C8.89201 22.6505 9.59839 21.9805 10.465 21.9805H10.9602H12.4166H12.5332ZM22.6337 36.9456C21.3666 36.9456 20.3034 35.8969 20.3034 34.6517C20.3034 34.04 20.5437 33.4647 20.9806 33.0277C21.4176 32.5981 21.9856 32.3578 22.5973 32.3578C23.2163 32.3578 23.7916 32.5981 24.2212 33.035C24.6509 33.4719 24.8912 34.04 24.8912 34.6517C24.8912 34.6735 24.8912 34.6881 24.8912 34.7099C24.8912 34.7245 24.8912 34.7536 24.8912 34.7828C24.8912 35.9771 23.879 36.9456 22.6337 36.9456ZM34.38 28.6802C34.38 29.7798 33.1712 29.8454 32.8071 29.8454H31.103V21.9805H31.2341H32.6906H32.8071C33.5135 21.9805 34.38 22.8471 34.38 23.8957V28.6802Z" fill="black"/>
</svg>
