<svg width="16" height="14" viewBox="0 0 16 14" fill="none" xmlns="http://www.w3.org/2000/svg">
<path d="M13.7956 8.09448H1.18604C0.901135 8.09448 0.627903 7.98131 0.426448 7.77985C0.224993 7.5784 0.111816 7.30516 0.111816 7.02026C0.111816 6.73536 0.224993 6.46213 0.426448 6.26068C0.627903 6.05922 0.901135 5.94604 1.18604 5.94604H13.7956C14.0805 5.94604 14.3538 6.05922 14.5552 6.26068C14.7567 6.46213 14.8699 6.73536 14.8699 7.02026C14.8699 7.30516 14.7567 7.5784 14.5552 7.77985C14.3538 7.98131 14.0805 8.09448 13.7956 8.09448Z" fill="black"/>
<path d="M8.62233 13.5309C8.40972 13.5308 8.20191 13.4677 8.0252 13.3495C7.8485 13.2312 7.71085 13.0632 7.62969 12.8667C7.54853 12.6702 7.52751 12.454 7.56928 12.2456C7.61106 12.0371 7.71375 11.8457 7.86436 11.6957L12.5548 7.02025L7.86436 2.34482C7.66831 2.14255 7.55956 1.87138 7.56151 1.5897C7.56347 1.30803 7.67599 1.03839 7.87483 0.838871C8.07367 0.639353 8.34293 0.525921 8.62459 0.523007C8.90626 0.520093 9.1778 0.62793 9.38073 0.823291L14.8348 6.25927C14.9349 6.35907 15.0144 6.47766 15.0686 6.60825C15.1229 6.73884 15.1508 6.87885 15.1508 7.02025C15.1508 7.16164 15.1229 7.30165 15.0686 7.43224C15.0144 7.56283 14.9349 7.68142 14.8348 7.78122L9.38073 13.2172C9.28113 13.3167 9.16288 13.3957 9.03275 13.4495C8.90262 13.5033 8.76315 13.531 8.62233 13.5309Z" fill="black"/>
</svg>
