<svg width="43" height="43" viewBox="0 0 43 43" fill="none" xmlns="http://www.w3.org/2000/svg">
<circle cx="21.6346" cy="21.8037" r="20.9732" fill="white"/>
<path d="M31.2929 25.9472C29.7634 24.6544 28.8863 22.7646 28.8863 20.7626V17.9422C28.8863 14.3823 26.2419 11.4355 22.8166 10.9418V9.84927C22.8166 9.28984 22.3634 8.83765 21.8049 8.83765C21.2465 8.83765 20.7933 9.28984 20.7933 9.84927V10.9418C17.367 11.4355 14.7236 14.3823 14.7236 17.9422V20.7626C14.7236 22.7646 13.8465 24.6544 12.3078 25.9553C11.9143 26.2922 11.6887 26.7818 11.6887 27.2997C11.6887 28.276 12.4828 29.0701 13.4591 29.0701H30.1508C31.127 29.0701 31.9212 28.276 31.9212 27.2997C31.9212 26.7818 31.6956 26.2922 31.2929 25.9472Z" fill="#565555"/>
<path d="M32.6912 17.7449C32.6912 20.2682 30.6457 22.3138 28.1224 22.3138C25.599 22.3138 23.5535 20.2682 23.5535 17.7449C23.5535 15.2216 25.599 13.176 28.1224 13.176C30.6457 13.176 32.6912 15.2216 32.6912 17.7449Z" fill="#FFDAC5"/>
<path fill-rule="evenodd" clip-rule="evenodd" d="M28.1224 21.3138C30.0934 21.3138 31.6912 19.716 31.6912 17.7449C31.6912 15.7739 30.0934 14.176 28.1224 14.176C26.1513 14.176 24.5535 15.7739 24.5535 17.7449C24.5535 19.716 26.1513 21.3138 28.1224 21.3138ZM28.1224 22.3138C30.6457 22.3138 32.6912 20.2682 32.6912 17.7449C32.6912 15.2216 30.6457 13.176 28.1224 13.176C25.599 13.176 23.5535 15.2216 23.5535 17.7449C23.5535 20.2682 25.599 22.3138 28.1224 22.3138Z" fill="white"/>
<path d="M21.8048 33.1167C23.6369 33.1167 25.1695 31.8106 25.5215 30.0818H18.0881C18.4402 31.8106 19.9728 33.1167 21.8048 33.1167Z" fill="#565555"/>
</svg>
