<svg width="44" height="44" viewBox="0 0 44 44" fill="none" xmlns="http://www.w3.org/2000/svg">
<path d="M22.2345 43.2837C34.087 43.2837 43.6953 33.6754 43.6953 21.8229C43.6953 9.9704 34.087 0.362061 22.2345 0.362061C10.382 0.362061 0.773682 9.9704 0.773682 21.8229C0.773682 33.6754 10.382 43.2837 22.2345 43.2837Z" fill="#FF813A"/>
<path d="M39.5626 9.14404L26.2855 22.4211L18.1561 14.2917C17.6305 13.7661 16.7605 13.7661 16.2348 14.2917L14.0688 16.4578C13.5431 16.9834 13.5431 17.8534 14.0688 18.3791L25.3158 29.6261C25.8414 30.1517 26.7115 30.1517 27.2371 29.6261L29.0044 27.8588C29.0497 27.8226 29.095 27.7863 29.1312 27.741L42.4083 14.4639C41.7105 12.5517 40.7498 10.7663 39.5626 9.14404Z" fill="white"/>
<path d="M39.5626 9.14404L26.2855 22.4211L18.1561 14.2917C17.6305 13.7661 16.7605 13.7661 16.2348 14.2917L14.0688 16.4578C13.5431 16.9834 13.5431 17.8534 14.0688 18.3791L25.3158 29.6261C25.8414 30.1517 26.7115 30.1517 27.2371 29.6261L29.0044 27.8588C29.0497 27.8226 29.095 27.7863 29.1312 27.741L42.4083 14.4639C41.7105 12.5517 40.7498 10.7663 39.5626 9.14404Z" fill="white"/>
<path d="M14.0687 18.3789C13.543 17.8532 13.543 16.9832 14.0687 16.4575L15.4915 15.0347L1.88818 28.638C2.54071 30.5865 3.46512 32.4172 4.62516 34.0757L17.1953 21.5055L14.0687 18.3789Z" fill="#FAF0EA"/>
<path d="M42.3811 14.491L29.1312 27.7409C29.0949 27.7862 29.0496 27.8224 29.0043 27.8587L27.2371 29.6259C26.7114 30.1516 25.8414 30.1516 25.3157 29.6259L17.1954 21.5056L4.62524 34.0758C4.77931 34.3024 4.94244 34.5289 5.11464 34.7555L17.1954 22.6747L25.3157 30.795C25.8414 31.3207 26.7114 31.3207 27.2371 30.795L29.0043 29.0278C29.0496 28.9915 29.0949 28.9553 29.1312 28.91L42.7164 15.3701C42.6076 15.0801 42.4989 14.781 42.3811 14.491Z" fill="#D0662A"/>
</svg>
