<svg width="23" height="23" viewBox="0 0 23 23" fill="none" xmlns="http://www.w3.org/2000/svg">
<circle cx="11.0442" cy="11.4983" r="11.0442" fill="white"/>
<path d="M14.4692 11.8598H6.52132C6.34175 11.8598 6.16953 11.7884 6.04255 11.6615C5.91557 11.5345 5.84424 11.3623 5.84424 11.1827C5.84424 11.0031 5.91557 10.8309 6.04255 10.7039C6.16953 10.577 6.34175 10.5056 6.52132 10.5056H14.4692C14.6488 10.5056 14.821 10.577 14.948 10.7039C15.075 10.8309 15.1463 11.0031 15.1463 11.1827C15.1463 11.3623 15.075 11.5345 14.948 11.6615C14.821 11.7884 14.6488 11.8598 14.4692 11.8598Z" fill="black"/>
<path d="M11.2084 15.2863C11.0744 15.2863 10.9434 15.2465 10.8321 15.172C10.7207 15.0975 10.6339 14.9916 10.5828 14.8677C10.5316 14.7439 10.5184 14.6076 10.5447 14.4762C10.571 14.3448 10.6358 14.2242 10.7307 14.1296L13.6871 11.1827L10.7307 8.23573C10.6071 8.10824 10.5386 7.93732 10.5398 7.75978C10.541 7.58224 10.612 7.41229 10.7373 7.28653C10.8626 7.16077 11.0323 7.08928 11.2099 7.08744C11.3874 7.0856 11.5586 7.15357 11.6865 7.27671L15.1241 10.703C15.1873 10.7659 15.2374 10.8407 15.2716 10.923C15.3057 11.0053 15.3233 11.0935 15.3233 11.1827C15.3233 11.2718 15.3057 11.36 15.2716 11.4424C15.2374 11.5247 15.1873 11.5994 15.1241 11.6623L11.6865 15.0886C11.6237 15.1514 11.5491 15.2011 11.4671 15.2351C11.3851 15.269 11.2972 15.2864 11.2084 15.2863Z" fill="black"/>
</svg>
