<svg width="270" height="278" viewBox="0 0 270 278" fill="none" xmlns="http://www.w3.org/2000/svg">
<ellipse opacity="0.1" cx="141.012" cy="161.174" rx="101.625" ry="102.33" fill="#D0662A"/>
<rect x="0.694336" y="117.325" width="91.7413" height="124.801" rx="10.3726" transform="rotate(-15 0.694336 117.325)" fill="#EDF0E8"/>
<path d="M3.37895 127.344C1.89628 121.811 5.18005 116.123 10.7135 114.641L79.2905 96.2654C84.8239 94.7827 90.5116 98.0665 91.9943 103.6L94.2924 112.176L5.67704 135.921L3.37895 127.344Z" fill="#607C34"/>
<rect x="43.5923" y="202.131" width="54.0511" height="18.5517" rx="4.75409" transform="rotate(-15 43.5923 202.131)" fill="#607C34" fill-opacity="0.12" stroke="#607C34" stroke-width="0.86438"/>
<rect x="36.7522" y="174.678" width="54.0511" height="18.5517" rx="4.75409" transform="rotate(-15 36.7522 174.678)" fill="#607C34" fill-opacity="0.12" stroke="#607C34" stroke-width="0.86438"/>
<path d="M37.8357 138.927C31.8455 140.532 28.2895 146.69 29.8947 152.681C31.4999 158.671 37.6578 162.226 43.6485 160.621C49.6397 159.016 53.1947 152.858 51.5895 146.868C49.9843 140.877 43.8269 137.322 37.8357 138.927ZM38.7047 142.171C40.6869 141.639 42.7236 142.816 43.2544 144.797C43.7854 146.779 42.6096 148.815 40.6275 149.346C38.6463 149.877 36.6097 148.701 36.0787 146.72C35.5479 144.738 36.7236 142.701 38.7047 142.171ZM42.8863 157.786C40.9094 158.315 38.9059 158.081 37.19 157.263C36.7721 157.064 36.4617 156.691 36.3421 156.245C35.8037 154.236 36.999 152.192 39.0088 151.653L43.1837 150.535C45.1939 149.996 47.2448 151.17 47.7832 153.179C47.903 153.626 47.8214 154.103 47.5584 154.484C46.4818 156.051 44.8636 157.256 42.8863 157.786Z" fill="#607C34"/>
<rect width="91.7413" height="124.801" rx="10.3726" transform="matrix(-0.965926 -0.258819 -0.258819 0.965926 269.574 117.325)" fill="#E9EDEE"/>
<path d="M266.89 127.344C268.372 121.811 265.089 116.123 259.555 114.641L190.978 96.2654C185.445 94.7827 179.757 98.0665 178.274 103.6L175.976 112.176L264.592 135.921L266.89 127.344Z" fill="#0D5074"/>
<rect x="-0.529322" y="0.305604" width="54.0511" height="18.5517" rx="4.75409" transform="matrix(-0.965926 -0.258819 -0.258819 0.965926 233.6 174.245)" fill="#0D5074" fill-opacity="0.2" stroke="#0D5074" stroke-width="0.86438"/>
<rect x="-0.529322" y="0.305604" width="54.0511" height="18.5517" rx="4.75409" transform="matrix(-0.965926 -0.258819 -0.258819 0.965926 226.244 201.698)" fill="#0D5074" fill-opacity="0.2" stroke="#0D5074" stroke-width="0.86438"/>
<path d="M232.433 138.927C238.423 140.532 241.979 146.69 240.374 152.681C238.769 158.671 232.611 162.226 226.62 160.621C220.629 159.016 217.074 152.858 218.679 146.868C220.284 140.877 226.442 137.322 232.433 138.927ZM231.564 142.171C229.582 141.639 227.545 142.816 227.014 144.797C226.483 146.779 227.659 148.815 229.641 149.346C231.622 149.877 233.659 148.701 234.19 146.72C234.721 144.738 233.545 142.701 231.564 142.171ZM227.382 157.786C229.359 158.315 231.363 158.081 233.079 157.263C233.496 157.064 233.807 156.691 233.926 156.245C234.465 154.236 233.27 152.192 231.26 151.653L227.085 150.535C225.075 149.996 223.024 151.17 222.485 153.179C222.366 153.626 222.447 154.103 222.71 154.484C223.787 156.051 225.405 157.256 227.382 157.786Z" fill="#0D5074"/>
<g filter="url(#filter0_d_222_4686)">
<rect x="78.0081" y="73.9086" width="106.135" height="144.382" rx="12" fill="white"/>
</g>
<path d="M78.0081 85.9086C78.0081 79.2812 83.3806 73.9086 90.0081 73.9086H172.144C178.771 73.9086 184.144 79.2812 184.144 85.9086V96.1809H78.0081V85.9086Z" fill="#D0662A"/>
<rect x="100.552" y="148.641" width="62.5316" height="21.4625" rx="5.5" fill="#FAF0EA" stroke="#D0662A"/>
<rect x="100.552" y="182.395" width="62.5316" height="21.4625" rx="5.5" fill="#FAF0EA" stroke="#D0662A"/>
<path d="M113.045 109.169C105.87 109.169 100.052 114.986 100.052 122.161C100.052 129.336 105.869 135.152 113.045 135.152C120.22 135.152 126.037 129.336 126.037 122.161C126.037 114.986 120.22 109.169 113.045 109.169ZM113.045 113.054C115.419 113.054 117.342 114.978 117.342 117.351C117.342 119.725 115.419 121.648 113.045 121.648C110.672 121.648 108.748 119.725 108.748 117.351C108.748 114.978 110.672 113.054 113.045 113.054ZM113.042 131.756C110.674 131.756 108.505 130.893 106.833 129.466C106.425 129.119 106.19 128.609 106.19 128.074C106.19 125.668 108.138 123.742 110.545 123.742H115.545C117.953 123.742 119.893 125.668 119.893 128.074C119.893 128.61 119.659 129.118 119.251 129.466C117.579 130.893 115.41 131.756 113.042 131.756Z" fill="#D0662A"/>
<path d="M213.261 257.531L200.553 264.48L193.604 277.189L186.655 264.48L173.947 257.531L186.655 250.582L193.604 237.874L200.553 250.582L213.261 257.531Z" fill="#FCD884"/>
<path d="M49.5972 18.993L39.5095 28.6232L36.2133 42.1745L26.5831 32.0868L13.0319 28.7906L23.1195 19.1604L26.4157 5.60918L36.0459 15.6968L49.5972 18.993Z" fill="#FFCD02"/>
<path d="M247.971 40.9665L237.761 43.4499L230.506 51.0502L228.022 40.8404L220.422 33.5848L230.632 31.1014L237.887 23.5011L240.371 33.7109L247.971 40.9665Z" fill="#F7D694"/>
<defs>
<filter id="filter0_d_222_4686" x="46.0081" y="41.9086" width="194.135" height="232.383" filterUnits="userSpaceOnUse" color-interpolation-filters="sRGB">
<feFlood flood-opacity="0" result="BackgroundImageFix"/>
<feColorMatrix in="SourceAlpha" type="matrix" values="0 0 0 0 0 0 0 0 0 0 0 0 0 0 0 0 0 0 127 0" result="hardAlpha"/>
<feOffset dx="12" dy="12"/>
<feGaussianBlur stdDeviation="22"/>
<feComposite in2="hardAlpha" operator="out"/>
<feColorMatrix type="matrix" values="0 0 0 0 0 0 0 0 0 0 0 0 0 0 0 0 0 0 0.12 0"/>
<feBlend mode="normal" in2="BackgroundImageFix" result="effect1_dropShadow_222_4686"/>
<feBlend mode="normal" in="SourceGraphic" in2="effect1_dropShadow_222_4686" result="shape"/>
</filter>
</defs>
</svg>
