<svg width="204" height="206" viewBox="0 0 204 206" fill="none" xmlns="http://www.w3.org/2000/svg">
<ellipse cx="102" cy="103.318" rx="101.625" ry="102.33" fill="#E7EEF2"/>
<g clip-path="url(#clip0_608_6590)">
<mask id="mask0_608_6590" style="mask-type:alpha" maskUnits="userSpaceOnUse" x="0" y="0" width="204" height="206">
<ellipse cx="102" cy="103.318" rx="101.625" ry="102.33" fill="#E7EEF2"/>
</mask>
<g mask="url(#mask0_608_6590)">
<path d="M70.9864 205.444C70.9864 205.444 81.2395 166.348 72.8676 157.152C72.8676 157.152 50.2768 141.122 46.8365 137.672C46.8365 137.672 35.3801 119.552 34.2955 115.081C34.2955 115.081 23.2289 96.0089 23.5 94.649C23.5 94.649 26.3302 89.5155 32.8041 97.0798C32.8041 97.0798 39.278 105.868 40.3626 108.452C40.3626 108.452 37.5324 93.9691 34.8378 84.229C34.8378 84.229 38.4815 78.5516 43.464 88.6996C43.464 88.6996 50.7513 86.2688 52.4969 100.87C52.4969 100.87 57.3438 101.278 59.5131 109.387C59.5131 109.387 64.5125 120.351 65.0379 126.028C65.0379 126.028 87.1542 133.881 94.1704 148.075C94.1704 148.075 96.4582 150.914 97.6785 158.631C97.6785 158.631 98.6275 201.926 98.8987 205.444H70.9864Z" fill="#E0A062"/>
<path d="M60.191 139.423C60.191 139.423 57.7675 132.793 51.1581 129.003C51.1581 129.003 40.6338 122.458 37.9392 118.226C37.9392 118.226 35.3801 115.489 36.9901 112.497C36.9901 112.497 34.2955 114.826 37.3291 119.093C37.3291 119.093 43.0912 127.252 51.0903 132.198C51.0903 132.198 56.0389 133.677 60.191 139.423Z" fill="#C58653"/>
<path d="M35.7021 87.4757C35.7021 87.4757 40.0915 92.3372 44.5995 111.8C44.5995 111.8 41.9049 110.95 41.2778 110.865C41.2778 110.865 40.8033 109.047 40.0237 108.027C40.0237 108.044 37.2274 92.4392 35.7021 87.4757Z" fill="#C58653"/>
<path d="M43.9045 89.9915C43.9045 89.9915 51.802 99.8675 54.1238 119.008L51.3614 116.985C51.3614 116.968 46.1246 94.343 43.9045 89.9915Z" fill="#C58653"/>
<path d="M52.7511 101.856C52.7511 101.856 57.9539 117.104 58.8691 122.577C58.8691 122.577 61.0044 124.073 61.6145 124.583C61.6145 124.583 56.5981 105.018 52.7511 101.856Z" fill="#C58653"/>
<path d="M64.6481 125.96C64.6481 125.96 84.8154 134.816 93.4755 146.766C93.4755 146.766 84.2731 130.023 64.6481 125.96Z" fill="#C58653"/>
<path d="M42.803 131.127C42.803 131.127 46.0738 136.754 46.7009 137.468C46.7009 137.468 52.2935 143.145 69.817 154.976L48.0397 136.363L42.803 131.127Z" fill="#C58653"/>
<path d="M97.5428 157.764L98.8986 205.648H94.1873L95.7973 151.253L97.17 155.928L97.5428 157.764Z" fill="#C58653"/>
<path d="M40.2609 110.831C40.2609 110.831 47.0738 110.525 56.0728 120.741C56.0728 120.741 62.6484 124.991 65.6141 126.402C65.6141 126.402 56.4795 123.121 48.0398 116.951C48.0398 116.951 39.0068 111.137 36.9901 112.48C36.9901 112.514 38.1425 111.29 40.2609 110.831Z" fill="#DA9C60"/>
<path d="M133.014 205.444C133.014 205.444 122.76 166.348 131.132 157.152C131.132 157.152 153.723 141.122 157.163 137.672C157.163 137.672 168.637 119.552 169.705 115.081C169.705 115.081 180.771 96.0089 180.5 94.649C180.5 94.649 177.67 89.5155 171.196 97.0798C171.196 97.0798 164.722 105.868 163.637 108.452C163.637 108.452 166.468 93.9691 169.162 84.229C169.162 84.229 165.519 78.5516 160.536 88.6996C160.536 88.6996 153.249 86.2688 151.503 100.87C151.503 100.87 146.639 101.278 144.487 109.387C144.487 109.387 139.504 120.351 138.962 126.028C138.962 126.028 116.846 133.881 109.83 148.075C109.83 148.075 107.542 150.914 106.322 158.631C106.322 158.631 105.372 201.926 105.101 205.444H133.014Z" fill="#E0A062"/>
<path d="M143.809 139.423C143.809 139.423 146.233 132.793 152.842 129.003C152.842 129.003 163.366 122.458 166.061 118.226C166.061 118.226 168.62 115.489 166.993 112.497C166.993 112.497 169.688 114.826 166.654 119.093C166.654 119.093 160.892 127.252 152.893 132.198C152.91 132.198 147.961 133.677 143.809 139.423Z" fill="#C58653"/>
<path d="M168.298 87.4757C168.298 87.4757 163.909 92.3372 159.401 111.8C159.401 111.8 162.095 110.95 162.722 110.865C162.722 110.865 163.197 109.047 163.976 108.027C163.976 108.044 166.773 92.4392 168.298 87.4757Z" fill="#C58653"/>
<path d="M160.095 89.9915C160.095 89.9915 152.215 99.8675 149.876 119.008L152.639 116.985C152.639 116.968 157.875 94.343 160.095 89.9915Z" fill="#C58653"/>
<path d="M151.249 101.856C151.249 101.856 146.046 117.104 145.131 122.577C145.131 122.577 142.996 124.073 142.385 124.583C142.385 124.583 147.402 105.018 151.249 101.856Z" fill="#C58653"/>
<path d="M139.352 125.96C139.352 125.96 119.185 134.816 110.525 146.766C110.525 146.766 119.727 130.023 139.352 125.96Z" fill="#C58653"/>
<path d="M161.197 131.127C161.197 131.127 157.926 136.754 157.299 137.468C157.299 137.468 151.707 143.145 134.183 154.976L155.96 136.363L161.197 131.127Z" fill="#C58653"/>
<path d="M106.457 157.764L105.101 205.648H109.813L108.203 151.253L106.813 155.928L106.457 157.764Z" fill="#C58653"/>
<path d="M163.739 110.831C163.739 110.831 156.926 110.525 147.944 120.741C147.944 120.741 141.369 124.991 138.403 126.402C138.403 126.402 147.537 123.121 155.977 116.951C155.977 116.951 165.01 111.137 167.027 112.48C167.01 112.514 165.857 111.29 163.739 110.831Z" fill="#DA9C60"/>
</g>
</g>
<path d="M102 123.493C100.649 123.493 99.2963 123.169 98.0876 122.556C94.4344 120.704 87.3005 116.734 80.571 110.946C71.8168 103.417 66.6279 95.3351 65.1485 86.9253C63.9993 80.3924 65.6399 73.7233 69.6498 68.628C73.3633 63.9091 78.6256 61.1514 84.4673 60.8631C84.8109 60.8461 85.1589 60.8376 85.5015 60.8376C90.9747 60.8376 96.1414 62.9737 100.05 66.8525C100.756 67.5531 101.407 68.2966 102 69.0769C102.593 68.2966 103.244 67.553 103.95 66.8522C107.858 62.9737 113.025 60.8376 118.498 60.8376C118.841 60.8376 119.189 60.8462 119.533 60.8631C125.374 61.1514 130.637 63.9091 134.35 68.6283C138.36 73.7236 140.001 80.3927 138.851 86.9255C137.372 95.3351 132.183 103.417 123.429 110.946C116.7 116.734 109.566 120.705 105.912 122.556C104.703 123.169 103.351 123.493 102 123.493V123.493Z" fill="url(#paint0_linear_608_6590)"/>
<path d="M134.35 68.6284C132.958 66.8594 131.349 65.3662 129.573 64.1752C132.815 69.0518 134.072 75.0963 133.029 81.0287C131.549 89.4383 126.361 97.5202 117.606 105.05C110.877 110.837 103.743 114.808 100.09 116.659C98.8809 117.272 97.528 117.596 96.1773 117.596C94.8266 117.596 93.4737 117.272 92.2649 116.659C88.6118 114.808 81.4779 110.838 74.7484 105.05C74.4601 104.802 74.1763 104.553 73.8956 104.304C75.8229 106.56 78.048 108.776 80.5711 110.946C87.3006 116.734 94.4345 120.705 98.0876 122.556C99.2965 123.169 100.649 123.493 102 123.493C103.351 123.493 104.704 123.169 105.912 122.556C109.566 120.705 116.7 116.734 123.429 110.946C132.183 103.417 137.372 95.3351 138.851 86.9256C140.001 80.3928 138.36 73.7237 134.35 68.6284V68.6284Z" fill="url(#paint1_linear_608_6590)"/>
<path d="M119.533 60.8631C119.189 60.8462 118.841 60.8376 118.499 60.8376C113.025 60.8376 107.858 62.9737 103.95 66.8523C103.244 67.553 102.593 68.2965 102 69.0767V123.493C103.351 123.493 104.704 123.169 105.912 122.556C109.566 120.704 116.7 116.734 123.429 110.946C132.183 103.417 137.372 95.3349 138.851 86.9253C140.001 80.3925 138.36 73.7235 134.35 68.6281C130.637 63.9091 125.374 61.1514 119.533 60.8631V60.8631Z" fill="url(#paint2_linear_608_6590)"/>
<defs>
<linearGradient id="paint0_linear_608_6590" x1="95.8612" y1="76.0495" x2="122.277" y2="108.617" gradientUnits="userSpaceOnUse">
<stop stop-color="#FF7044"/>
<stop offset="1" stop-color="#F82814"/>
</linearGradient>
<linearGradient id="paint1_linear_608_6590" x1="110.801" y1="100.195" x2="121.799" y2="123.403" gradientUnits="userSpaceOnUse">
<stop stop-color="#F82814" stop-opacity="0"/>
<stop offset="1" stop-color="#C0272D"/>
</linearGradient>
<linearGradient id="paint2_linear_608_6590" x1="108.153" y1="85.629" x2="73.4711" y2="50.7115" gradientUnits="userSpaceOnUse">
<stop stop-color="#F82814" stop-opacity="0"/>
<stop offset="1" stop-color="#C0272D"/>
</linearGradient>
<clipPath id="clip0_608_6590">
<rect width="157" height="123" fill="white" transform="translate(23.5 82.6482)"/>
</clipPath>
</defs>
</svg>
