<svg width="295" height="282" viewBox="0 0 295 282" fill="none" xmlns="http://www.w3.org/2000/svg">
<ellipse cx="113.22" cy="167.663" rx="113.22" ry="114.005" fill="#F0F2EB"/>
<path d="M261.001 84.0196H67.0475V254.044H261.001V84.0196Z" fill="#7C994E"/>
<path d="M260.977 230.717V254.069H233.411L228.033 248.667L224.86 245.493L224.884 242.732V227.471C224.884 230.208 222.656 232.437 219.919 232.437C216.77 232.437 214.275 229.482 215.098 226.212C207.274 226.672 205.167 215.674 212.555 213.155C209.285 209.861 212.579 204.192 217.133 205.694C217.012 201.382 220.452 198.112 224.424 198.112C228.566 198.112 232.103 201.6 231.667 206.106C233.435 205.04 235.228 205.307 236.536 206.251L237.529 207.269L260.977 230.717Z" fill="#506829"/>
<path d="M162.752 254.141H111.811L106.337 248.642L103.14 245.445L103.164 242.683V227.423C103.164 230.16 100.935 232.388 98.1981 232.388C95.0249 232.388 92.53 229.433 93.3778 226.163C85.5538 226.623 83.4464 215.626 90.8344 213.107C87.5643 209.812 90.8586 204.144 95.4367 205.67C95.3156 201.358 98.7553 198.088 102.752 198.088C106.894 198.088 110.431 201.576 109.995 206.058C111.763 204.992 113.556 205.282 114.864 206.203L115.857 207.22L162.752 254.141Z" fill="#506829"/>
<path d="M261.001 84.0196H66.8536V89.5183H261.001V84.0196Z" fill="#506829"/>
<path d="M189.785 147.001H138.239V254.044H189.785V147.001Z" fill="#607C34"/>
<path d="M267.856 248.546H60.1681V254.044H267.856V248.546Z" fill="#607C34"/>
<path d="M267.856 72.1259H60.1681V84.0196H267.856V72.1259Z" fill="#607C34"/>
<path d="M184.747 152.185H143.277V226.599H184.747V152.185Z" fill="#BEF5FA"/>
<path d="M254.024 158.579V225.388H195.696V154.825C195.817 154.461 195.914 154.05 195.962 153.662C196.228 156.424 198.481 158.604 201.267 158.604C204.077 158.604 206.329 156.424 206.596 153.662C206.862 156.424 209.139 158.604 211.925 158.604C214.711 158.604 216.963 156.424 217.254 153.662C217.52 156.424 219.773 158.604 222.583 158.604C225.369 158.604 227.621 156.424 227.912 153.662C228.179 156.424 230.431 158.604 233.217 158.604C236.027 158.604 238.255 156.424 238.546 153.662C238.812 156.424 241.089 158.604 243.875 158.604C246.661 158.604 248.913 156.424 249.204 153.662C249.422 156.278 251.457 158.361 254.024 158.579Z" fill="#BEF5FA"/>
<path d="M132.353 154.825V225.388H74.0237V158.579C76.5913 158.361 78.626 156.278 78.8925 153.662C79.159 156.424 81.4117 158.604 84.2216 158.604C87.0072 158.604 89.2841 156.424 89.5506 153.662C89.7928 156.424 92.0698 158.604 94.8554 158.604C97.6411 158.604 99.8938 156.424 100.184 153.662C100.451 156.424 102.728 158.604 105.514 158.604C108.299 158.604 110.576 156.424 110.843 153.662C111.133 156.424 113.362 158.604 116.172 158.604C118.957 158.604 121.21 156.424 121.476 153.662C121.743 156.424 124.02 158.604 126.806 158.604C129.591 158.604 131.844 156.448 132.135 153.662C132.135 154.05 132.231 154.461 132.353 154.825Z" fill="#BEF5FA"/>
<path d="M132.353 230.645H74.0237V241.86H132.353V230.645Z" fill="#607C34"/>
<path d="M254.025 230.645H195.696V241.86H254.025V230.645Z" fill="#607C34"/>
<path d="M184.747 230.645H143.277V241.86H184.747V230.645Z" fill="#7C994E"/>
<path d="M258.627 147.606H68.7915V131.134H258.627V147.606ZM70.6325 145.79H256.81V132.975H70.6325V145.79Z" fill="black"/>
<path d="M259.547 132.975H67.8711L78.4081 119.023H249.035L259.547 132.975ZM71.553 131.159H255.89L248.114 120.864H79.3043L71.553 131.159Z" fill="black"/>
<path d="M248.356 78.0848H78.8683V119.943H248.356V78.0848Z" fill="#607C34"/>
<path d="M241.017 87.6773H85.9413V112.385H241.017V87.6773Z" fill="#7C994E"/>
<path d="M236.535 206.276C235.227 205.331 233.435 205.064 231.667 206.13C232.078 201.625 228.542 198.161 224.424 198.161C220.427 198.161 216.988 201.407 217.133 205.743C212.555 204.217 209.26 209.885 212.531 213.179C206.523 215.214 206.79 222.845 211.295 225.388H254.024V223.765L237.529 207.269L236.535 206.276Z" fill="#B4EBF0"/>
<path d="M241.017 84.0196H86.0867V89.5183H241.017V84.0196Z" fill="#506829"/>
<path opacity="0.5" d="M100.063 225.388H86.4743L74.0237 212.913V199.348L100.063 225.388Z" fill="white"/>
<path d="M114.864 206.276C113.556 205.331 111.763 205.064 109.995 206.13C110.407 201.625 106.894 198.161 102.752 198.161C98.7553 198.161 95.3156 201.407 95.4367 205.743C90.8586 204.217 87.5643 209.885 90.8344 213.179C84.8271 215.214 85.0935 222.845 89.599 225.388H132.328V223.765L115.832 207.269L114.864 206.276Z" fill="#B4EBF0"/>
<path opacity="0.5" d="M221.735 225.388H208.146L195.696 212.913V199.348L221.735 225.388Z" fill="white"/>
<path d="M112.95 226.212C114.839 233.551 103.164 234.787 103.164 227.447C103.164 230.184 100.935 232.413 98.1981 232.413C95.0249 232.413 92.5542 229.433 93.3778 226.187C85.5538 226.648 83.4464 215.65 90.8344 213.131C87.5643 209.836 90.8586 204.168 95.4367 205.694C95.3156 201.382 98.7553 198.112 102.752 198.112C106.894 198.112 110.407 201.576 109.995 206.082C111.763 205.016 113.556 205.282 114.864 206.227L115.881 207.245C117.116 208.868 117.359 211.29 115.518 213.131C122.881 215.674 120.798 226.672 112.95 226.212Z" fill="#006400"/>
<path d="M102.268 242.926V211.75H104.109V242.708L102.268 242.926Z" fill="#3C1E1E"/>
<path d="M111.86 242.708H94.4921V254.141H111.86V242.708Z" fill="#41502B"/>
<path d="M95.6006 214.776L94.3162 216.061L102.557 224.298L103.842 223.013L95.6006 214.776Z" fill="#3C1E1E"/>
<path d="M110.605 214.941L102.53 223L103.83 224.303L111.905 216.244L110.605 214.941Z" fill="#3C1E1E"/>
<path d="M234.646 226.212C236.535 233.551 224.86 234.787 224.86 227.447C224.86 230.184 222.632 232.413 219.894 232.413C216.721 232.413 214.25 229.433 215.074 226.187C207.25 226.648 205.143 215.65 212.531 213.131C209.26 209.836 212.555 204.168 217.133 205.694C217.012 201.382 220.451 198.112 224.424 198.112C228.566 198.112 232.103 201.576 231.667 206.082C233.435 205.016 235.227 205.282 236.535 206.227L237.529 207.245C238.788 208.868 239.006 211.29 237.165 213.131C244.553 215.674 242.494 226.672 234.646 226.212Z" fill="#006400"/>
<path d="M223.964 242.926V211.75H225.78V242.708L223.964 242.926Z" fill="#3C1E1E"/>
<path d="M233.58 242.708H216.188V254.141H233.58V242.708Z" fill="#41502B"/>
<path d="M217.299 214.765L215.998 216.067L224.239 224.305L225.54 223.003L217.299 214.765Z" fill="#3C1E1E"/>
<path d="M232.279 214.937L224.212 223.004L225.513 224.306L233.581 216.238L232.279 214.937Z" fill="#3C1E1E"/>
<path d="M68.1859 132.055V147.606C68.1859 150.634 70.584 153.105 73.5634 153.105C76.5428 153.105 78.9409 150.634 78.9409 147.606V132.055H68.1859Z" fill="#FBD2BB"/>
<path d="M74.0237 147.001H132.353V154.801C132.231 154.437 132.135 154.026 132.086 153.638C131.82 156.424 129.543 158.58 126.757 158.58C123.971 158.58 121.694 156.399 121.428 153.638C121.162 156.399 118.909 158.58 116.123 158.58C113.313 158.58 111.085 156.399 110.794 153.638C110.528 156.399 108.251 158.58 105.465 158.58C102.679 158.58 100.427 156.399 100.136 153.638C99.8696 156.399 97.6168 158.58 94.807 158.58C92.0213 158.58 89.7444 156.399 89.5021 153.638C89.2357 156.399 86.9587 158.58 84.1731 158.58C81.3632 158.58 79.1347 156.399 78.844 153.638C78.5776 156.254 76.5429 158.337 73.9752 158.555V147.001H74.0237Z" fill="#B4EBF0"/>
<path opacity="0.5" d="M132.353 162.455V183.142L97.2535 148.067H117.964L132.353 162.455Z" fill="white"/>
<path d="M254.025 147.001V158.555C251.433 158.337 249.422 156.254 249.156 153.638C248.865 156.399 246.612 158.58 243.827 158.58C241.041 158.58 238.788 156.399 238.498 153.638C238.207 156.399 235.978 158.58 233.169 158.58C230.383 158.58 228.106 156.399 227.864 153.638C227.597 156.399 225.32 158.58 222.535 158.58C219.725 158.58 217.496 156.399 217.206 153.638C216.915 156.399 214.662 158.58 211.877 158.58C209.091 158.58 206.838 156.399 206.548 153.638C206.281 156.399 204.028 158.58 201.219 158.58C198.433 158.58 196.18 156.399 195.914 153.638C195.865 154.05 195.793 154.437 195.647 154.801V147.001H254.025Z" fill="#B4EBF0"/>
<path d="M68.1859 137.554V153.105C68.1859 156.133 70.6082 158.58 73.5634 158.58C73.7088 158.58 73.8783 158.58 74.0236 158.555V147.001H132.353V154.801C133.055 157.005 135.041 158.555 137.415 158.555C137.706 158.555 137.972 158.531 138.239 158.483V146.977H189.785V158.483C190.052 158.531 190.342 158.555 190.633 158.555C193.007 158.555 195.017 156.957 195.696 154.801V147.001H254.025V158.555C254.17 158.58 254.315 158.58 254.485 158.58C257.44 158.58 259.838 156.133 259.838 153.105V137.554H68.1859Z" fill="#506829"/>
<path d="M138.239 147.001V158.507C140.637 158.119 142.478 156.133 142.744 153.638C142.817 154.316 142.986 154.97 143.277 155.552V152.185H184.747V155.576C185.038 154.994 185.231 154.34 185.304 153.662C185.546 156.133 187.411 158.144 189.785 158.531V147.025H138.239V147.001Z" fill="#7C994E"/>
<path opacity="0.5" d="M254.025 162.455V183.142L218.925 148.067H239.66L254.025 162.455Z" fill="white"/>
<path d="M78.8198 132.055V147.606C78.8198 150.634 81.2179 153.105 84.1973 153.105C87.1767 153.105 89.5748 150.634 89.5748 147.606V132.055H78.8198Z" fill="#D0662A"/>
<path d="M100.112 132.055V147.606C100.112 150.634 102.51 153.105 105.489 153.105C108.469 153.105 110.867 150.634 110.867 147.606V132.055H100.112Z" fill="#D0662A"/>
<path d="M121.404 132.055V147.606C121.404 150.634 123.802 153.105 126.781 153.105C129.737 153.105 132.159 150.658 132.159 147.606V132.055H121.404Z" fill="#D0662A"/>
<path d="M142.696 132.055V147.606C142.696 150.634 145.094 153.105 148.073 153.105C151.053 153.105 153.451 150.658 153.451 147.606V132.055H142.696Z" fill="#D0662A"/>
<path d="M163.964 132.055V147.606C163.964 150.634 166.362 153.105 169.341 153.105C172.321 153.105 174.719 150.658 174.719 147.606V132.055H163.964Z" fill="#D0662A"/>
<path d="M185.255 132.055V147.606C185.255 150.634 187.654 153.105 190.633 153.105C193.612 153.105 196.01 150.658 196.01 147.606V132.055H185.255Z" fill="#D0662A"/>
<path d="M206.523 132.055V147.606C206.523 150.634 208.921 153.105 211.901 153.105C214.88 153.105 217.278 150.634 217.278 147.606V132.055H206.523Z" fill="#D0662A"/>
<path d="M227.815 132.055V147.606C227.815 150.634 230.213 153.105 233.193 153.105C236.172 153.105 238.57 150.634 238.57 147.606V132.055H227.815Z" fill="#D0662A"/>
<path d="M249.107 132.055V147.606C249.107 150.634 251.505 153.105 254.485 153.105C257.464 153.105 259.862 150.634 259.862 147.606V132.055H249.107Z" fill="#D0662A"/>
<path d="M78.8683 132.055C76.7124 132.055 75.1137 132.055 73.4908 132.055C71.8678 132.055 70.2691 132.055 68.1133 132.055C69.2275 128.954 70.0753 126.604 70.8989 124.279C71.7467 121.954 72.5703 119.604 73.6846 116.503C75.7193 116.503 77.2211 116.503 78.7472 116.503C80.2732 116.503 81.7993 116.503 83.8098 116.503C82.8166 119.628 82.0657 121.954 81.3148 124.279C80.5881 126.629 79.8614 128.954 78.8683 132.055Z" fill="#E8844B"/>
<path d="M100.16 132.055C98.0044 132.055 96.3815 132.055 94.7828 132.055C93.1598 132.055 91.5611 132.055 89.4053 132.055C90.2773 128.954 90.9313 126.604 91.5853 124.279C92.2394 121.954 92.8934 119.628 93.7654 116.503C95.8001 116.503 97.302 116.503 98.828 116.503C100.354 116.503 101.88 116.503 103.891 116.503C103.14 119.604 102.583 121.954 102.025 124.279C101.444 126.629 100.911 128.954 100.16 132.055Z" fill="#E8844B"/>
<path d="M121.452 132.055C119.296 132.055 117.698 132.055 116.075 132.055C114.476 132.055 112.853 132.055 110.697 132.055C111.327 128.954 111.787 126.604 112.248 124.279C112.708 121.954 113.192 119.604 113.798 116.503C115.833 116.503 117.334 116.503 118.86 116.503C120.386 116.503 121.888 116.503 123.923 116.503C123.439 119.628 123.051 121.954 122.688 124.279C122.3 126.629 121.937 128.954 121.452 132.055Z" fill="#E8844B"/>
<path d="M142.72 132.055C140.564 132.055 138.966 132.055 137.343 132.055C135.72 132.055 134.097 132.055 131.965 132.055C132.328 128.954 132.619 126.604 132.91 124.279C133.2 121.954 133.467 119.628 133.83 116.503C135.865 116.503 137.367 116.503 138.893 116.503C140.419 116.503 141.921 116.503 143.955 116.503C143.713 119.604 143.519 121.954 143.35 124.279C143.156 126.629 142.987 128.954 142.72 132.055Z" fill="#E8844B"/>
<path d="M164.012 132.055C161.856 132.055 160.257 132.055 158.634 132.055C157.012 132.055 155.413 132.055 153.257 132.055C153.378 128.954 153.475 126.604 153.572 124.279C153.669 121.954 153.766 119.604 153.887 116.503C155.921 116.503 157.423 116.503 158.949 116.503C160.475 116.503 161.977 116.503 164.012 116.503C164.012 119.628 164.012 121.954 164.012 124.279C164.012 126.629 164.012 128.954 164.012 132.055Z" fill="#E8844B"/>
<path d="M185.304 132.055C183.148 132.055 181.549 132.055 179.926 132.055C178.304 132.055 176.705 132.055 174.549 132.055C174.428 128.954 174.331 126.604 174.234 124.279C174.137 121.954 174.04 119.604 173.919 116.503C175.954 116.503 177.456 116.503 178.982 116.503C180.508 116.503 182.01 116.503 184.044 116.503C184.287 119.604 184.48 121.954 184.674 124.279C184.868 126.629 185.062 128.954 185.304 132.055Z" fill="#E8844B"/>
<path d="M206.596 132.055C204.44 132.055 202.841 132.055 201.218 132.055C199.596 132.055 197.997 132.055 195.841 132.055C195.478 128.954 195.187 126.604 194.92 124.279C194.63 121.954 194.363 119.604 194 116.503C196.011 116.503 197.537 116.503 199.063 116.503C200.589 116.503 202.09 116.503 204.125 116.503C204.634 119.604 204.997 121.954 205.361 124.279C205.724 126.629 206.111 128.954 206.596 132.055Z" fill="#E8844B"/>
<path d="M227.888 132.055C225.732 132.055 224.133 132.055 222.511 132.055C220.888 132.055 219.289 132.055 217.133 132.055C216.527 128.954 216.043 126.604 215.583 124.279C215.123 121.954 214.662 119.604 214.032 116.503C216.067 116.503 217.569 116.503 219.095 116.503C220.621 116.503 222.123 116.503 224.158 116.503C224.909 119.628 225.466 121.954 226.023 124.279C226.58 126.629 227.137 128.954 227.888 132.055Z" fill="#E8844B"/>
<path d="M249.18 132.055C247.024 132.055 245.425 132.055 243.802 132.055C242.179 132.055 240.581 132.055 238.425 132.055C237.553 128.954 236.923 126.604 236.269 124.279C235.615 121.954 234.961 119.604 234.089 116.503C236.124 116.503 237.626 116.503 239.152 116.503C240.678 116.503 242.179 116.503 244.214 116.503C245.207 119.628 245.958 121.954 246.685 124.279C247.436 126.629 248.187 128.954 249.18 132.055Z" fill="#E8844B"/>
<path d="M89.5021 132.055C87.3462 132.055 85.7475 132.055 84.1246 132.055C82.5016 132.055 80.9029 132.055 78.7471 132.055C79.7402 128.954 80.4911 126.604 81.2178 124.279C81.9687 121.954 82.6954 119.604 83.6886 116.503C85.7233 116.503 87.2251 116.503 88.7512 116.503C90.2772 116.503 91.779 116.503 93.8138 116.503C92.9417 119.628 92.2877 121.954 91.6337 124.279C91.0281 126.629 90.3741 128.954 89.5021 132.055Z" fill="#D0662A"/>
<path d="M110.794 132.055C108.638 132.055 107.04 132.055 105.417 132.055C103.794 132.055 102.171 132.055 100.039 132.055C100.79 128.954 101.347 126.604 101.904 124.279C102.461 121.954 103.018 119.604 103.769 116.503C105.804 116.503 107.306 116.503 108.832 116.503C110.334 116.503 111.86 116.503 113.895 116.503C113.289 119.604 112.805 121.954 112.344 124.279C111.884 126.629 111.424 128.954 110.794 132.055Z" fill="#D0662A"/>
<path d="M132.086 132.055C129.93 132.055 128.332 132.055 126.733 132.055C125.11 132.055 123.511 132.055 121.355 132.055C121.84 128.954 122.227 126.604 122.591 124.279C122.954 121.954 123.342 119.604 123.826 116.503C125.861 116.503 127.363 116.503 128.889 116.503C130.415 116.503 131.917 116.503 133.951 116.503C133.588 119.628 133.297 121.954 133.007 124.279C132.74 126.629 132.449 128.954 132.086 132.055Z" fill="#D0662A"/>
<path d="M153.378 132.055C151.222 132.055 149.623 132.055 148.001 132.055C146.378 132.055 144.779 132.055 142.623 132.055C142.865 128.954 143.059 126.604 143.253 124.279C143.447 121.954 143.616 119.604 143.858 116.503C145.893 116.503 147.395 116.503 148.921 116.503C150.447 116.503 151.949 116.503 153.984 116.503C153.863 119.604 153.766 121.954 153.669 124.279C153.596 126.629 153.499 128.954 153.378 132.055Z" fill="#D0662A"/>
<path d="M174.67 132.055C172.514 132.055 170.915 132.055 169.293 132.055C167.67 132.055 166.071 132.055 163.915 132.055C163.915 128.954 163.915 126.604 163.915 124.279C163.915 121.954 163.915 119.604 163.915 116.503C165.926 116.503 167.452 116.503 168.978 116.503C170.504 116.503 172.006 116.503 174.04 116.503C174.161 119.604 174.258 121.954 174.355 124.279C174.452 126.629 174.549 128.954 174.67 132.055Z" fill="#D0662A"/>
<path d="M195.938 132.055C193.782 132.055 192.183 132.055 190.56 132.055C188.937 132.055 187.339 132.055 185.183 132.055C184.941 128.954 184.747 126.604 184.553 124.279C184.359 121.954 184.19 119.628 183.923 116.503C185.958 116.503 187.46 116.503 188.986 116.503C190.512 116.503 192.014 116.503 194.048 116.503C194.412 119.604 194.702 121.954 194.969 124.279C195.308 126.629 195.574 128.954 195.938 132.055Z" fill="#D0662A"/>
<path d="M217.254 132.055C215.098 132.055 213.475 132.055 211.877 132.055C210.254 132.055 208.655 132.055 206.499 132.055C206.015 128.954 205.627 126.604 205.264 124.279C204.9 121.954 204.537 119.604 204.028 116.503C206.039 116.503 207.565 116.503 209.091 116.503C210.617 116.503 212.119 116.503 214.154 116.503C214.783 119.628 215.244 121.954 215.704 124.279C216.164 126.629 216.624 128.954 217.254 132.055Z" fill="#D0662A"/>
<path d="M238.522 132.055C236.366 132.055 234.767 132.055 233.144 132.055C231.546 132.055 229.923 132.055 227.767 132.055C227.016 128.954 226.459 126.604 225.902 124.279C225.345 121.954 224.787 119.628 224.036 116.503C226.071 116.503 227.573 116.503 229.099 116.503C230.625 116.503 232.127 116.503 234.162 116.503C235.034 119.604 235.688 121.954 236.342 124.279C237.02 126.629 237.65 128.954 238.522 132.055Z" fill="#D0662A"/>
<path d="M259.814 132.055C257.658 132.055 256.059 132.055 254.436 132.055C252.813 132.055 251.215 132.055 249.059 132.055C248.066 128.954 247.315 126.604 246.588 124.279C245.837 121.954 245.11 119.604 244.117 116.503C246.128 116.503 247.654 116.503 249.18 116.503C250.706 116.503 252.208 116.503 254.243 116.503C255.357 119.628 256.205 121.954 257.028 124.279C257.852 126.629 258.7 128.954 259.814 132.055Z" fill="#D0662A"/>
<path d="M89.4779 132.055V147.606C89.4779 150.634 91.9002 153.105 94.8554 153.105C97.8348 153.105 100.233 150.634 100.233 147.606V132.055H89.4779Z" fill="#FBD2BB"/>
<path d="M110.746 132.055V147.606C110.746 150.634 113.144 153.105 116.123 153.105C119.103 153.105 121.501 150.634 121.501 147.606V132.055H110.746Z" fill="#FBD2BB"/>
<path d="M132.038 132.055V147.606C132.038 150.634 134.436 153.105 137.415 153.105C140.395 153.105 142.793 150.658 142.793 147.606V132.055H132.038Z" fill="#FBD2BB"/>
<path d="M153.33 132.055V147.606C153.33 150.634 155.728 153.105 158.707 153.105C161.662 153.105 164.085 150.658 164.085 147.606V132.055H153.33Z" fill="#FBD2BB"/>
<path d="M174.597 132.055V147.606C174.597 150.634 176.995 153.105 179.975 153.105C182.93 153.105 185.352 150.658 185.352 147.606V132.055H174.597Z" fill="#FBD2BB"/>
<path d="M195.889 132.055V147.606C195.889 150.634 198.287 153.105 201.267 153.105C204.246 153.105 206.644 150.658 206.644 147.606V132.055H195.889Z" fill="#FBD2BB"/>
<path d="M217.181 132.055V147.606C217.181 150.634 219.579 153.105 222.559 153.105C225.538 153.105 227.936 150.634 227.936 147.606V132.055H217.181Z" fill="#FBD2BB"/>
<path d="M238.449 132.055V147.606C238.449 150.634 240.847 153.105 243.827 153.105C246.782 153.105 249.204 150.634 249.204 147.606V132.055H238.449Z" fill="#FBD2BB"/>
<path d="M68.1859 132.055V147.606C68.1859 150.634 70.584 153.105 73.5634 153.105C76.5428 153.105 78.9409 150.634 78.9409 147.606V132.055H68.1859Z" fill="#FBD2BB"/>
<path d="M179.975 158.58C177.189 158.58 174.937 156.399 174.646 153.638C174.379 156.399 172.127 158.58 169.341 158.58C166.531 158.58 164.303 156.399 164.012 153.638C163.746 156.399 161.469 158.58 158.683 158.58C155.897 158.58 153.645 156.399 153.354 153.638C153.087 156.399 150.835 158.58 148.025 158.58C145.917 158.58 144.125 157.344 143.253 155.552V226.599H184.723V155.576C183.875 157.368 182.082 158.58 179.975 158.58Z" fill="#BEF5FA"/>
<path d="M143.277 152.185V155.552C144.149 157.344 145.942 158.58 148.049 158.58C150.859 158.58 153.087 156.399 153.378 153.638C153.645 156.399 155.921 158.58 158.707 158.58C161.493 158.58 163.746 156.399 164.036 153.638C164.327 156.399 166.555 158.58 169.365 158.58C172.151 158.58 174.404 156.399 174.67 153.638C174.937 156.399 177.213 158.58 179.999 158.58C182.107 158.58 183.899 157.344 184.771 155.552V152.16H143.277V152.185Z" fill="#B4EBF0"/>
<path opacity="0.5" d="M169.317 226.551H155.752L143.277 214.076V200.535L169.317 226.551Z" fill="white"/>
<path opacity="0.5" d="M184.747 164.878V183.142L153.79 152.185H172.078L184.747 164.878Z" fill="white"/>
<path d="M150.592 179.872H146.014V207.85H150.592V179.872Z" fill="#607C34"/>
<path d="M24.681 256.193C37.1176 256.193 47.1995 254.025 47.1995 251.351C47.1995 248.676 37.1176 246.508 24.681 246.508C12.2445 246.508 2.1626 248.676 2.1626 251.351C2.1626 254.025 12.2445 256.193 24.681 256.193Z" fill="#FBA615"/>
<path d="M49.3621 220.717C49.3621 207.086 38.3122 196.036 24.6812 196.036C11.1096 196.036 0.137388 206.893 0.00126882 220.464C-0.10147 230.714 6.04478 239.539 14.8631 243.366C16.3387 244.007 17.6009 245.055 18.5053 246.386L22.9212 252.882C23.7657 254.124 25.5964 254.124 26.4409 252.882L30.8567 246.386C31.7583 245.06 33.0139 244.01 34.4854 243.372C43.2383 239.58 49.3621 230.864 49.3621 220.717Z" fill="url(#paint0_linear_608_6591)"/>
<path d="M24.6811 236.232C33.2494 236.232 40.1954 229.286 40.1954 220.717C40.1954 212.149 33.2494 205.203 24.6811 205.203C16.1127 205.203 9.16675 212.149 9.16675 220.717C9.16675 229.286 16.1127 236.232 24.6811 236.232Z" fill="url(#paint1_linear_608_6591)"/>
<path d="M24.6811 233.285C31.6224 233.285 37.2494 227.658 37.2494 220.717C37.2494 213.776 31.6224 208.149 24.6811 208.149C17.7398 208.149 12.1128 213.776 12.1128 220.717C12.1128 227.658 17.7398 233.285 24.6811 233.285Z" fill="url(#paint2_linear_608_6591)"/>
<path opacity="0.12" d="M240.658 44.9551C236.302 40.166 233.952 33.8862 234.095 27.4139C234.095 10.5862 247.658 0.489624 264.385 0.489624C281.112 0.489624 294.675 10.5862 294.675 27.4139C294.675 44.2416 281.112 54.3382 264.385 54.3382C260.277 54.3633 256.194 53.7036 252.303 52.3862C247.793 57.1989 240.422 57.8384 235.643 57.6701C235.321 57.6555 235.011 57.5446 234.753 57.3517C234.495 57.1587 234.3 56.8927 234.195 56.588C234.09 56.2833 234.079 55.9541 234.163 55.643C234.247 55.3318 234.423 55.0531 234.667 54.843C237.821 52.4037 239.956 48.8798 240.658 44.9551Z" fill="#607C34"/>
<path d="M277.948 37.4096L272.735 32.193C274.415 29.6294 275.085 26.5339 274.614 23.5052C274.144 20.4764 272.568 17.7295 270.19 15.7957C267.812 13.862 264.801 12.8786 261.74 13.0359C258.679 13.1931 255.785 14.4798 253.618 16.6471C251.451 18.8144 250.164 21.7083 250.007 24.7693C249.85 27.8303 250.833 30.8408 252.767 33.2188C254.701 35.5968 257.447 37.1733 260.476 37.6434C263.505 38.1135 266.6 37.4438 269.164 35.7639L274.381 40.9771C274.859 41.4229 275.492 41.6657 276.146 41.6541C276.8 41.6426 277.424 41.3777 277.886 40.9152C278.349 40.4527 278.614 39.8288 278.625 39.1749C278.637 38.521 278.394 37.8881 277.948 37.4096ZM255.13 25.4518C255.129 24.0093 255.556 22.5989 256.357 21.3991C257.158 20.1993 258.297 19.264 259.63 18.7115C260.962 18.159 262.429 18.0141 263.844 18.2951C265.259 18.5761 266.558 19.2704 267.579 20.2903C268.599 21.3101 269.294 22.6096 269.576 24.0244C269.857 25.4392 269.713 26.9058 269.161 28.2387C268.609 29.5715 267.675 30.7107 266.475 31.5123C265.276 32.3138 263.866 32.7416 262.423 32.7416C260.49 32.7398 258.636 31.9713 257.269 30.6047C255.902 29.2381 255.132 27.385 255.13 25.4518Z" fill="#607C34"/>
<defs>
<linearGradient id="paint0_linear_608_6591" x1="9.785" y1="205.82" x2="59.0309" y2="255.066" gradientUnits="userSpaceOnUse">
<stop stop-color="#FF7044"/>
<stop offset="1" stop-color="#F92814"/>
</linearGradient>
<linearGradient id="paint1_linear_608_6591" x1="34.036" y1="230.072" x2="3.09327" y2="199.129" gradientUnits="userSpaceOnUse">
<stop stop-color="#FF7044"/>
<stop offset="1" stop-color="#F92814"/>
</linearGradient>
<linearGradient id="paint2_linear_608_6591" x1="21.6044" y1="216.025" x2="29.0312" y2="227.351" gradientUnits="userSpaceOnUse">
<stop stop-color="#F9F7FC"/>
<stop offset="1" stop-color="#F0DDFC"/>
</linearGradient>
</defs>
</svg>
