<svg width="29" height="30" viewBox="0 0 29 30" fill="none" xmlns="http://www.w3.org/2000/svg">
<path d="M14.6404 4.40723C12.1937 4.40933 9.82766 5.28269 7.96663 6.87093C6.10535 8.45911 4.87085 10.6584 4.48402 13.0741C4.09722 15.4901 4.5836 17.9647 5.85583 20.0547L2.87035 23.0401C2.65512 23.2537 2.53333 23.5441 2.53199 23.8475C2.53084 24.1508 2.65014 24.4422 2.86365 24.6576C3.07735 24.8731 3.36783 24.9947 3.67117 24.996H14.6406C17.3708 24.996 19.9893 23.9114 21.9198 21.9808C23.8504 20.0502 24.9349 17.4318 24.9349 14.7017C24.9349 11.9715 23.8504 9.35298 21.9198 7.42253C19.9892 5.49193 17.3707 4.40734 14.6406 4.40734L14.6404 4.40723ZM15.4982 18.1331C15.4982 18.4397 15.3347 18.7229 15.0693 18.8761C14.8039 19.0293 14.4768 19.0293 14.2114 18.8761C13.946 18.7229 13.7825 18.4397 13.7825 18.1331V14.7017C13.7825 14.3951 13.946 14.1119 14.2114 13.9587C14.4768 13.8055 14.8039 13.8055 15.0693 13.9587C15.3347 14.1119 15.4982 14.3951 15.4982 14.7017V18.1331ZM14.6404 12.128C14.4178 12.1192 14.207 12.0254 14.0517 11.8657C13.8962 11.7062 13.8081 11.4929 13.8053 11.2702C13.8053 11.0465 13.8926 10.8317 14.0485 10.6716C14.2045 10.5113 14.4169 10.4183 14.6403 10.4123C14.9469 10.4123 15.2301 10.5759 15.3833 10.8413C15.5365 11.1067 15.5365 11.4337 15.3833 11.6991C15.2301 11.9645 14.9469 12.1281 14.6403 12.1281L14.6404 12.128Z" fill="#565555"/>
</svg>
