<svg width="30" height="31" viewBox="0 0 30 31" fill="none" xmlns="http://www.w3.org/2000/svg">
<path d="M27.4699 13.7031C27.4703 13.026 27.206 12.3752 26.7337 11.8899C26.2614 11.4046 25.6182 11.1229 24.9411 11.1048C24.2659 8.99903 22.9392 7.16214 21.1527 5.85912C19.3661 4.55591 17.2118 3.85352 15.0002 3.85352C12.7886 3.85352 10.6344 4.55591 8.84776 5.85912C7.06118 7.16234 5.7345 8.99918 5.0593 11.1048C4.38217 11.1229 3.73898 11.4046 3.26671 11.8899C2.79444 12.3752 2.53017 13.026 2.53052 13.7031V17.183C2.53052 17.8753 2.80549 18.539 3.29485 19.0286C3.78441 19.5179 4.44814 19.7929 5.14044 19.7929C5.61911 19.7966 6.08945 19.6673 6.49898 19.4195C6.90853 19.1717 7.24139 18.815 7.46023 18.3893C8.26826 20.4106 9.854 22.023 11.8617 22.8644C13.8693 23.7059 16.1308 23.7059 18.1385 22.8644C20.1462 22.023 21.732 20.4106 22.54 18.3893C22.7549 18.8 23.0759 19.1455 23.4696 19.3903C23.8634 19.635 24.3153 19.77 24.7786 19.7812C23.8665 21.8515 22.3238 23.581 20.3709 24.7228C20.1775 24.8368 20.0357 25.0213 19.9751 25.2374C19.9147 25.4535 19.94 25.6848 20.046 25.8827C20.1208 26.0169 20.2301 26.1285 20.3627 26.2062C20.4953 26.2837 20.6464 26.3243 20.8 26.3235C20.9511 26.326 21.0999 26.2858 21.2292 26.2076C22.654 25.3753 23.8999 24.2694 24.8953 22.9535C25.8907 21.6375 26.6158 20.1375 27.0289 18.5402C27.293 18.1238 27.4338 17.6413 27.4349 17.1482L27.4699 13.7031ZM19.0953 18.3429C18.008 19.4267 16.5357 20.0352 15.0006 20.0352C13.4655 20.0352 11.9932 19.4267 10.9059 18.3429C10.6991 18.1209 10.6228 17.8071 10.7047 17.5149C10.7869 17.2226 11.0152 16.9942 11.3073 16.9123C11.5996 16.8303 11.9133 16.9065 12.1355 17.1135C12.8964 17.8714 13.9265 18.2969 15.0006 18.2969C16.0747 18.2969 17.1048 17.8714 17.8657 17.1135C18.0879 16.9065 18.4017 16.8303 18.6939 16.9123C18.986 16.9942 19.2144 17.2226 19.2965 17.5149C19.3784 17.8071 19.3021 18.1209 19.0953 18.3429H19.0953Z" fill="#565555"/>
<path d="M17.1461 22.1183C16.7943 22.1961 16.4379 22.2503 16.0788 22.2808C15.7681 22.2952 15.4887 22.4744 15.3458 22.7509C15.2029 23.0273 15.2184 23.3589 15.3864 23.6209C15.5543 23.8827 15.8493 24.0351 16.16 24.0207H16.2412C16.6624 23.9794 17.0807 23.9136 17.4941 23.8234C17.7211 23.7819 17.9211 23.6493 18.0481 23.4566C18.1751 23.264 18.218 23.0277 18.1668 22.8028C18.1219 22.5768 17.9893 22.3777 17.798 22.2495C17.6065 22.1212 17.3721 22.074 17.1461 22.1183L17.1461 22.1183Z" fill="#565555"/>
</svg>
