<svg width="24" height="23" viewBox="0 0 24 23" fill="none" xmlns="http://www.w3.org/2000/svg">
<g clip-path="url(#clip0_679_2654)">
<path d="M23.1023 15.2613C23.1023 12.5103 21.4732 10.0551 19.0333 8.86084C18.9575 14.1355 14.5431 18.412 9.09827 18.4854C10.3311 20.8491 12.8655 22.4273 15.7052 22.4273C17.0366 22.4273 18.3314 22.0838 19.4691 21.4311L23.07 22.396L22.074 18.9076C22.7477 17.8055 23.1023 16.5511 23.1023 15.2613Z" fill="#565555"/>
<path d="M17.6942 8.72325C17.6942 4.05559 13.7744 0.258301 8.95615 0.258301C4.13792 0.258301 0.21814 4.05559 0.21814 8.72325C0.21814 10.2445 0.636114 11.7256 1.42981 13.0259L0.250265 17.1569L4.51469 16.0144C5.85696 16.7833 7.38587 17.1882 8.95615 17.1882C13.7744 17.1882 17.6942 13.3909 17.6942 8.72325ZM7.61528 6.75315H6.27441C6.27441 5.32056 7.47735 4.15521 8.95615 4.15521C10.435 4.15521 11.6379 5.32056 11.6379 6.75315C11.6379 7.48027 11.3201 8.17914 10.7658 8.67031L9.62659 9.68039V10.6934H8.28572V9.10837L9.86054 7.71198C10.142 7.46251 10.297 7.12203 10.297 6.75315C10.297 6.03685 9.69555 5.45418 8.95615 5.45418C8.21675 5.45418 7.61528 6.03685 7.61528 6.75315ZM8.28572 11.9923H9.62659V13.2913H8.28572V11.9923Z" fill="#565555"/>
</g>
<defs>
<clipPath id="clip0_679_2654">
<rect width="22.8842" height="22.1691" fill="white" transform="translate(0.21814 0.258301)"/>
</clipPath>
</defs>
</svg>
