<svg width="23" height="25" viewBox="0 0 23 25" fill="none" xmlns="http://www.w3.org/2000/svg">
<path d="M23 12.7676C23 6.14016 17.8513 0.767578 11.5 0.767578C5.14873 0.767578 0 6.14016 0 12.7676C0 19.395 5.14873 24.7676 11.5 24.7676C17.8513 24.7676 23 19.395 23 12.7676Z" fill="url(#paint0_linear_441_6996)"/>
<path opacity="0.1" d="M20.1553 4.87308C18.4787 8.08466 16.1076 11.3973 13.1448 14.4889C10.182 17.5805 7.00743 20.0499 3.9342 21.7994C3.74153 21.6247 3.5544 21.4426 3.37282 21.2531C2.27526 20.146 1.3999 18.8221 0.797785 17.3583C0.195667 15.8946 -0.121161 14.3205 -0.134223 12.7277C-0.147284 11.1349 0.143681 9.5553 0.721706 8.08105C1.29973 6.6068 2.15325 5.26738 3.23249 4.1409C4.31174 3.01442 5.5951 2.12342 7.00777 1.51985C8.42043 0.916283 9.93411 0.612226 11.4605 0.625411C12.987 0.638596 14.4956 0.968759 15.8985 1.59665C17.3014 2.22454 18.5705 3.13759 19.6317 4.28256C19.8133 4.47203 19.9878 4.66887 20.1553 4.87308Z" fill="white"/>
<path d="M14.2237 6.45215H8.77634C7.89344 6.45215 7.04671 6.81812 6.42241 7.46957C5.79811 8.12101 5.44739 9.00455 5.44739 9.92583V15.61C5.44739 16.5313 5.79811 17.4149 6.42241 18.0663C7.04671 18.7178 7.89344 19.0837 8.77634 19.0837H14.2237C15.1066 19.0837 15.9533 18.7178 16.5776 18.0663C17.2019 17.4149 17.5527 16.5313 17.5527 15.61V9.92583C17.5527 9.00455 17.2019 8.12101 16.5776 7.46957C15.9533 6.81812 15.1066 6.45215 14.2237 6.45215ZM16.4934 15.1111C16.4934 15.8716 16.2039 16.6009 15.6886 17.1386C15.1733 17.6764 14.4743 17.9785 13.7455 17.9785H9.25449C8.52571 17.9785 7.82677 17.6764 7.31144 17.1386C6.79611 16.6009 6.5066 15.8716 6.5066 15.1111V10.4248C6.5066 9.66431 6.79611 8.93498 7.31144 8.39724C7.82677 7.85951 8.52571 7.55741 9.25449 7.55741H13.7455C14.4743 7.55741 15.1733 7.85951 15.6886 8.39724C16.2039 8.93498 16.4934 9.66431 16.4934 10.4248V15.1111Z" fill="white"/>
<path d="M13.7077 10.4881L13.679 10.4581L13.6548 10.4328C13.0826 9.83788 12.3077 9.504 11.5 9.50439C11.0922 9.50729 10.6888 9.59401 10.3131 9.75961C9.9373 9.92522 9.5965 10.1665 9.31012 10.4695C9.02374 10.7726 8.79739 11.1316 8.64401 11.526C8.49064 11.9204 8.41323 12.3425 8.41622 12.7681C8.4156 13.6318 8.7419 14.4609 9.32412 15.0749C9.6093 15.3761 9.94912 15.615 10.3238 15.7777C10.6984 15.9403 11.1003 16.0235 11.5061 16.0223C12.1147 16.009 12.7065 15.8111 13.2093 15.4529C13.712 15.0946 14.104 14.5915 14.3374 14.0048C14.5708 13.4181 14.6355 12.7732 14.5237 12.1487C14.4119 11.5243 14.1284 10.9473 13.7077 10.4881ZM11.5 14.9091C11.093 14.9151 10.6936 14.7946 10.3524 14.563C10.0112 14.3314 9.74372 13.9991 9.58401 13.6084C9.42429 13.2178 9.37953 12.7864 9.45543 12.3691C9.53132 11.9518 9.72444 11.5675 10.0102 11.2651C10.296 10.9626 10.6615 10.7557 11.0603 10.6706C11.4591 10.5856 11.8731 10.6262 12.2497 10.7873C12.6263 10.9484 12.9485 11.2228 13.1752 11.5755C13.402 11.9282 13.5231 12.3433 13.5231 12.7681C13.5251 13.0473 13.4744 13.3242 13.3738 13.583C13.2731 13.8417 13.1247 14.0772 12.9368 14.2761C12.7489 14.4749 12.5253 14.6332 12.2788 14.7418C12.0323 14.8504 11.7676 14.9073 11.5 14.9091Z" fill="white"/>
<path d="M15.4993 9.35425C15.5001 9.45557 15.4817 9.55606 15.4452 9.64997C15.4088 9.74387 15.3549 9.82935 15.2867 9.90151C15.2186 9.97367 15.1374 10.0311 15.048 10.0705C14.9585 10.1099 14.8625 10.1305 14.7654 10.1311C14.6691 10.131 14.5738 10.1111 14.485 10.0723C14.3961 10.0335 14.3155 9.97679 14.2479 9.9053C14.1454 9.79677 14.0756 9.65923 14.0473 9.50974C14.019 9.36024 14.0334 9.20537 14.0887 9.06431C14.1439 8.92326 14.2377 8.80224 14.3582 8.71624C14.4788 8.63025 14.6209 8.58308 14.7669 8.58057C14.9378 8.58053 15.1033 8.64312 15.2345 8.75741L15.2496 8.7732C15.274 8.79393 15.2963 8.81721 15.3162 8.84267L15.3328 8.86162C15.4411 9.00086 15.4999 9.17492 15.4993 9.35425Z" fill="white"/>
<defs>
<linearGradient id="paint0_linear_441_6996" x1="3.36829" y1="4.28231" x2="20.3235" y2="20.531" gradientUnits="userSpaceOnUse">
<stop stop-color="#FAE100"/>
<stop offset="0.15" stop-color="#FCB720"/>
<stop offset="0.3" stop-color="#FF7950"/>
<stop offset="0.5" stop-color="#FF1C74"/>
<stop offset="1" stop-color="#6C1CD1"/>
</linearGradient>
</defs>
</svg>
