<svg width="25" height="25" viewBox="0 0 25 25" fill="none" xmlns="http://www.w3.org/2000/svg">
<path d="M19.2866 0.70166H6.22233C4.83639 0.70166 3.50734 1.25166 2.52732 2.23082C1.5473 3.20998 0.996826 4.53788 0.996826 5.9226V22.3559C0.998357 22.7021 1.13723 23.0333 1.38327 23.2772C1.62931 23.5208 1.96219 23.657 2.30859 23.6557C2.65502 23.6541 2.98678 23.5154 3.23066 23.2696L3.98847 22.5124C4.23385 22.2655 4.56761 22.1263 4.91597 22.1263C5.26433 22.1263 5.59813 22.2655 5.84347 22.5124L7.90759 24.5747C8.15298 24.8219 8.48674 24.9608 8.8351 24.9608C9.18345 24.9608 9.51726 24.8219 9.7626 24.5747L11.8267 22.5124C12.0721 22.2655 12.4059 22.1263 12.7542 22.1263C13.1026 22.1263 13.4364 22.2655 13.6817 22.5124L15.7458 24.5747C15.9912 24.8219 16.325 24.9608 16.6733 24.9608C17.0217 24.9608 17.3555 24.8219 17.6009 24.5747L19.665 22.5124C19.9104 22.2655 20.2441 22.1263 20.5925 22.1263C20.9408 22.1263 21.2746 22.2655 21.52 22.5124L22.2778 23.2696C22.5216 23.5154 22.8534 23.6541 23.1999 23.6557C23.5463 23.657 23.8792 23.5208 24.1252 23.2772C24.3712 23.0333 24.5101 22.7021 24.5116 22.3559V5.9226C24.5116 4.53788 23.9611 3.20998 22.9811 2.23082C22.0011 1.25166 20.672 0.70166 19.2861 0.70166H19.2866ZM8.8353 4.94366H14.0608C14.4109 4.94366 14.7344 5.13027 14.9094 5.43313C15.0843 5.73599 15.0843 6.10921 14.9094 6.41207C14.7344 6.71493 14.4109 6.90154 14.0608 6.90154H8.8353C8.48516 6.90154 8.16171 6.71493 7.98674 6.41207C7.81178 6.10921 7.81178 5.73599 7.98674 5.43313C8.16171 5.13027 8.48517 4.94366 8.8353 4.94366ZM16.6737 17.3438H8.8353C8.48516 17.3438 8.16171 17.1571 7.98674 16.8543C7.81178 16.5514 7.81178 16.1782 7.98674 15.8753C8.16171 15.5725 8.48517 15.3859 8.8353 15.3859H16.6737C17.0238 15.3859 17.3473 15.5725 17.5222 15.8753C17.6972 16.1782 17.6972 16.5514 17.5222 16.8543C17.3473 17.1571 17.0238 17.3438 16.6737 17.3438ZM16.6737 12.1228H8.8353C8.48516 12.1228 8.16171 11.9362 7.98674 11.6333C7.81178 11.3305 7.81178 10.9573 7.98674 10.6544C8.16171 10.3515 8.48517 10.1649 8.8353 10.1649H16.6737C17.0238 10.1649 17.3473 10.3515 17.5222 10.6544C17.6972 10.9573 17.6972 11.3305 17.5222 11.6333C17.3473 11.9362 17.0238 12.1228 16.6737 12.1228Z" fill="#565555"/>
</svg>
