<svg width="143" height="142" viewBox="0 0 143 142" fill="none" xmlns="http://www.w3.org/2000/svg">
<rect x="1.35828" y="0.598516" width="140.521" height="140.521" rx="37.7065" fill="white" stroke="#CECDCA" stroke-width="1.19703" stroke-dasharray="2.99 2.99"/>
<path d="M84.5526 56.6579H77.9484L77.1794 54.3509C76.8088 53.2307 76.0942 52.256 75.1373 51.5656C74.1805 50.8753 73.0302 50.5044 71.8503 50.5059H62.3485C61.1689 50.505 60.019 50.8761 59.0625 51.5664C58.106 52.2567 57.3916 53.2311 57.0208 54.3509L56.2503 56.6579H49.6461C48.1569 56.6595 46.7292 57.2518 45.6762 58.3048C44.6232 59.3578 44.0309 60.7855 44.0293 62.2747V84.8833C44.0326 86.3714 44.6256 87.7976 45.6784 88.8492C46.7312 89.9009 48.158 90.4924 49.6461 90.494H84.5588C86.0469 90.4907 87.473 89.8977 88.5247 88.8449C89.5764 87.7921 90.1678 86.3653 90.1694 84.8772V62.2685C90.1662 60.7804 89.5732 59.3543 88.5203 58.3026C87.4675 57.251 86.0407 56.6595 84.5526 56.6579ZM87.0934 84.8772C87.0926 85.5508 86.8247 86.1966 86.3483 86.6729C85.872 87.1492 85.2262 87.4172 84.5526 87.418H49.6461C48.9725 87.4172 48.3267 87.1492 47.8504 86.6729C47.3741 86.1966 47.1061 85.5508 47.1053 84.8772V62.2685C47.1077 61.596 47.3764 60.9518 47.8526 60.4768C48.3287 60.0018 48.9735 59.7347 49.6461 59.7339H57.3592C57.6818 59.7336 57.9963 59.6319 58.2579 59.4431C58.5196 59.2543 58.7152 58.988 58.8172 58.6819L59.9384 55.3183C60.1068 54.8124 60.4302 54.3723 60.8628 54.0606C61.2955 53.7489 61.8153 53.5814 62.3485 53.5819H71.8503C72.3837 53.5813 72.9038 53.7489 73.3365 54.0609C73.7691 54.373 74.0924 54.8135 74.2603 55.3198L75.3815 58.6819C75.4835 58.988 75.6791 59.2543 75.9408 59.4431C76.2025 59.6319 76.5169 59.7336 76.8395 59.7339H84.5526C85.2262 59.7347 85.872 60.0027 86.3483 60.479C86.8247 60.9553 87.0926 61.6011 87.0934 62.2747V84.8772Z" fill="black"/>
<path d="M67.0995 61.2725C64.8181 61.2725 62.5879 61.949 60.691 63.2165C58.794 64.484 57.3156 66.2855 56.4425 68.3932C55.5695 70.501 55.341 72.8203 55.7861 75.0579C56.2312 77.2954 57.3298 79.3508 58.943 80.964C60.5562 82.5772 62.6115 83.6758 64.8491 84.1209C67.0867 84.566 69.406 84.3375 71.5138 83.4645C73.6215 82.5914 75.423 81.1129 76.6905 79.216C77.958 77.3191 78.6345 75.0889 78.6345 72.8075C78.6313 69.7492 77.4149 66.8171 75.2524 64.6546C73.0899 62.4921 70.1578 61.2757 67.0995 61.2725ZM67.0995 81.2665C65.4265 81.2665 63.791 80.7704 62.3999 79.8409C61.0088 78.9114 59.9246 77.5903 59.2844 76.0446C58.6441 74.4989 58.4766 72.7981 58.803 71.1572C59.1294 69.5163 59.935 68.0091 61.1181 66.8261C62.3011 65.643 63.8083 64.8374 65.4492 64.511C67.0901 64.1846 68.7909 64.3521 70.3366 64.9924C71.8823 65.6326 73.2034 66.7168 74.1329 68.1079C75.0624 69.499 75.5585 71.1345 75.5585 72.8075C75.5561 75.0502 74.6641 77.2004 73.0782 78.7862C71.4924 80.3721 69.3422 81.2641 67.0995 81.2665Z" fill="black"/>
<path d="M82.4794 65.8861C83.3288 65.8861 84.0174 65.1975 84.0174 64.3481C84.0174 63.4986 83.3288 62.8101 82.4794 62.8101C81.63 62.8101 80.9414 63.4986 80.9414 64.3481C80.9414 65.1975 81.63 65.8861 82.4794 65.8861Z" fill="black"/>
<g clip-path="url(#clip0_374_6620)">
<path d="M88.8069 49.3926C83.9961 49.3926 80.0825 53.2553 80.0825 58.0035C80.0825 62.7518 83.9961 66.6145 88.8069 66.6145C93.6177 66.6145 97.5312 62.7518 97.5312 58.0035C97.5312 53.2553 93.6177 49.3926 88.8069 49.3926Z" fill="#D0662A"/>
<path d="M92.624 58.7204H89.5341V61.7702C89.5341 62.1663 89.2084 62.4877 88.8071 62.4877C88.4057 62.4877 88.0801 62.1663 88.0801 61.7702V58.7204H84.9902C84.5888 58.7204 84.2632 58.3991 84.2632 58.0029C84.2632 57.6068 84.5888 57.2854 84.9902 57.2854H88.0801V54.2356C88.0801 53.8395 88.4057 53.5181 88.8071 53.5181C89.2084 53.5181 89.5341 53.8395 89.5341 54.2356V57.2854H92.624C93.0254 57.2854 93.351 57.6068 93.351 58.0029C93.351 58.3991 93.0254 58.7204 92.624 58.7204Z" fill="#FAFAFA"/>
</g>
<defs>
<clipPath id="clip0_374_6620">
<rect width="17.4487" height="17.2219" fill="white" transform="translate(80.0825 49.3926)"/>
</clipPath>
</defs>
</svg>
