<svg width="27" height="25" viewBox="0 0 27 25" fill="none" xmlns="http://www.w3.org/2000/svg">
<path d="M24.1633 9.07218C24.2366 9.22624 24.2746 9.39475 24.2744 9.56553C24.2791 9.7931 24.205 10.0153 24.0645 10.1945C23.5404 10.8936 22.7179 11.3047 21.8441 11.3047C20.9706 11.3047 20.1481 10.8936 19.6238 10.1945C19.2743 9.72699 18.7273 9.44885 18.1435 9.44224C17.5568 9.41106 16.9943 9.68076 16.6511 10.1576L15.4176 11.749H15.4174C14.8716 12.3782 14.0794 12.7396 13.2464 12.7396C12.4133 12.7396 11.6214 12.3782 11.0754 11.749L9.84187 10.1454V10.1452C9.46396 9.67148 8.88034 9.40963 8.27528 9.44225C7.69147 9.44886 7.14441 9.72703 6.79502 10.1945C6.27069 10.8936 5.44814 11.3047 4.57462 11.3047C3.7009 11.3047 2.87835 10.8936 2.35423 10.1945C2.23032 10.0295 2.15743 9.83191 2.14421 9.6258C2.1312 9.41991 2.17828 9.21464 2.28009 9.03497L4.13042 4.71746V4.71767C4.43626 3.98806 4.95048 3.36482 5.60862 2.92597C6.26697 2.48714 7.03993 2.25214 7.83107 2.2505H18.6121C19.4041 2.24884 20.1785 2.48241 20.8373 2.92164C21.4963 3.36088 22.0099 3.986 22.3128 4.71767L24.1633 9.07218Z" fill="#565555"/>
<path d="M21.8437 13.155C20.3856 13.1649 19.0102 12.4773 18.1431 11.3047L16.8233 12.8961C15.9454 13.9949 14.6155 14.6349 13.2089 14.6349C11.8024 14.6349 10.4725 13.995 9.59462 12.8961L8.2748 11.3047C7.39114 12.4577 6.02655 13.1399 4.57415 13.155C4.47172 13.1672 4.36805 13.1672 4.26562 13.155V18.6447C4.26893 19.707 4.69227 20.7247 5.44354 21.4759C6.19462 22.227 7.21251 22.6504 8.27481 22.6536H18.1434C19.2057 22.6503 20.2234 22.227 20.9745 21.4759C21.7257 20.7247 22.1491 19.707 22.1524 18.6447V13.1307C22.0508 13.1511 21.9472 13.1591 21.8437 13.155ZM21.8437 13.155C20.3856 13.1649 19.0102 12.4773 18.1431 11.3047L16.8233 12.8961C15.9454 13.9949 14.6155 14.6349 13.2089 14.6349C11.8024 14.6349 10.4725 13.995 9.59462 12.8961L8.2748 11.3047C7.39114 12.4577 6.02655 13.1399 4.57415 13.155C4.47172 13.1672 4.36805 13.1672 4.26562 13.155V18.6447C4.26893 19.707 4.69227 20.7247 5.44354 21.4759C6.19462 22.227 7.21251 22.6504 8.27481 22.6536H18.1434C19.2057 22.6503 20.2234 22.227 20.9745 21.4759C21.7257 20.7247 22.1491 19.707 22.1524 18.6447V13.1307C22.0508 13.1511 21.9472 13.1591 21.8437 13.155ZM21.8437 13.155C20.3856 13.1649 19.0102 12.4773 18.1431 11.3047L16.8233 12.8961C15.9454 13.9949 14.6155 14.6349 13.2089 14.6349C11.8024 14.6349 10.4725 13.995 9.59462 12.8961L8.2748 11.3047C7.39114 12.4577 6.02655 13.1399 4.57415 13.155C4.47172 13.1672 4.36805 13.1672 4.26562 13.155V18.6447C4.26893 19.707 4.69227 20.7247 5.44354 21.4759C6.19462 22.227 7.21251 22.6504 8.27481 22.6536H18.1434C19.2057 22.6503 20.2234 22.227 20.9745 21.4759C21.7257 20.7247 22.1491 19.707 22.1524 18.6447V13.1307C22.0508 13.1511 21.9472 13.1591 21.8437 13.155ZM21.8437 13.155C20.3856 13.1649 19.0102 12.4773 18.1431 11.3047L16.8233 12.8961C15.9454 13.9949 14.6155 14.6349 13.2089 14.6349C11.8024 14.6349 10.4725 13.995 9.59462 12.8961L8.2748 11.3047C7.39114 12.4577 6.02655 13.1399 4.57415 13.155C4.47172 13.1672 4.36805 13.1672 4.26562 13.155V18.6447C4.26893 19.707 4.69227 20.7247 5.44354 21.4759C6.19462 22.227 7.21251 22.6504 8.27481 22.6536H18.1434C19.2057 22.6503 20.2234 22.227 20.9745 21.4759C21.7257 20.7247 22.1491 19.707 22.1524 18.6447V13.1307C22.0508 13.1511 21.9472 13.1591 21.8437 13.155ZM21.8437 13.155C20.3856 13.1649 19.0102 12.4773 18.1431 11.3047L16.8233 12.8961C15.9454 13.9949 14.6155 14.6349 13.2089 14.6349C11.8024 14.6349 10.4725 13.995 9.59462 12.8961L8.2748 11.3047C7.39114 12.4577 6.02655 13.1399 4.57415 13.155C4.47172 13.1672 4.36805 13.1672 4.26562 13.155V18.6447C4.26893 19.707 4.69227 20.7247 5.44354 21.4759C6.19462 22.227 7.21251 22.6504 8.27481 22.6536H18.1434C19.2057 22.6503 20.2234 22.227 20.9745 21.4759C21.7257 20.7247 22.1491 19.707 22.1524 18.6447V13.1307C22.0508 13.1511 21.9472 13.1591 21.8437 13.155ZM21.8437 13.155C20.3856 13.1649 19.0102 12.4773 18.1431 11.3047L16.8233 12.8961C15.9454 13.9949 14.6155 14.6349 13.2089 14.6349C11.8024 14.6349 10.4725 13.995 9.59462 12.8961L8.2748 11.3047C7.39114 12.4577 6.02655 13.1399 4.57415 13.155C4.47172 13.1672 4.36805 13.1672 4.26562 13.155V18.6447C4.26893 19.707 4.69227 20.7247 5.44354 21.4759C6.19462 22.227 7.21251 22.6504 8.27481 22.6536H18.1434C19.2057 22.6503 20.2234 22.227 20.9745 21.4759C21.7257 20.7247 22.1491 19.707 22.1524 18.6447V13.1307C22.0508 13.1511 21.9472 13.1591 21.8437 13.155ZM21.8437 13.155C20.3856 13.1649 19.0102 12.4773 18.1431 11.3047L16.8233 12.8961C15.9454 13.9949 14.6155 14.6349 13.2089 14.6349C11.8024 14.6349 10.4725 13.995 9.59462 12.8961L8.2748 11.3047C7.39114 12.4577 6.02655 13.1399 4.57415 13.155C4.47172 13.1672 4.36805 13.1672 4.26562 13.155V18.6447C4.26893 19.707 4.69227 20.7247 5.44354 21.4759C6.19462 22.227 7.21251 22.6504 8.27481 22.6536H18.1434C19.2057 22.6503 20.2234 22.227 20.9745 21.4759C21.7257 20.7247 22.1491 19.707 22.1524 18.6447V13.1307C22.0508 13.1511 21.9472 13.1591 21.8437 13.155ZM21.8437 13.155C20.3856 13.1649 19.0102 12.4773 18.1431 11.3047L16.8233 12.8961C15.9454 13.9949 14.6155 14.6349 13.2089 14.6349C11.8024 14.6349 10.4725 13.995 9.59462 12.8961L8.2748 11.3047C7.39114 12.4577 6.02655 13.1399 4.57415 13.155C4.47172 13.1672 4.36805 13.1672 4.26562 13.155V18.6447C4.26893 19.707 4.69227 20.7247 5.44354 21.4759C6.19462 22.227 7.21251 22.6504 8.27481 22.6536H18.1434C19.2057 22.6503 20.2234 22.227 20.9745 21.4759C21.7257 20.7247 22.1491 19.707 22.1524 18.6447V13.1307C22.0508 13.1511 21.9472 13.1591 21.8437 13.155ZM21.8437 13.155C20.3856 13.1649 19.0102 12.4773 18.1431 11.3047L16.8233 12.8961C15.9454 13.9949 14.6155 14.6349 13.2089 14.6349C11.8024 14.6349 10.4725 13.995 9.59462 12.8961L8.2748 11.3047C7.39114 12.4577 6.02655 13.1399 4.57415 13.155C4.47172 13.1672 4.36805 13.1672 4.26562 13.155V18.6447C4.26893 19.707 4.69227 20.7247 5.44354 21.4759C6.19462 22.227 7.21251 22.6504 8.27481 22.6536H18.1434C19.2057 22.6503 20.2234 22.227 20.9745 21.4759C21.7257 20.7247 22.1491 19.707 22.1524 18.6447V13.1307C22.0508 13.1511 21.9472 13.1591 21.8437 13.155Z" fill="#565555"/>
</svg>
