<svg width="24" height="26" viewBox="0 0 24 26" fill="none" xmlns="http://www.w3.org/2000/svg">
<path d="M19.067 16.4171C17.6179 16.4171 16.3409 17.1299 15.5388 18.214L8.60405 14.6631C8.71919 14.2706 8.8001 13.8639 8.8001 13.4348C8.8001 12.8527 8.68076 12.2993 8.47459 11.7903L15.7321 7.42304C16.5397 8.37092 17.7269 8.98577 19.067 8.98577C21.4934 8.98577 23.4671 7.01202 23.4671 4.58566C23.4671 2.15929 21.4934 0.185547 19.067 0.185547C16.6407 0.185547 14.6669 2.15929 14.6669 4.58566C14.6669 5.14481 14.782 5.67522 14.9731 6.16764L7.69396 10.5477C6.88698 9.62799 5.71694 9.03466 4.39999 9.03466C1.97362 9.03466 -0.00012207 11.0084 -0.00012207 13.4348C-0.00012207 15.8611 1.97362 17.8349 4.39999 17.8349C5.87305 17.8349 7.17162 17.1011 7.97068 15.9865L14.8826 19.5259C14.7553 19.9369 14.6669 20.3649 14.6669 20.8172C14.6669 23.2435 16.6407 25.2173 19.067 25.2173C21.4934 25.2173 23.4671 23.2435 23.4671 20.8172C23.4671 18.3908 21.4934 16.4171 19.067 16.4171Z" fill="#565555"/>
</svg>
