<svg width="27" height="25" viewBox="0 0 27 25" fill="none" xmlns="http://www.w3.org/2000/svg">
<path d="M14.7808 15.4301C14.4797 15.4301 14.2334 15.348 14.0143 15.2112C13.7953 15.0472 13.6859 14.8831 13.6859 14.6643C13.6859 14.6095 13.6586 14.555 13.6311 14.5275C13.6038 14.5002 13.549 14.4728 13.4942 14.4728H10.9485C10.8116 14.4728 10.7568 14.5275 10.7568 14.6643C10.7568 15.0745 10.8116 15.4573 10.9485 15.8402C11.0854 16.2231 11.277 16.5513 11.5235 16.8521C11.7698 17.153 12.0709 17.4266 12.3995 17.6727C12.728 17.9188 13.1112 18.0828 13.5492 18.1924L13.5488 19.5598C13.5488 19.6692 13.6036 19.7514 13.7405 19.7514H15.8484C15.9853 19.7514 16.0401 19.6966 16.0401 19.5598V18.1651C16.8338 17.919 17.4909 17.4813 17.9837 16.8523C18.5586 16.1686 18.8322 15.4028 18.8322 14.555C18.8322 13.9806 18.7228 13.4611 18.5038 12.996C18.2848 12.531 17.9564 12.1207 17.5184 11.7925C17.1624 11.519 16.7792 11.3003 16.3414 11.1361C15.9309 10.972 15.5201 10.8352 15.1369 10.7259C14.781 10.6439 14.5074 10.5619 14.3156 10.4523C14.1239 10.3703 13.9872 10.2883 13.8776 10.2062C13.7682 10.1242 13.7134 10.0695 13.6859 10.0147C13.6586 9.95995 13.6311 9.90539 13.6311 9.87791C13.6584 9.82316 13.768 9.74113 13.9595 9.63181C14.1512 9.5225 14.3976 9.46774 14.7533 9.46774C14.9723 9.46774 15.1913 9.5225 15.4103 9.63181C15.6293 9.74113 15.7662 9.87791 15.8483 10.0967C15.8756 10.1788 15.9304 10.2335 16.04 10.2335C16.0673 10.2335 16.0948 10.2335 16.0948 10.2062L18.5311 9.4132C18.6405 9.38591 18.668 9.30388 18.6405 9.19437C18.4488 8.61993 18.1203 8.10048 17.655 7.66284C17.1897 7.2252 16.6423 6.92435 15.9852 6.733V5.31077C15.9852 5.25601 15.9579 5.20145 15.9304 5.17398C15.9304 5.09194 15.8756 5.06466 15.8208 5.06466H13.713C13.6582 5.06466 13.6036 5.09194 13.5761 5.11942C13.5488 5.1467 13.5213 5.20145 13.5213 5.2562V6.65099C13.0012 6.78778 12.5085 7.00659 12.0705 7.30743C11.6325 7.63557 11.3041 7.99117 11.0577 8.42882C10.8114 8.86646 10.7018 9.3041 10.7018 9.7963C10.7018 10.8902 11.1398 11.7928 12.0432 12.4765C12.317 12.6953 12.6454 12.8867 13.0286 13.051C13.4118 13.215 13.8499 13.3518 14.37 13.5159C15.0543 13.68 15.4923 13.8715 15.7113 14.0903C15.7661 14.1451 15.8207 14.2271 15.8207 14.2819C15.8207 14.3366 15.8481 14.4187 15.8481 14.528C15.8481 14.7468 15.7386 14.9381 15.5196 15.1297C15.3554 15.3208 15.0818 15.4301 14.7807 15.4301L14.7808 15.4301ZM14.7808 0.442432C8.40273 0.442432 3.147 5.31068 2.65428 11.6832H0.546265L3.83105 17.3719L7.11583 11.6832H5.09013C5.58276 6.76021 9.7436 2.9039 14.7804 2.9039C20.1456 2.9039 24.498 7.22516 24.498 12.5857C24.4982 17.9462 20.1459 22.2675 14.7809 22.2675C12.3719 22.2675 10.0453 21.3649 8.26596 19.7513L6.62345 21.5564C8.86818 23.5804 11.7697 24.7016 14.7808 24.7016C21.4873 24.7016 26.962 19.259 26.962 12.5583C26.9622 5.85762 21.4873 0.442383 14.7808 0.442383V0.442432Z" fill="#565555"/>
</svg>
