<svg width="36" height="36" viewBox="0 0 36 36" fill="none" xmlns="http://www.w3.org/2000/svg">
<path d="M18.4509 35.9077C28.143 35.9077 36 28.0507 36 18.3586C36 8.66656 28.143 0.80957 18.4509 0.80957C8.75884 0.80957 0.901855 8.66656 0.901855 18.3586C0.901855 28.0507 8.75884 35.9077 18.4509 35.9077Z" fill="#D0662A"/>
<path fill-rule="evenodd" clip-rule="evenodd" d="M28.8942 25.6787C29.0788 25.6784 29.2558 25.605 29.3863 25.4744C29.5168 25.3439 29.5903 25.1669 29.5905 24.9823V11.8303L18.9457 20.2833C18.805 20.3952 18.6306 20.4561 18.4509 20.4561C18.2712 20.4561 18.0967 20.3952 17.9561 20.2833L7.3114 11.8303V24.9823C7.3116 25.1669 7.38502 25.3439 7.51555 25.4745C7.64608 25.605 7.82307 25.6785 8.00767 25.6787H28.8942ZM28.0291 11.0381L18.4509 18.6442L8.87265 11.0381H28.0291Z" fill="white"/>
</svg>
