<svg width="23" height="22" viewBox="0 0 23 22" fill="none" xmlns="http://www.w3.org/2000/svg">
<path d="M2.00256 6.70801H20.8046V21.1825H2.00256V6.70801Z" fill="url(#paint0_linear_634_568)"/>
<path d="M2.00256 9.4338L13.7512 21.1825H20.8046V6.70801H2.00256V9.4338Z" fill="url(#paint1_linear_634_568)"/>
<path d="M8.33797 10.009C8.22942 9.82056 8.02631 9.69336 7.79331 9.69336H3.30551C2.95803 9.69336 2.67627 9.97512 2.67627 10.3226V17.4086C2.67627 17.6418 2.80347 17.8447 2.99174 17.9534L6.22063 21.1821H19.5113L8.33797 10.009Z" fill="url(#paint2_linear_634_568)"/>
<path d="M20.8045 10.7691V21.1821H17.9269L14.6978 17.9532C14.5098 17.8447 14.3826 17.6418 14.3826 17.4088V10.3224C14.3826 9.97533 14.6643 9.69336 15.0116 9.69336H19.4998C19.7328 9.69336 19.9357 9.82078 20.0443 10.0088L20.8045 10.7691Z" fill="url(#paint3_linear_634_568)"/>
<path d="M7.79331 18.0376H3.30551C2.95803 18.0376 2.67627 17.7561 2.67627 17.4086V10.3226C2.67627 9.97512 2.95803 9.69336 3.30551 9.69336H7.79331C8.1408 9.69336 8.42234 9.97512 8.42234 10.3226V17.4086C8.42234 17.7561 8.1408 18.0376 7.79331 18.0376Z" fill="url(#paint4_linear_634_568)"/>
<path d="M7.33244 17.4765H3.76624C3.47664 17.4765 3.24194 17.2418 3.24194 16.9522V10.7792C3.24194 10.4896 3.47664 10.2549 3.76624 10.2549H7.33244C7.62205 10.2549 7.85674 10.4896 7.85674 10.7792V16.9522C7.85674 17.2418 7.62205 17.4765 7.33244 17.4765Z" fill="url(#paint5_linear_634_568)"/>
<path d="M19.4996 18.0376H15.0118C14.6644 18.0376 14.3828 17.7561 14.3828 17.4086V10.3226C14.3828 9.97512 14.6644 9.69336 15.0118 9.69336H19.4996C19.8471 9.69336 20.1289 9.97512 20.1289 10.3226V17.4086C20.1289 17.7561 19.8471 18.0376 19.4996 18.0376Z" fill="url(#paint6_linear_634_568)"/>
<path d="M19.039 17.4765H15.4726C15.1832 17.4765 14.9485 17.2418 14.9485 16.9522V10.7792C14.9485 10.4896 15.1832 10.2549 15.4726 10.2549H19.039C19.3286 10.2549 19.5633 10.4896 19.5633 10.7792V16.9522C19.5633 17.2418 19.3286 17.4765 19.039 17.4765Z" fill="url(#paint7_linear_634_568)"/>
<path d="M9.44434 21.182V10.9106C9.44434 10.4575 9.81175 10.0903 10.2648 10.0903H12.5424C12.9955 10.0903 13.3629 10.4575 13.3629 10.9106V21.182H9.44434Z" fill="url(#paint8_linear_634_568)"/>
<path d="M13.8479 21.1822H12.8776V11.1904C12.8776 10.8523 12.6011 10.5756 12.263 10.5756H10.5444C10.2048 10.5756 9.92959 10.851 9.92959 11.1904V21.1822H8.95923V10.5489C8.95923 10.0278 9.38176 9.60547 9.90267 9.60547H12.9045C13.4256 9.60547 13.8479 10.0278 13.8479 10.5489V21.1822Z" fill="url(#paint9_linear_634_568)"/>
<path d="M11.1507 13.9454C11.1507 14.1896 10.9527 14.3879 10.7082 14.3879C10.464 14.3879 10.266 14.1896 10.266 13.9454C10.266 13.7012 10.464 13.5029 10.7082 13.5029C10.9527 13.5029 11.1507 13.7012 11.1507 13.9454Z" fill="url(#paint10_linear_634_568)"/>
<path d="M21.4716 19.2965V20.4787C21.4716 20.8671 21.1568 21.1819 20.7684 21.1819H2.03823C1.65004 21.1819 1.33521 20.8671 1.33521 20.4787V19.2965C1.33521 18.9081 1.65004 18.5933 2.03823 18.5933H20.7684C21.1568 18.5933 21.4716 18.9081 21.4716 19.2965Z" fill="url(#paint11_linear_634_568)"/>
<path d="M2.54879 9.43964C1.32613 9.43964 0.335205 8.44871 0.335205 7.22626V5.94043H4.76216V7.22626C4.76216 8.44871 3.77123 9.43964 2.54879 9.43964Z" fill="url(#paint12_linear_634_568)"/>
<path d="M6.9757 9.43964C5.75326 9.43964 4.76233 8.44871 4.76233 7.22626V5.94043H9.18929V7.22626C9.18929 8.44871 8.19814 9.43964 6.9757 9.43964Z" fill="url(#paint13_linear_634_568)"/>
<path d="M11.4026 9.43964C10.1801 9.43964 9.18921 8.44871 9.18921 7.22626V5.94043H13.616V7.22626C13.616 8.44871 12.625 9.43964 11.4026 9.43964Z" fill="url(#paint14_linear_634_568)"/>
<path d="M15.8296 9.43964C14.6071 9.43964 13.616 8.44871 13.616 7.22626V5.94043H18.0429V7.22626C18.0429 8.44871 17.052 9.43964 15.8296 9.43964Z" fill="url(#paint15_linear_634_568)"/>
<path d="M20.2563 9.43964C19.0339 9.43964 18.043 8.44871 18.043 7.22626V5.94043H22.4699V7.22626C22.4697 8.44871 21.4788 9.43964 20.2563 9.43964Z" fill="url(#paint16_linear_634_568)"/>
<path d="M18.6831 1.04037C18.4738 0.769422 18.1507 0.61084 17.8083 0.61084H4.99664C4.65425 0.61084 4.33115 0.769422 4.12168 1.04037L0.335205 5.94053H22.4696L18.6831 1.04037Z" fill="url(#paint17_linear_634_568)"/>
<path d="M18.6832 1.04037C18.4739 0.769422 18.1508 0.61084 17.8084 0.61084H7.74902C7.92287 0.847018 8.11898 1.06602 8.33417 1.26425L13.0104 5.94053H22.4696L18.6832 1.04037Z" fill="url(#paint18_linear_634_568)"/>
<path d="M15.7722 1.04037C15.6465 0.769422 15.4527 0.61084 15.2471 0.61084H7.55771C7.35227 0.61084 7.1585 0.769422 7.03278 1.04037L4.76025 5.94053H18.0447L15.7722 1.04037Z" fill="url(#paint19_linear_634_568)"/>
<path d="M12.8586 1.04037C12.8169 0.769422 12.7522 0.61084 12.6837 0.61084H10.1214C10.0529 0.61084 9.98824 0.769422 9.94626 1.04037L9.18896 5.94053H13.6159L12.8586 1.04037Z" fill="url(#paint20_linear_634_568)"/>
<defs>
<linearGradient id="paint0_linear_634_568" x1="11.4035" y1="14.0456" x2="11.4035" y2="24.292" gradientUnits="userSpaceOnUse">
<stop stop-color="#FFD459"/>
<stop offset="0.2296" stop-color="#FFD355"/>
<stop offset="0.4362" stop-color="#FFCF4A"/>
<stop offset="0.634" stop-color="#FFC838"/>
<stop offset="0.825" stop-color="#FFBF1F"/>
<stop offset="1" stop-color="#FFB400"/>
</linearGradient>
<linearGradient id="paint1_linear_634_568" x1="12.4258" y1="14.3365" x2="10.5293" y2="2.71302" gradientUnits="userSpaceOnUse">
<stop stop-color="#E58200" stop-opacity="0"/>
<stop offset="0.0396" stop-color="#E27F04" stop-opacity="0.039216"/>
<stop offset="0.4671" stop-color="#C15D2F" stop-opacity="0.466667"/>
<stop offset="0.8016" stop-color="#AD4949" stop-opacity="0.8"/>
<stop offset="1" stop-color="#A64153"/>
</linearGradient>
<linearGradient id="paint2_linear_634_568" x1="11.8302" y1="18.3564" x2="-1.9504" y2="9.8608" gradientUnits="userSpaceOnUse">
<stop stop-color="#E58200" stop-opacity="0"/>
<stop offset="0.0396" stop-color="#E27F04" stop-opacity="0.039216"/>
<stop offset="0.4671" stop-color="#C15D2F" stop-opacity="0.466667"/>
<stop offset="0.8016" stop-color="#AD4949" stop-opacity="0.8"/>
<stop offset="1" stop-color="#A64153"/>
</linearGradient>
<linearGradient id="paint3_linear_634_568" x1="20.5912" y1="16.5407" x2="12.8808" y2="11.7873" gradientUnits="userSpaceOnUse">
<stop stop-color="#E58200" stop-opacity="0"/>
<stop offset="0.0396" stop-color="#E27F04" stop-opacity="0.039216"/>
<stop offset="0.4671" stop-color="#C15D2F" stop-opacity="0.466667"/>
<stop offset="0.8016" stop-color="#AD4949" stop-opacity="0.8"/>
<stop offset="1" stop-color="#A64153"/>
</linearGradient>
<linearGradient id="paint4_linear_634_568" x1="3.24295" y1="11.1152" x2="10.9009" y2="20.2473" gradientUnits="userSpaceOnUse">
<stop stop-color="#45425A"/>
<stop offset="1" stop-color="#2D3251"/>
</linearGradient>
<linearGradient id="paint5_linear_634_568" x1="2.29533" y1="10.6116" x2="8.21875" y2="16.5351" gradientUnits="userSpaceOnUse">
<stop stop-color="#8BE1E2"/>
<stop offset="0.1873" stop-color="#87E1E1"/>
<stop offset="0.3558" stop-color="#7CE2DD"/>
<stop offset="0.5172" stop-color="#6AE2D7"/>
<stop offset="0.6741" stop-color="#50E4CE"/>
<stop offset="0.8278" stop-color="#2FE5C2"/>
<stop offset="0.9772" stop-color="#07E7B4"/>
<stop offset="1" stop-color="#00E7B2"/>
</linearGradient>
<linearGradient id="paint6_linear_634_568" x1="14.9494" y1="11.1152" x2="22.6073" y2="20.2473" gradientUnits="userSpaceOnUse">
<stop stop-color="#45425A"/>
<stop offset="1" stop-color="#2D3251"/>
</linearGradient>
<linearGradient id="paint7_linear_634_568" x1="14.0018" y1="10.6116" x2="19.9252" y2="16.5351" gradientUnits="userSpaceOnUse">
<stop stop-color="#8BE1E2"/>
<stop offset="0.1873" stop-color="#87E1E1"/>
<stop offset="0.3558" stop-color="#7CE2DD"/>
<stop offset="0.5172" stop-color="#6AE2D7"/>
<stop offset="0.6741" stop-color="#50E4CE"/>
<stop offset="0.8278" stop-color="#2FE5C2"/>
<stop offset="0.9772" stop-color="#07E7B4"/>
<stop offset="1" stop-color="#00E7B2"/>
</linearGradient>
<linearGradient id="paint8_linear_634_568" x1="9.44443" y1="15.6361" x2="13.3628" y2="15.6361" gradientUnits="userSpaceOnUse">
<stop stop-color="#FF6E3A"/>
<stop offset="0.1596" stop-color="#FF6440"/>
<stop offset="0.4266" stop-color="#FF4B52"/>
<stop offset="0.7662" stop-color="#FF216E"/>
<stop offset="1" stop-color="#FF0084"/>
</linearGradient>
<linearGradient id="paint9_linear_634_568" x1="8.95925" y1="15.3938" x2="13.848" y2="15.3938" gradientUnits="userSpaceOnUse">
<stop stop-color="#45425A"/>
<stop offset="1" stop-color="#2D3251"/>
</linearGradient>
<linearGradient id="paint10_linear_634_568" x1="10.2659" y1="13.9454" x2="11.1507" y2="13.9454" gradientUnits="userSpaceOnUse">
<stop stop-color="#FFD459"/>
<stop offset="0.2296" stop-color="#FFD355"/>
<stop offset="0.4362" stop-color="#FFCF4A"/>
<stop offset="0.634" stop-color="#FFC838"/>
<stop offset="0.825" stop-color="#FFBF1F"/>
<stop offset="1" stop-color="#FFB400"/>
</linearGradient>
<linearGradient id="paint11_linear_634_568" x1="11.4034" y1="18.9768" x2="11.4034" y2="22.2713" gradientUnits="userSpaceOnUse">
<stop stop-color="#45425A"/>
<stop offset="1" stop-color="#2D3251"/>
</linearGradient>
<linearGradient id="paint12_linear_634_568" x1="1.66717" y1="6.1602" x2="4.71007" y2="9.20309" gradientUnits="userSpaceOnUse">
<stop stop-color="#FF6E3A"/>
<stop offset="0.1596" stop-color="#FF6440"/>
<stop offset="0.4266" stop-color="#FF4B52"/>
<stop offset="0.7662" stop-color="#FF216E"/>
<stop offset="1" stop-color="#FF0084"/>
</linearGradient>
<linearGradient id="paint13_linear_634_568" x1="6.09423" y1="6.1602" x2="9.13712" y2="9.20309" gradientUnits="userSpaceOnUse">
<stop stop-color="#FFFCF8"/>
<stop offset="0.1875" stop-color="#FAF8F6"/>
<stop offset="0.4041" stop-color="#ECEEF2"/>
<stop offset="0.6353" stop-color="#D5DCEA"/>
<stop offset="0.875" stop-color="#B5C4DF"/>
<stop offset="1" stop-color="#A1B5D8"/>
</linearGradient>
<linearGradient id="paint14_linear_634_568" x1="10.521" y1="6.1602" x2="13.5639" y2="9.20309" gradientUnits="userSpaceOnUse">
<stop stop-color="#FF6E3A"/>
<stop offset="0.1596" stop-color="#FF6440"/>
<stop offset="0.4266" stop-color="#FF4B52"/>
<stop offset="0.7662" stop-color="#FF216E"/>
<stop offset="1" stop-color="#FF0084"/>
</linearGradient>
<linearGradient id="paint15_linear_634_568" x1="14.9479" y1="6.1602" x2="17.9908" y2="9.20309" gradientUnits="userSpaceOnUse">
<stop stop-color="#FFFCF8"/>
<stop offset="0.1875" stop-color="#FAF8F6"/>
<stop offset="0.4041" stop-color="#ECEEF2"/>
<stop offset="0.6353" stop-color="#D5DCEA"/>
<stop offset="0.875" stop-color="#B5C4DF"/>
<stop offset="1" stop-color="#A1B5D8"/>
</linearGradient>
<linearGradient id="paint16_linear_634_568" x1="19.3749" y1="6.1602" x2="22.4178" y2="9.20309" gradientUnits="userSpaceOnUse">
<stop stop-color="#FF6E3A"/>
<stop offset="0.1596" stop-color="#FF6440"/>
<stop offset="0.4266" stop-color="#FF4B52"/>
<stop offset="0.7662" stop-color="#FF216E"/>
<stop offset="1" stop-color="#FF0084"/>
</linearGradient>
<linearGradient id="paint17_linear_634_568" x1="8.30955" y1="2.28447" x2="18.9859" y2="12.9608" gradientUnits="userSpaceOnUse">
<stop stop-color="#FF6E3A"/>
<stop offset="0.1596" stop-color="#FF6440"/>
<stop offset="0.4266" stop-color="#FF4B52"/>
<stop offset="0.7662" stop-color="#FF216E"/>
<stop offset="1" stop-color="#FF0084"/>
</linearGradient>
<linearGradient id="paint18_linear_634_568" x1="20.5576" y1="7.61886" x2="10.5182" y2="-1.20828" gradientUnits="userSpaceOnUse">
<stop stop-color="#E58200" stop-opacity="0"/>
<stop offset="0.4384" stop-color="#C4602C" stop-opacity="0.439216"/>
<stop offset="0.7953" stop-color="#AE4948" stop-opacity="0.796078"/>
<stop offset="1" stop-color="#A64153"/>
</linearGradient>
<linearGradient id="paint19_linear_634_568" x1="11.4025" y1="1.60991" x2="11.4025" y2="5.95434" gradientUnits="userSpaceOnUse">
<stop stop-color="#FFFCF8"/>
<stop offset="0.1875" stop-color="#FAF8F6"/>
<stop offset="0.4041" stop-color="#ECEEF2"/>
<stop offset="0.6353" stop-color="#D5DCEA"/>
<stop offset="0.875" stop-color="#B5C4DF"/>
<stop offset="1" stop-color="#A1B5D8"/>
</linearGradient>
<linearGradient id="paint20_linear_634_568" x1="11.4025" y1="1.60991" x2="11.4025" y2="5.95434" gradientUnits="userSpaceOnUse">
<stop stop-color="#FF6E3A"/>
<stop offset="0.1596" stop-color="#FF6440"/>
<stop offset="0.4266" stop-color="#FF4B52"/>
<stop offset="0.7662" stop-color="#FF216E"/>
<stop offset="1" stop-color="#FF0084"/>
</linearGradient>
</defs>
</svg>
