<svg width="36" height="36" viewBox="0 0 36 36" fill="none" xmlns="http://www.w3.org/2000/svg">
<path d="M18.2757 35.7274C28.0646 35.7274 36 27.792 36 18.0031C36 8.21425 28.0646 0.278809 18.2757 0.278809C8.48683 0.278809 0.551392 8.21425 0.551392 18.0031C0.551392 27.792 8.48683 35.7274 18.2757 35.7274Z" fill="#7EA467"/>
<path fill-rule="evenodd" clip-rule="evenodd" d="M29.1058 24.5074L29.0869 24.5551C28.9085 25.0105 28.7293 25.4654 28.5414 25.9174C28.38 26.3058 28.213 26.6957 28.0285 27.0736C27.9182 27.2994 27.7435 27.6558 27.5662 27.8331C27.3858 28.0138 27.1865 28.1746 26.9716 28.3128C25.7351 29.1042 24.1893 28.9926 22.8305 28.6283C16.9935 27.0646 9.21369 19.2848 7.64987 13.4479C7.28569 12.0886 7.17436 10.5424 7.96655 9.30586C8.10415 9.09117 8.26465 8.89205 8.44525 8.71202C8.62228 8.53478 8.97919 8.36017 9.20469 8.24988C9.58307 8.06536 9.97321 7.89837 10.3616 7.73698C10.8134 7.55004 11.2686 7.37003 11.7237 7.1914L11.7711 7.17313C12.0096 7.07869 12.2741 7.07328 12.5162 7.15789C12.7583 7.24251 12.9619 7.41148 13.0896 7.63389L15.3462 11.5433C15.4873 11.7895 15.5253 12.0815 15.4519 12.3555C15.3784 12.6296 15.1996 12.8635 14.9544 13.0062C14.1561 13.4673 13.5193 14.1848 13.3312 15.1048C13.2366 15.5429 13.2385 15.9964 13.3367 16.4338C13.435 16.8712 13.6273 17.2819 13.9003 17.6375C14.582 18.5273 15.3251 19.3684 16.1242 20.1545C16.9105 20.9537 17.7517 21.6969 18.6418 22.3787C18.9973 22.6518 19.4081 22.8442 19.8455 22.9425C20.2829 23.0408 20.7365 23.0426 21.1747 22.9479C22.0939 22.76 22.8121 22.1227 23.2729 21.3245C23.4155 21.0793 23.6493 20.9004 23.9233 20.827C24.1973 20.7536 24.4893 20.7915 24.7353 20.9327L28.6444 23.1897C28.8668 23.3173 29.0358 23.5207 29.1205 23.7626C29.2052 24.0046 29.2 24.269 29.1058 24.5074Z" fill="white"/>
</svg>
