<svg width="22" height="24" viewBox="0 0 22 24" fill="none" xmlns="http://www.w3.org/2000/svg">
<g clip-path="url(#clip0_634_1944)">
<path d="M19.6414 21.8715C19.6414 20.7217 16.2492 19.7896 12.0649 19.7896C7.88037 19.7896 4.48816 20.7217 4.48816 21.8715C4.48816 23.0212 7.88037 23.9532 12.0649 23.9532C16.2492 23.9532 19.6414 23.0212 19.6414 21.8715Z" fill="url(#paint0_radial_634_1944)"/>
<path d="M19.6414 21.8715C19.6414 20.7217 16.2492 19.7896 12.0649 19.7896C11.0142 19.7896 10.0137 19.8483 9.10425 19.9545C9.79071 20.7371 10.4215 21.4168 10.9227 21.9425L12.9211 23.9398C16.7022 23.823 19.6414 22.9415 19.6414 21.8715Z" fill="url(#paint1_linear_634_1944)"/>
<path d="M12.0646 -0.046875C6.99677 -0.046875 2.88843 4.06146 2.88843 9.12927C2.88843 13.08 8.46454 19.3636 10.9227 21.9426C11.5446 22.5949 12.5846 22.5949 13.2062 21.9426C15.6652 19.3638 21.2413 13.08 21.2413 9.12927C21.2413 4.06146 17.1329 -0.046875 12.0646 -0.046875Z" fill="url(#paint2_linear_634_1944)"/>
<path d="M21.2002 9.73645L16.4367 4.97296C15.3377 3.8172 13.7853 3.09668 12.0645 3.09668C8.73273 3.09668 6.03174 5.79767 6.03174 9.12927C6.03174 10.8501 6.75226 12.4026 7.90802 13.5016L14.7135 20.3071C17.2609 17.4472 20.7851 12.9774 21.2002 9.73645Z" fill="url(#paint3_linear_634_1944)"/>
<path d="M18.0971 9.12927C18.0971 12.4611 15.3963 15.162 12.0645 15.162C8.73273 15.162 6.03174 12.4611 6.03174 9.12927C6.03174 5.79767 8.73273 3.09668 12.0645 3.09668C15.3963 3.09668 18.0971 5.79767 18.0971 9.12927Z" fill="url(#paint4_linear_634_1944)"/>
<path d="M17.5623 11.6158C16.9739 12.9151 15.9381 13.9685 14.652 14.5803C13.8679 14.9531 12.9905 15.162 12.0643 15.162C11.8532 15.162 11.6452 15.151 11.4398 15.1298L9.6521 13.3421C9.43695 13.1733 9.30438 12.9061 9.32233 12.611L9.55817 8.80182C9.54242 8.78552 9.52649 8.76886 9.51147 8.75165C9.45819 8.70496 9.40747 8.65369 9.35895 8.59912C8.93268 8.22614 8.65015 7.57391 8.65015 6.83069C8.65015 5.67163 9.33643 4.73193 10.1831 4.73193C10.5561 4.73193 10.8976 4.91431 11.1635 5.2168L17.5623 11.6158Z" fill="url(#paint5_linear_634_1944)"/>
<path d="M17.5623 11.6158C16.974 12.9151 15.9382 13.9685 14.652 14.5803L13.4141 13.3421C13.1995 13.1733 13.0663 12.9063 13.0848 12.611L13.3201 8.80182C13.3047 8.78552 13.2888 8.76886 13.2734 8.75165C13.2205 8.70496 13.1694 8.65387 13.1209 8.59912C12.6952 8.22632 12.4121 7.57391 12.4121 6.83087C12.4121 6.72229 12.4183 6.60474 12.4299 6.48297C12.4885 5.86865 12.6893 5.13824 12.9768 4.81689C13.0786 4.70374 13.2628 4.76855 13.2791 4.91339C13.354 4.9231 13.6462 5.23474 13.6719 5.2547V5.00916C13.6719 4.85846 13.7922 4.7323 13.9429 4.73193H13.9482C14.0619 4.7323 14.1584 4.80408 14.1985 4.90424C14.2677 4.93207 14.5815 5.25287 14.6101 5.28729V4.93427C14.6101 4.7746 14.8077 4.69788 14.9142 4.81689L17.9648 7.86743C18.0516 8.27429 18.097 8.69653 18.097 9.1294C18.0972 10.0158 17.9058 10.8575 17.5623 11.6158Z" fill="url(#paint6_linear_634_1944)"/>
<path d="M11.7166 6.83051C11.7166 5.67145 11.0302 4.73193 10.1833 4.73193C9.33661 4.73193 8.65015 5.67163 8.65015 6.83051C8.65015 7.68634 9.0246 8.42206 9.56146 8.74854L9.32251 12.6106C9.29175 13.1068 9.68597 13.5263 10.1833 13.5263C10.6808 13.5263 11.075 13.107 11.0443 12.6106L10.8053 8.74854C11.3422 8.42206 11.7166 7.68634 11.7166 6.83051Z" fill="url(#paint7_linear_634_1944)"/>
<path d="M15.4789 6.83051C15.4789 6.17444 15.2589 5.20178 14.9144 4.81708C14.8079 4.69806 14.6103 4.77441 14.6103 4.93427V7.09637C14.6103 7.20331 14.5279 7.29669 14.4208 7.29999C14.31 7.30328 14.2194 7.21448 14.2194 7.10443V5.00879C14.2194 4.85828 14.0991 4.7323 13.9484 4.73193C13.9474 4.73193 13.9465 4.73193 13.9456 4.73193C13.9447 4.73193 13.9436 4.73193 13.9427 4.73193C13.7922 4.7323 13.6719 4.85828 13.6719 5.00879V7.09637C13.6719 7.20331 13.5893 7.29669 13.4824 7.29999C13.3716 7.30328 13.2808 7.21448 13.2808 7.10443V4.93427C13.2808 4.77441 13.0834 4.69806 12.9768 4.81708C12.6322 5.20178 12.4121 6.17444 12.4121 6.83051C12.4121 7.68634 12.7867 8.42206 13.3236 8.74854L13.0847 12.6106C13.0539 13.1068 13.4481 13.5263 13.9454 13.5263C14.4427 13.5263 14.8372 13.107 14.8064 12.6106L14.5674 8.74854C15.1043 8.42206 15.4789 7.68634 15.4789 6.83051Z" fill="url(#paint8_linear_634_1944)"/>
</g>
<defs>
<radialGradient id="paint0_radial_634_1944" cx="0" cy="0" r="1" gradientUnits="userSpaceOnUse" gradientTransform="translate(11.9105 20.7247) scale(9.21185 2.42271)">
<stop stop-color="#45425A"/>
<stop offset="0.4759" stop-color="#424059"/>
<stop offset="0.7742" stop-color="#3A3B56"/>
<stop offset="1" stop-color="#2D3251"/>
</radialGradient>
<linearGradient id="paint1_linear_634_1944" x1="16.5502" y1="22.879" x2="11.4374" y2="19.4631" gradientUnits="userSpaceOnUse">
<stop stop-color="#3B395F" stop-opacity="0"/>
<stop offset="0.0633" stop-color="#37355A" stop-opacity="0.062745"/>
<stop offset="0.4033" stop-color="#232543" stop-opacity="0.403922"/>
<stop offset="0.7232" stop-color="#171B35" stop-opacity="0.721569"/>
<stop offset="1" stop-color="#131830"/>
</linearGradient>
<linearGradient id="paint2_linear_634_1944" x1="2.07275" y1="0.636424" x2="19.7031" y2="16.8563" gradientUnits="userSpaceOnUse">
<stop stop-color="#FF6E3A"/>
<stop offset="0.1596" stop-color="#FF6440"/>
<stop offset="0.4266" stop-color="#FF4B52"/>
<stop offset="0.7662" stop-color="#FF216E"/>
<stop offset="1" stop-color="#FF0084"/>
</linearGradient>
<linearGradient id="paint3_linear_634_1944" x1="20.3853" y1="17.4502" x2="9.80147" y2="6.86637" gradientUnits="userSpaceOnUse">
<stop stop-color="#E4003D" stop-opacity="0"/>
<stop offset="0.5838" stop-color="#BD294B" stop-opacity="0.584314"/>
<stop offset="1" stop-color="#A64153"/>
</linearGradient>
<linearGradient id="paint4_linear_634_1944" x1="6.03176" y1="9.12937" x2="18.0972" y2="9.12937" gradientUnits="userSpaceOnUse">
<stop stop-color="#8BE1E2"/>
<stop offset="0.1873" stop-color="#87E1E1"/>
<stop offset="0.3558" stop-color="#7CE2DD"/>
<stop offset="0.5172" stop-color="#6AE2D7"/>
<stop offset="0.6741" stop-color="#50E4CE"/>
<stop offset="0.8278" stop-color="#2FE5C2"/>
<stop offset="0.9772" stop-color="#07E7B4"/>
<stop offset="1" stop-color="#00E7B2"/>
</linearGradient>
<linearGradient id="paint5_linear_634_1944" x1="14.82" y1="13.6936" x2="7.07684" y2="5.95043" gradientUnits="userSpaceOnUse">
<stop offset="0.0029" stop-color="#00E7B2" stop-opacity="0"/>
<stop offset="0.4308" stop-color="#1BC4B7" stop-opacity="0.427451"/>
<stop offset="1" stop-color="#3B9ABE"/>
</linearGradient>
<linearGradient id="paint6_linear_634_1944" x1="16.8187" y1="11.7382" x2="9.35007" y2="4.26965" gradientUnits="userSpaceOnUse">
<stop offset="0.0029" stop-color="#00E7B2" stop-opacity="0"/>
<stop offset="0.4308" stop-color="#1BC4B7" stop-opacity="0.427451"/>
<stop offset="1" stop-color="#3B9ABE"/>
</linearGradient>
<linearGradient id="paint7_linear_634_1944" x1="8.6501" y1="9.12916" x2="11.7167" y2="9.12916" gradientUnits="userSpaceOnUse">
<stop stop-color="#FFFCF8"/>
<stop offset="0.1875" stop-color="#FAF8F6"/>
<stop offset="0.4041" stop-color="#ECEEF2"/>
<stop offset="0.6353" stop-color="#D5DCEA"/>
<stop offset="0.875" stop-color="#B5C4DF"/>
<stop offset="1" stop-color="#A1B5D8"/>
</linearGradient>
<linearGradient id="paint8_linear_634_1944" x1="12.4123" y1="9.12916" x2="15.4789" y2="9.12916" gradientUnits="userSpaceOnUse">
<stop stop-color="#FFFCF8"/>
<stop offset="0.1875" stop-color="#FAF8F6"/>
<stop offset="0.4041" stop-color="#ECEEF2"/>
<stop offset="0.6353" stop-color="#D5DCEA"/>
<stop offset="0.875" stop-color="#B5C4DF"/>
<stop offset="1" stop-color="#A1B5D8"/>
</linearGradient>
<clipPath id="clip0_634_1944">
<rect width="24" height="24" fill="white" transform="translate(0.0290527)"/>
</clipPath>
</defs>
</svg>
