<svg width="25" height="24" viewBox="0 0 25 24" fill="none" xmlns="http://www.w3.org/2000/svg">
<g clip-path="url(#clip0_634_2463)">
<path d="M24.2521 9.85791C24.2524 9.84949 24.2535 9.84106 24.2535 9.83264C24.2535 8.31598 18.881 7.08643 12.2535 7.08643C5.62622 7.08643 0.25354 8.31598 0.25354 9.83264C0.25354 9.84088 0.254639 9.84912 0.254822 9.85736C0.254639 9.86267 0.25354 9.86798 0.25354 9.87347C0.25354 12.3895 1.21613 14.7036 2.8291 16.5358C2.86975 16.5819 2.91095 16.6279 2.95233 16.6735C4.96869 18.8901 8.00055 20.1594 11.1899 20.1979C11.5409 20.2021 11.8956 20.2043 12.2535 20.2043C12.6115 20.2043 12.9662 20.2021 13.3172 20.1979C16.5065 20.1594 19.5384 18.8901 21.5547 16.6735C21.5961 16.6279 21.6373 16.5819 21.678 16.5358C23.291 14.7036 24.2535 12.3895 24.2535 9.87347C24.2535 9.86816 24.2524 9.86304 24.2521 9.85791Z" fill="url(#paint0_radial_634_2463)"/>
<path d="M24.2535 9.83264C24.2535 8.31598 18.881 7.08643 12.2535 7.08643C5.62604 7.08643 0.25354 8.31598 0.25354 9.83264C0.25354 11.3493 5.62604 12.5787 12.2535 12.5787C18.881 12.5787 24.2535 11.3493 24.2535 9.83264Z" fill="url(#paint1_linear_634_2463)"/>
<path d="M22.6906 9.61542C22.6906 8.54333 18.0177 7.67432 12.2535 7.67432C6.48938 7.67432 1.81653 8.54333 1.81653 9.61542C1.81653 10.6873 6.48938 11.5563 12.2535 11.5563C18.0177 11.5563 22.6906 10.6873 22.6906 9.61542Z" fill="url(#paint2_linear_634_2463)"/>
<path d="M12.2535 11.5564C15.785 11.5564 18.9066 11.2301 20.7952 10.731C20.5242 10.2736 20.0259 9.96667 19.4557 9.96667C19.2507 9.96667 19.0551 10.0068 18.8759 10.0787C18.6017 9.44885 17.9741 9.00812 17.2431 9.00812C16.6451 9.00812 16.1165 9.30328 15.7938 9.75574C15.4646 9.3877 14.9865 9.15588 14.4539 9.15588C14.2173 9.15588 13.9913 9.20221 13.7844 9.28534C13.4678 8.55768 12.7429 8.04883 11.8988 8.04883C10.8247 8.04883 9.94415 8.87299 9.85205 9.9231C9.58746 9.71527 9.25421 9.59094 8.89166 9.59094C8.68677 9.59094 8.49121 9.63104 8.31195 9.703C8.03784 9.07294 7.41016 8.63239 6.6792 8.63239C5.73877 8.63239 4.96936 9.36151 4.90399 10.2851C4.81628 10.2635 4.72473 10.2518 4.63043 10.2518C4.24884 10.2518 3.91193 10.4407 3.70593 10.7295C5.59412 11.2294 8.71826 11.5564 12.2535 11.5564Z" fill="url(#paint3_linear_634_2463)"/>
<path d="M11.3953 10.5662C11.2005 10.5443 11.0249 10.6843 11.0029 10.8792C10.9809 11.074 11.121 11.2496 11.3156 11.2716C11.5104 11.2935 11.6862 11.1535 11.7082 10.9588C11.7302 10.764 11.5901 10.5882 11.3953 10.5662Z" fill="#4C6606"/>
<path d="M9.34657 10.2454C9.15174 10.2235 8.97615 10.3635 8.95417 10.5582C8.9322 10.753 9.07228 10.9286 9.26692 10.9506C9.46174 10.9725 9.63734 10.8325 9.65931 10.6378C9.68129 10.443 9.54121 10.2674 9.34657 10.2454Z" fill="#FF5D00"/>
<path d="M6.13795 9.86653C5.94313 9.84456 5.76753 9.98445 5.74556 10.1793C5.72358 10.3741 5.86366 10.5497 6.05848 10.5717C6.25312 10.5936 6.4289 10.4536 6.45088 10.2589C6.47285 10.0641 6.33277 9.8885 6.13795 9.86653Z" fill="#FF931E"/>
<path d="M13.5547 9.91096C13.3601 9.88899 13.1843 10.0291 13.1623 10.2239C13.1403 10.4185 13.2804 10.5943 13.4752 10.6163C13.6699 10.6383 13.8457 10.4982 13.8676 10.3034C13.8896 10.1087 13.7495 9.93293 13.5547 9.91096Z" fill="#FF931E"/>
<path d="M17.1447 9.48323C16.95 9.46125 16.7742 9.60133 16.7523 9.79615C16.7303 9.99079 16.8704 10.1666 17.0652 10.1885C17.2598 10.2105 17.4356 10.0704 17.4576 9.87562C17.4796 9.68098 17.3395 9.5052 17.1447 9.48323Z" fill="#FFEE95"/>
<path d="M19.146 10.2708C18.9512 10.2489 18.7756 10.3889 18.7536 10.5838C18.7316 10.7786 18.8717 10.9542 19.0664 10.9761C19.2612 10.9981 19.4368 10.858 19.4588 10.6634C19.4807 10.4686 19.3406 10.2928 19.146 10.2708Z" fill="#FF5D00"/>
<path d="M15.4203 10.5901C15.2255 10.5683 15.0497 10.7082 15.0279 10.9031C15.0059 11.0979 15.1458 11.2735 15.3407 11.2954C15.5355 11.3174 15.7111 11.1773 15.733 10.9827C15.755 10.7879 15.6149 10.6121 15.4203 10.5901Z" fill="#4C6606"/>
<path d="M12.0175 8.77278C11.8228 8.7508 11.647 8.89088 11.6251 9.0857C11.6031 9.28035 11.7432 9.45613 11.938 9.4781C12.1328 9.50007 12.3084 9.36 12.3304 9.16517C12.3524 8.97053 12.2123 8.79475 12.0175 8.77278Z" fill="#FFEE95"/>
<path d="M21.9917 10.3152C21.0837 10.7518 19.3515 11.1118 17.1511 11.3293C17.0993 11.3351 17.0477 11.3397 16.9953 11.3448C16.9435 11.3496 16.8911 11.3547 16.8387 11.3593C16.1028 11.4267 15.3181 11.478 14.4976 11.5117C15.1357 10.5275 15.5889 9.15948 16.0032 7.80341C16.0607 7.61389 16.1182 7.42438 16.1748 7.23633C17.2961 7.32532 18.3424 7.45074 19.2852 7.60712V7.60858L21.9917 10.3152Z" fill="url(#paint4_linear_634_2463)"/>
<path d="M15.3033 11.0096C15.3033 11.1748 15.2723 11.3325 15.2148 11.4769C15.0154 11.4877 14.8133 11.4976 14.6093 11.5064C14.2063 11.5234 13.7939 11.5364 13.3745 11.5449C13.2082 11.5483 13.0408 11.5509 12.8726 11.5526H12.872C12.7947 11.3878 12.7513 11.2039 12.7513 11.0096C12.7513 10.3047 13.3226 9.7334 14.027 9.7334C14.732 9.7334 15.3033 10.3047 15.3033 11.0096Z" fill="url(#paint5_linear_634_2463)"/>
<path d="M15.0019 10.7816C15.0019 11.0753 14.8486 11.3368 14.6093 11.5067C14.2063 11.5237 13.7939 11.5367 13.3745 11.5452C13.1025 11.3778 12.9238 11.098 12.9238 10.7816C12.9238 10.2704 13.3889 9.85547 13.9628 9.85547C14.5368 9.85547 15.0019 10.2702 15.0019 10.7816Z" fill="url(#paint6_linear_634_2463)"/>
<path d="M20.2606 5.55343C20.2097 4.1036 18.4914 3.32192 17.3657 4.23708C17.2294 4.34768 17.1252 4.46523 17.0714 4.58919C16.6836 5.48604 16.3577 6.64034 16.0032 7.80343C15.589 9.15969 15.1356 10.5275 14.4973 11.5115C15.4357 11.4734 16.3262 11.4115 17.1511 11.3295C17.6367 10.2777 18.3328 9.17599 18.9775 8.131C19.4404 7.38045 19.8762 6.65902 20.188 6.0068C20.2459 5.88503 20.2664 5.72884 20.2606 5.55343Z" fill="url(#paint7_linear_634_2463)"/>
<path d="M6.27191 11.2054C6.11645 11.1853 5.96429 11.1646 5.81561 11.1428C5.74823 11.1329 5.68194 11.1232 5.61621 11.1128C5.58819 11.1086 5.56018 11.1043 5.53216 11.0998C5.49444 11.0941 5.45617 11.0879 5.41882 11.0822C5.32196 11.0661 5.22656 11.05 5.13281 11.034C4.88727 10.9915 4.65161 10.9465 4.42895 10.8993C4.4284 10.8993 4.4284 10.8993 4.42785 10.8993C4.35956 10.8848 4.29217 10.8703 4.22589 10.8553C3.50995 10.6953 2.92987 10.5138 2.51861 10.3161C2.49829 10.2591 2.48291 10.2011 2.47302 10.141C2.38275 9.60343 3.53064 9.93283 3.58557 9.94821C3.54254 9.92752 2.74219 9.53751 2.20569 9.08835C1.92535 8.85379 1.71716 8.60312 1.72595 8.38028C1.7514 7.72458 2.78998 7.92252 2.81122 7.92655C2.78467 7.9075 1.12298 6.69388 1.49341 6.28555C1.86163 5.87943 2.51587 6.40787 2.53345 6.42233C2.52411 6.40732 2.31701 6.07736 2.18536 5.72159C2.1828 5.71573 2.18078 5.71005 2.17877 5.70383C2.17822 5.70236 2.17767 5.7009 2.17712 5.6987C2.1709 5.68277 2.16577 5.66666 2.16009 5.65109C2.15643 5.63864 2.15222 5.62729 2.14874 5.61539C2.14288 5.59818 2.1383 5.58225 2.13373 5.56558C2.11963 5.51853 2.10827 5.47092 2.09894 5.42514C2.09747 5.41599 2.09527 5.40665 2.09381 5.39731C2.09216 5.38852 2.0907 5.37918 2.0896 5.37039C2.08813 5.3616 2.08703 5.35227 2.08594 5.34348C2.08447 5.33304 2.08337 5.32333 2.08246 5.31345C2.08191 5.30557 2.08136 5.29843 2.08081 5.29056C2.07934 5.27298 2.07879 5.25595 2.07879 5.23929C2.07879 5.23105 2.07879 5.22226 2.07934 5.21457C2.07934 5.20615 2.07989 5.19791 2.08026 5.18967C2.08081 5.18198 2.08136 5.1741 2.08246 5.16641C2.08392 5.15506 2.08557 5.14462 2.08703 5.13419C2.08905 5.12192 2.09179 5.10947 2.09491 5.09812C2.09637 5.09189 2.09784 5.08566 2.10003 5.07944C2.10058 5.07834 2.10058 5.07687 2.10095 5.07633C2.10516 5.06223 2.11029 5.04886 2.11651 5.03531C2.11908 5.02927 2.12219 5.02249 2.12585 5.01627C2.12897 5.01004 2.13263 5.00382 2.13684 4.99814C2.13977 4.99301 2.14288 4.9877 2.14654 4.98258C2.14709 4.98203 2.14764 4.98111 2.14819 4.98056C2.19269 4.91831 2.26117 4.87326 2.3595 4.85147C3.06701 4.694 3.63684 6.06308 3.65698 6.11124C3.64874 6.05795 3.45501 4.83334 4.2724 5.24936C5.0841 5.66226 4.94531 7.21042 4.93707 7.29849C4.96234 7.22177 5.36792 6.02371 5.81598 6.98264C5.96979 7.31149 6.0227 7.69418 6.02417 8.05783C6.02728 8.77176 5.8352 9.41501 5.82586 9.44669C5.8471 9.41391 6.39825 8.5795 6.64105 9.64664C6.75934 10.1654 6.53705 10.7434 6.27191 11.2054Z" fill="url(#paint8_linear_634_2463)"/>
<path d="M5.41882 11.0821C5.32196 11.0662 5.22656 11.05 5.13281 11.0339C4.88727 10.9915 4.65161 10.9464 4.42895 10.8992C4.4284 10.8992 4.4284 10.8992 4.42785 10.8992C4.35956 10.8847 4.29217 10.8702 4.22589 10.8552C3.50995 10.6952 2.92987 10.5139 2.51861 10.316C2.49829 10.259 2.48291 10.201 2.47302 10.1409C2.38183 9.59656 3.55975 9.94098 3.58703 9.94885C3.56799 9.93988 2.75061 9.54474 2.20569 9.08844C1.92535 8.8537 1.71716 8.60303 1.72595 8.38037C1.7514 7.72449 2.78998 7.92242 2.81122 7.92664C2.78467 7.90741 1.12298 6.69379 1.49341 6.28564C1.86163 5.87952 2.51587 6.40778 2.53345 6.42224C2.52411 6.40723 2.31701 6.07727 2.18536 5.7215C2.1828 5.71582 2.18078 5.71014 2.17877 5.70392C2.17822 5.70227 2.17767 5.70081 2.17712 5.69861C2.1709 5.68268 2.16577 5.66656 2.16009 5.651C2.15643 5.63855 2.15222 5.6272 2.14874 5.6153C2.14288 5.59827 2.1383 5.58215 2.13373 5.56549C2.11963 5.51843 2.10827 5.47083 2.09894 5.42523C2.09747 5.41589 2.09527 5.40656 2.09381 5.39722C2.09216 5.38843 2.0907 5.37909 2.0896 5.3703C2.08813 5.36151 2.08703 5.35217 2.08594 5.34338C2.08447 5.33313 2.08337 5.32324 2.08246 5.31335C2.08191 5.30566 2.08136 5.29834 2.08081 5.29065C2.07934 5.27307 2.07879 5.25586 2.07879 5.23938C2.07879 5.23096 2.07879 5.22217 2.07934 5.21448C2.07934 5.20624 2.07989 5.19781 2.08026 5.18958C2.08081 5.18188 2.08136 5.17401 2.08246 5.16632C2.08392 5.15497 2.08557 5.14453 2.08703 5.13428C2.08905 5.12183 2.09179 5.10937 2.09491 5.09802C2.09637 5.0918 2.09784 5.08557 2.10003 5.07935C2.10058 5.07825 2.10058 5.07678 2.10095 5.07623C2.10516 5.06232 2.11029 5.04877 2.11651 5.0354C2.11908 5.02917 2.12219 5.0224 2.12585 5.01617C2.12897 5.00995 2.13263 5.00372 2.13684 4.99805C2.13977 4.99292 2.14288 4.98779 2.14654 4.98248C2.14709 4.98212 2.14764 4.98102 2.14819 4.98047C2.4516 5.36993 2.87951 5.95331 3.34259 6.69086C3.6513 7.18304 3.97613 7.74353 4.28943 8.36078C4.70508 9.17743 5.10132 10.0933 5.41882 11.0821Z" fill="url(#paint9_linear_634_2463)"/>
<path d="M4.24967 10.7653C4.29948 10.8109 4.36009 10.8554 4.42783 10.8993C4.35954 10.8849 4.29215 10.8704 4.22587 10.8554C4.09898 10.7058 4.10154 10.63 4.24967 10.7653Z" fill="url(#paint10_linear_634_2463)"/>
<path d="M5.44256 10.8113C5.47314 10.9071 5.50317 11.0034 5.5321 11.0997C5.4942 11.094 5.45593 11.0878 5.41858 11.0821C5.3219 11.0662 5.2265 11.0501 5.13275 11.034C5.1203 11.0003 5.1084 10.9671 5.09594 10.9334C5.03534 10.7776 4.97784 10.6212 4.91888 10.4647C4.90332 10.4259 4.89032 10.3865 4.87475 10.3477L4.82861 10.231L4.8266 10.2248C4.77002 10.082 4.65411 9.96993 4.50799 9.91207C3.41101 9.47646 2.86023 8.55691 3.27423 8.94802C3.61718 9.2723 4.3247 9.61471 4.64532 9.76083L4.55157 9.53286C4.48895 9.37795 4.42724 9.22268 4.36352 9.06887C4.33038 8.9916 4.28424 8.8854 4.24066 8.78597C4.1817 8.65029 4.09308 8.52798 3.98065 8.43166C3.95318 8.40676 3.9248 8.38442 3.89477 8.36373C2.82141 7.62417 2.4096 6.4587 2.76245 6.98751C3.04681 7.41323 3.69006 7.95138 3.98852 8.18978C3.9823 8.17531 3.97552 8.16085 3.9693 8.14675C3.901 7.99404 3.83819 7.83858 3.76825 7.68624C3.69793 7.53445 3.6289 7.38174 3.56061 7.22848L3.51025 7.11294C3.49322 7.07448 3.47674 7.03567 3.45807 6.99831C3.42236 6.92232 3.38592 6.8467 3.35077 6.76998C3.34619 6.75954 3.34143 6.74984 3.33685 6.7394C3.32861 6.72073 3.33209 6.70315 3.34253 6.6907C3.3612 6.66579 3.40313 6.65755 3.42584 6.6896C3.43261 6.69839 3.43884 6.70772 3.44562 6.71706C3.49524 6.78591 3.54303 6.85586 3.59173 6.92525C3.61645 6.96004 3.63879 6.99575 3.6615 7.03146L3.72943 7.13875C3.81897 7.28213 3.90869 7.42623 3.99621 7.57125C4.04236 7.64266 4.08062 7.71828 4.12219 7.79189C4.16302 7.86587 4.2044 7.94002 4.24432 8.014L4.27124 8.06325C4.3128 7.65713 4.37066 6.89468 4.27545 6.42428C4.15478 5.82461 4.64734 6.83663 4.4754 8.05703C4.46295 8.14565 4.46185 8.23482 4.47229 8.3218C4.48529 8.43166 4.51623 8.53933 4.56494 8.63985C4.61621 8.74605 4.66968 8.85537 4.70172 8.92165C4.7204 8.95937 4.73742 8.99819 4.75409 9.03719L4.80481 9.1531L4.90625 9.38619L4.97418 9.54623C5.10583 9.17379 5.2948 8.57357 5.30523 8.1711V8.16689C5.31146 7.9457 5.35595 7.97372 5.37921 8.15444C5.41235 8.4172 5.40045 9.0024 5.16076 9.61874C5.11041 9.74837 5.11096 9.88918 5.15967 10.0155L5.18915 10.0933C5.21972 10.1719 5.25085 10.2506 5.27777 10.331C5.3327 10.491 5.38928 10.6507 5.44256 10.8113Z" fill="url(#paint11_linear_634_2463)"/>
<path d="M5.81549 11.1429C5.74811 11.133 5.68182 11.1233 5.61609 11.1129C5.74353 10.8203 5.89313 10.4215 5.90503 10.1437C5.92316 9.73445 6.13611 10.3748 5.81549 11.1429Z" fill="url(#paint12_linear_634_2463)"/>
<path d="M6.94197 10.8746C6.94197 10.8746 6.91213 10.8998 6.85665 10.9434C6.7737 11.0082 6.636 11.1122 6.46242 11.2294C6.39815 11.2215 6.33498 11.2139 6.27181 11.2056C6.11635 11.1853 5.96419 11.1646 5.81551 11.1428C5.75801 11.1346 5.70107 11.1258 5.64449 11.117C5.63515 11.1159 5.62544 11.1144 5.61611 11.1128C5.58809 11.1088 5.56008 11.1045 5.53224 11.1C5.49434 11.0941 5.45607 11.0881 5.41872 11.0822H5.41817C5.32131 11.0663 5.22646 11.0502 5.13271 11.034C4.88735 10.9916 4.65151 10.9465 4.42885 10.8995C4.4283 10.8995 4.4283 10.8995 4.42775 10.8995C4.35945 10.885 4.29207 10.8704 4.22579 10.8553C4.17818 10.8445 4.13094 10.8335 4.08443 10.8227C4.01906 10.8077 3.95534 10.7922 3.89272 10.7766C3.32857 10.6367 2.86403 10.4824 2.51851 10.3161C2.30556 10.2141 2.13838 10.1085 2.01973 9.99822C2.03163 9.99548 2.03932 9.99401 2.04097 9.99346C2.03877 9.99346 2.02797 9.992 2.01094 9.9898C1.9269 9.9779 1.6819 9.94073 1.45192 9.86291C1.44734 9.86144 1.44258 9.85979 1.43801 9.85833C1.43636 9.85778 1.43544 9.85723 1.43379 9.85668C1.42134 9.8521 1.40944 9.84789 1.39699 9.84331C1.38765 9.8402 1.37886 9.83654 1.37007 9.83288C1.35726 9.8283 1.3448 9.82317 1.33272 9.81786C1.29811 9.8034 1.26387 9.78728 1.23183 9.7708C1.2256 9.76714 1.21883 9.76403 1.21315 9.76037C1.20693 9.75671 1.2007 9.75359 1.19448 9.75011C1.18825 9.74645 1.18202 9.74279 1.17635 9.73858C1.16976 9.7351 1.16353 9.73089 1.15676 9.72631C1.15199 9.7232 1.14687 9.72008 1.14229 9.71642C1.1313 9.70873 1.1205 9.70086 1.11061 9.69262C1.10549 9.68841 1.10091 9.68438 1.0956 9.68072C1.09102 9.67651 1.08626 9.67248 1.08168 9.66772C1.0771 9.66369 1.07289 9.65948 1.06868 9.65527C1.06246 9.64904 1.05678 9.64281 1.05165 9.63677C1.04488 9.62945 1.0392 9.62212 1.03353 9.61443C1.03041 9.61077 1.02785 9.60674 1.02474 9.60253C1.02474 9.60143 1.02364 9.60088 1.02364 9.60052C1.01705 9.59118 1.01174 9.58129 1.00661 9.5714C1.00405 9.56683 1.00203 9.5617 0.999834 9.55639C0.997271 9.55126 0.995806 9.54668 0.993609 9.54101C0.992144 9.5368 0.990496 9.53204 0.98958 9.52746C0.98958 9.52691 0.989031 9.52636 0.989031 9.52544C0.973467 9.46886 0.979693 9.40624 1.01393 9.3363C1.19521 8.97173 1.82601 9.04259 2.17061 9.11309C2.29805 9.13891 2.38594 9.16491 2.39839 9.16857C2.38869 9.16235 2.32186 9.12389 2.24202 9.06493C2.02394 8.9049 1.7079 8.59307 2.18032 8.38177C2.5403 8.22063 2.97023 8.41326 3.28682 8.62145C3.54317 8.79028 3.72444 8.96954 3.73323 8.97832C3.72609 8.96697 3.57887 8.74065 3.54116 8.54583C3.5038 8.35632 3.56954 8.1972 3.96834 8.29571C4.05019 8.31585 4.13057 8.34386 4.20931 8.37865C4.90126 8.68059 5.43318 9.45806 5.45131 9.48498C5.44307 9.45861 5.20741 8.71996 5.9673 9.09185C6.58638 9.3958 6.83962 10.3567 6.91524 10.7272C6.92238 10.7623 6.92806 10.7924 6.93227 10.8158C6.93941 10.8533 6.94197 10.8746 6.94197 10.8746Z" fill="url(#paint13_linear_634_2463)"/>
<path d="M6.94196 10.8745C6.94196 10.8745 6.91211 10.8998 6.85663 10.9434C6.77368 11.0082 6.63599 11.1122 6.4624 11.2294C6.39813 11.2215 6.33496 11.2138 6.27179 11.2056C6.11633 11.1852 5.96417 11.1646 5.81549 11.1428C5.758 11.1345 5.70105 11.1257 5.64447 11.1169C5.63513 11.1158 5.62543 11.1144 5.61609 11.1127C5.58807 11.1087 5.56006 11.1045 5.53223 11.0999C5.49432 11.0941 5.45605 11.088 5.4187 11.0822H5.41815C5.32129 11.0662 5.22644 11.0501 5.13269 11.034C4.88733 10.9915 4.65149 10.9465 4.42883 10.8994C4.42828 10.8994 4.42828 10.8994 4.42773 10.8994C4.35944 10.8849 4.29205 10.8703 4.22577 10.8553C4.17816 10.8445 4.13092 10.8335 4.08441 10.8227C4.01904 10.8077 3.95532 10.7921 3.8927 10.7766C3.32855 10.6367 2.86401 10.4823 2.51849 10.316C2.30554 10.2141 2.13837 10.1084 2.01971 9.99817C2.03162 9.99542 2.03931 9.99396 2.04095 9.99341C2.03876 9.99341 2.02795 9.99194 2.01093 9.98975C1.92688 9.97784 1.68188 9.94067 1.4519 9.86285C1.44733 9.86139 1.44257 9.85974 1.43799 9.85828C1.43634 9.85773 1.43542 9.85718 1.43378 9.85663C1.42133 9.85205 1.40942 9.84784 1.39697 9.84326C1.38763 9.84015 1.37885 9.83649 1.37006 9.83282C1.35724 9.82825 1.34479 9.82312 1.3327 9.81781C1.2981 9.80334 1.26385 9.78723 1.23181 9.77075C1.22559 9.76709 1.21881 9.76398 1.21313 9.76031C1.20691 9.75665 1.20068 9.75354 1.19446 9.75006C1.18823 9.7464 1.18201 9.74274 1.17633 9.73853C1.16974 9.73505 1.16351 9.73083 1.15674 9.72626C1.15198 9.72314 1.14685 9.72003 1.14227 9.71637C1.13129 9.70868 1.12048 9.70081 1.1106 9.69257C1.10547 9.68835 1.10089 9.68433 1.09558 9.68066C1.091 9.67645 1.08624 9.67242 1.08167 9.66766C1.07709 9.66364 1.07288 9.65942 1.06866 9.65521C1.06244 9.64899 1.05676 9.64276 1.05164 9.63672C1.04486 9.62939 1.03918 9.62207 1.03351 9.61438C1.0304 9.61072 1.02783 9.60669 1.02472 9.60248C1.02472 9.60138 1.02362 9.60083 1.02362 9.60046C1.01703 9.59113 1.01172 9.58124 1.00659 9.57135C1.00403 9.56677 1.00201 9.56165 0.999817 9.55634C0.997253 9.55121 0.995789 9.54663 0.993591 9.54095C0.992126 9.53674 0.990479 9.53198 0.989563 9.5274C0.989563 9.52686 0.989014 9.52631 0.989014 9.52539C1.2113 9.52942 1.49255 9.54041 1.82086 9.56421C2.05615 9.58124 2.31561 9.60522 2.5943 9.63837C3.80994 9.78375 5.39087 10.1077 6.93243 10.8157C6.93939 10.8533 6.94196 10.8745 6.94196 10.8745Z" fill="url(#paint14_linear_634_2463)"/>
<path d="M6.94198 10.8745C6.94198 10.8745 6.91214 10.8997 6.85665 10.9433C6.81161 10.9268 6.76693 10.9107 6.72134 10.8957L6.5386 10.832L6.5375 10.8314C6.47232 10.8086 6.40017 10.8179 6.34066 10.8564C6.08322 11.021 5.82687 11.0929 5.6445 11.1169C5.63516 11.1158 5.62527 11.1142 5.61593 11.1127C5.5881 11.1085 5.56008 11.1045 5.53207 11.0997C5.49417 11.094 5.4559 11.0878 5.41854 11.0821C5.43356 11.0775 5.45333 11.0733 5.47879 11.0693C5.71023 11.034 6.03927 10.8609 6.2557 10.734C6.16708 10.704 6.07846 10.6729 5.99002 10.6429C5.86715 10.6035 5.74502 10.5627 5.62271 10.5222C5.59213 10.5123 5.56155 10.5009 5.53097 10.4916L5.43887 10.4627L5.43429 10.461C5.32131 10.4259 5.19808 10.4409 5.09188 10.5004C4.71633 10.7122 4.33566 10.7978 4.08425 10.8227C4.01907 10.8076 3.95535 10.7921 3.89273 10.7765C3.89987 10.7754 3.90719 10.7745 3.91543 10.7734C4.27597 10.7247 4.82455 10.4663 5.0679 10.3446L4.88552 10.2906C4.76229 10.2534 4.63906 10.2146 4.51583 10.1781C4.45358 10.1606 4.3677 10.1373 4.28677 10.115C4.14962 10.0772 4.00405 10.0767 3.86563 10.1175C2.90176 10.403 2.00253 10.0849 2.49105 10.13C2.88418 10.1653 3.51919 10.0404 3.80667 9.97726C3.79476 9.97415 3.78341 9.97049 3.77151 9.96792C3.64718 9.93478 3.5234 9.89688 3.39797 9.86484C3.27255 9.83371 3.14785 9.80112 3.02243 9.76742L2.92868 9.74216C2.89773 9.73337 2.8666 9.72494 2.83493 9.7178C2.77175 9.70224 2.70858 9.68722 2.64596 9.67111C2.63754 9.6691 2.6293 9.66708 2.62106 9.66488C2.60549 9.66086 2.59671 9.65042 2.59414 9.63797C2.58847 9.61471 2.60403 9.58523 2.63406 9.58725C2.6423 9.5878 2.65109 9.58835 2.65988 9.58871C2.72525 9.59237 2.79043 9.5975 2.8558 9.60226C2.88876 9.60373 2.92099 9.60794 2.95358 9.61215L3.05044 9.62295C3.18045 9.63852 3.3099 9.655 3.43936 9.67276C3.50473 9.6799 3.56845 9.69345 3.63327 9.7037C3.69735 9.71506 3.76162 9.72604 3.82589 9.73849L3.86782 9.74618C3.64462 9.52463 3.21524 9.11996 2.88674 8.94913C2.46817 8.73105 3.31466 8.92569 3.96322 9.62094C4.06979 9.73483 4.20602 9.81466 4.35635 9.84927C4.44479 9.86996 4.53652 9.8912 4.59146 9.9042C4.6235 9.91098 4.65518 9.91977 4.68612 9.92856L4.78097 9.95437L4.96957 10.0062L5.09848 10.0435C4.93899 9.7839 4.67019 9.37942 4.43399 9.17801C4.11026 8.90243 4.80331 9.21683 5.23269 9.96683C5.28561 10.0595 5.37057 10.1274 5.47 10.1596L5.53097 10.1792C5.59323 10.1994 5.6553 10.2191 5.71646 10.2418C5.83932 10.2865 5.96255 10.3299 6.08486 10.3755C6.18685 10.416 6.28884 10.4564 6.39083 10.4978C6.27841 10.2741 6.08999 9.93423 5.90817 9.7742C5.64816 9.54477 6.26303 9.78775 6.54885 10.4927C6.57119 10.5476 6.61312 10.5907 6.66549 10.6145C6.7131 10.6352 6.76016 10.6564 6.80795 10.6771L6.91506 10.7269C6.92239 10.7621 6.92807 10.7921 6.93228 10.8153C6.93942 10.8532 6.94198 10.8745 6.94198 10.8745Z" fill="url(#paint15_linear_634_2463)"/>
<path d="M23.7975 8.02464C23.7975 8.02574 23.7972 8.02665 23.7972 8.0272C23.7961 8.03398 23.795 8.0402 23.7935 8.04643C23.7919 8.05412 23.7899 8.0609 23.7878 8.06859C23.7856 8.07591 23.7831 8.08323 23.7805 8.09038C23.7754 8.10484 23.7692 8.11931 23.7618 8.13395C23.7615 8.13505 23.7604 8.13597 23.7604 8.13707C23.7567 8.14329 23.7531 8.15007 23.7499 8.15611C23.7433 8.16765 23.736 8.17955 23.7278 8.1909C23.721 8.20079 23.7142 8.21049 23.7071 8.22093C23.7014 8.2277 23.6957 8.23485 23.6899 8.24162C23.6837 8.24894 23.678 8.25609 23.6718 8.26341C23.6657 8.27018 23.6595 8.27733 23.6527 8.2841C23.6397 8.29802 23.6258 8.31212 23.6111 8.32603C23.6051 8.33226 23.5983 8.33793 23.5921 8.34416C23.5833 8.35203 23.5745 8.35972 23.5657 8.36705C23.5579 8.37364 23.5496 8.38096 23.5419 8.38719C23.5335 8.39433 23.5253 8.40056 23.517 8.40733C23.5088 8.41411 23.5 8.42088 23.4912 8.42747C23.4482 8.46007 23.4015 8.49284 23.3539 8.52379C23.3372 8.53477 23.3202 8.54558 23.3026 8.55656C23.2902 8.5637 23.2777 8.57158 23.2653 8.57927C23.2482 8.58915 23.2316 8.59904 23.2145 8.60875C23.2125 8.60985 23.2103 8.61094 23.2083 8.61186C23.2021 8.61552 23.1959 8.61973 23.1891 8.62285C22.8047 8.83983 22.377 8.98906 22.3583 8.99565C22.3836 8.99473 23.3315 8.95427 23.3171 9.52043C23.3114 9.74217 22.9587 9.87675 22.5272 9.9586C21.8508 10.0871 20.9805 10.0855 20.9581 10.0855C20.9706 10.0908 21.3269 10.258 21.515 10.5108C20.4106 10.9051 18.6014 11.2195 16.3973 11.3965C16.2249 11.411 16.0498 11.424 15.8726 11.4359C15.8068 11.4407 15.7405 11.4452 15.6737 11.4494C15.593 11.4546 15.5117 11.4597 15.4298 11.4645C15.4935 10.8754 15.7156 9.72349 16.4792 9.1718C17.5104 8.42692 17.311 9.4666 17.3033 9.50596C17.3209 9.47227 17.7347 8.68016 18.3958 8.0457C18.6428 7.80858 18.924 7.59306 19.2318 7.44749C20.3676 6.90934 19.7207 8.2213 19.7037 8.25554C19.7286 8.22349 20.8428 6.78813 21.8471 6.94395C22.8494 7.09941 21.7103 8.01988 21.6788 8.04515C21.7149 8.02665 23.2643 7.21586 23.7252 7.78679C23.7884 7.8657 23.8094 7.94536 23.7975 8.02464Z" fill="url(#paint16_linear_634_2463)"/>
<path d="M23.7978 8.02441C23.7978 8.02551 23.7974 8.02643 23.7974 8.02698C23.7963 8.03375 23.7952 8.03998 23.7938 8.0462C23.7921 8.05389 23.7901 8.06067 23.7881 8.06836C23.7859 8.07568 23.7833 8.08301 23.7808 8.09015C23.7756 8.10461 23.7694 8.11908 23.7621 8.13373C23.7617 8.13483 23.7606 8.13574 23.7606 8.13684C23.757 8.14307 23.7533 8.14984 23.7502 8.15588C23.7436 8.16742 23.7363 8.17932 23.728 8.19067C23.7213 8.20056 23.7145 8.21027 23.7073 8.2207C23.7017 8.22748 23.696 8.23462 23.6901 8.24139C23.6839 8.24872 23.6782 8.25586 23.672 8.26318C23.666 8.26996 23.6597 8.2771 23.653 8.28387C23.64 8.29779 23.626 8.31189 23.6114 8.32581C23.6053 8.33203 23.5986 8.33771 23.5923 8.34393C23.5836 8.35181 23.5748 8.3595 23.566 8.36682C23.5581 8.37341 23.5499 8.38074 23.5422 8.38696C23.5338 8.3941 23.5255 8.40033 23.5173 8.4071C23.509 8.41388 23.5002 8.42065 23.4915 8.42725C23.4484 8.45984 23.4017 8.49261 23.3541 8.52356C23.3375 8.53455 23.3204 8.54535 23.3029 8.55634C23.2904 8.56348 23.278 8.57135 23.2655 8.57904C23.2485 8.58893 23.2318 8.59882 23.2148 8.60852C23.2128 8.60962 23.2106 8.61072 23.2086 8.61163C23.2023 8.6153 23.1961 8.61951 23.1893 8.62262C22.805 8.8396 22.3773 8.98883 22.3586 8.99542C22.3839 8.99451 23.3318 8.95404 23.3173 9.5202C23.3116 9.74194 22.959 9.87653 22.5274 9.95837C21.851 10.0869 20.9807 10.0853 20.9584 10.0853C20.9708 10.0906 21.3271 10.2578 21.5152 10.5106C20.4109 10.9048 18.6016 11.2192 16.3976 11.3963C16.2251 11.4108 16.05 11.4238 15.8728 11.4357C17.8381 10.1558 19.8749 9.28656 21.4863 8.72296C21.493 8.7204 21.4998 8.71838 21.5064 8.71582C22.4516 8.38696 23.2494 8.16321 23.7978 8.02441Z" fill="url(#paint17_linear_634_2463)"/>
<path d="M18.2808 10.3612L18.0259 10.4943C18.4025 10.5691 19.2494 10.7172 19.783 10.6566C20.4273 10.583 19.2598 11.0149 18.0208 10.7058C17.8556 10.6643 17.6732 10.6872 17.5157 10.7721L17.509 10.7758L17.3804 10.8452C17.338 10.8679 17.296 10.8933 17.2535 10.916C17.0833 11.0109 16.9137 11.1067 16.7429 11.1999C16.6273 11.2652 16.5123 11.3315 16.3973 11.3967C16.2249 11.4113 16.0498 11.4242 15.8726 11.4362C15.8068 11.4408 15.7405 11.4454 15.6737 11.4496C15.7006 11.4315 15.7281 11.4128 15.7556 11.3947C15.8275 11.3465 15.8799 11.2755 15.9017 11.1964C16.1818 10.18 17.0292 9.65224 16.6953 10.0406C16.4622 10.3116 16.2529 10.8186 16.1326 11.1491C16.2725 11.0601 16.4129 10.9721 16.5537 10.8844C16.7225 10.7829 16.8936 10.684 17.0635 10.5835C17.1479 10.5328 17.2343 10.4861 17.3209 10.4385L17.4059 10.3918C17.5441 10.3156 17.6545 10.1981 17.7141 10.0587C18.1947 8.93465 19.1412 8.28719 18.7235 8.75704C18.419 9.10055 18.1055 9.71999 17.9239 10.1126L18.1041 10.0199L18.3683 9.88735L18.5009 9.82162C18.545 9.79928 18.5889 9.77694 18.634 9.7568C18.7116 9.72109 18.8401 9.66195 18.9656 9.60445C19.1774 9.50759 19.3602 9.35689 19.4933 9.17141C19.7227 8.85189 19.9829 8.57943 20.2248 8.36245C20.8369 7.81332 21.3342 7.62014 20.9286 7.92684C20.765 8.05062 20.5868 8.22091 20.4128 8.40493C20.1166 8.71822 19.8337 9.07143 19.6555 9.30251L19.7156 9.27761C19.8062 9.23989 19.8974 9.20364 19.9886 9.16683C20.0803 9.13058 20.1704 9.09121 20.2636 9.05917C20.4491 8.99178 20.6346 8.92586 20.8199 8.86068L20.9589 8.81307C21.0054 8.79696 21.0515 8.78048 21.0991 8.76693C21.1929 8.73836 21.2866 8.70943 21.3809 8.68197C21.3857 8.68032 21.3903 8.6794 21.395 8.67776C21.4033 8.67574 21.4109 8.67318 21.4188 8.67116C21.4556 8.66018 21.4814 8.68197 21.4857 8.70888C21.4866 8.71346 21.4866 8.71822 21.486 8.72335C21.4846 8.74038 21.4741 8.75704 21.4525 8.76748C21.4406 8.77315 21.4291 8.77883 21.4172 8.78451C21.3286 8.82699 21.2401 8.86837 21.1515 8.90993C21.1068 8.93008 21.0634 8.95187 21.0193 8.97402L20.8884 9.03939C20.7128 9.12582 20.5372 9.21187 20.361 9.29574C20.1854 9.38015 20.0124 9.47188 19.8379 9.55794C19.8212 9.56563 19.8053 9.57387 19.7886 9.5823C20.2186 9.56563 21.1654 9.51015 21.7301 9.32833C22.4314 9.10256 21.1855 9.82564 19.7295 9.78573C19.5208 9.78005 19.3094 9.83041 19.1174 9.92672C19.0038 9.98312 18.8837 10.0437 18.7962 10.0877C18.6241 10.1779 18.4521 10.27 18.2808 10.3612Z" fill="url(#paint18_linear_634_2463)"/>
<path d="M8.66443 10.8754C8.66443 11.0739 8.61884 11.2619 8.53845 11.4293C8.34052 11.4152 8.14532 11.3996 7.95361 11.3837C7.45428 11.3416 6.9762 11.2925 6.52246 11.2365C6.50232 11.2344 6.48199 11.2319 6.4624 11.2293C6.39813 11.2214 6.33496 11.2137 6.27179 11.2055C6.23132 11.2002 6.19086 11.1951 6.15112 11.1899C6.12512 11.0894 6.11157 10.9838 6.11157 10.8755C6.11157 10.1706 6.68304 9.59912 7.388 9.59912C8.09296 9.59912 8.66443 10.1704 8.66443 10.8754Z" fill="url(#paint19_linear_634_2463)"/>
<path d="M8.36285 10.6473C8.36285 10.9478 8.20227 11.2146 7.95361 11.384C7.45428 11.3419 6.9762 11.2928 6.52246 11.2368C6.37433 11.0767 6.28479 10.8711 6.28479 10.6473C6.28479 10.1356 6.74988 9.72119 7.32373 9.72119C7.89722 9.72119 8.36285 10.1356 8.36285 10.6473Z" fill="url(#paint20_linear_634_2463)"/>
</g>
<defs>
<radialGradient id="paint0_radial_634_2463" cx="0" cy="0" r="1" gradientUnits="userSpaceOnUse" gradientTransform="translate(8.13345 5.17157) scale(18.4409 16.5387)">
<stop stop-color="#FFFCF8"/>
<stop offset="0.4554" stop-color="#FDFBF7"/>
<stop offset="0.6194" stop-color="#F6F5F5"/>
<stop offset="0.7363" stop-color="#EBEDF1"/>
<stop offset="0.8309" stop-color="#DAE0EB"/>
<stop offset="0.9118" stop-color="#C4CFE4"/>
<stop offset="0.9822" stop-color="#A9BBDB"/>
<stop offset="1" stop-color="#A1B5D8"/>
</radialGradient>
<linearGradient id="paint1_linear_634_2463" x1="12.2535" y1="7.2736" x2="12.2535" y2="14.732" gradientUnits="userSpaceOnUse">
<stop stop-color="#FFFCF8"/>
<stop offset="0.1875" stop-color="#FAF8F6"/>
<stop offset="0.4041" stop-color="#ECEEF2"/>
<stop offset="0.6353" stop-color="#D5DCEA"/>
<stop offset="0.875" stop-color="#B5C4DF"/>
<stop offset="1" stop-color="#A1B5D8"/>
</linearGradient>
<linearGradient id="paint2_linear_634_2463" x1="12.2535" y1="12.1813" x2="12.2535" y2="5.49551" gradientUnits="userSpaceOnUse">
<stop stop-color="#FFFCF8"/>
<stop offset="0.1875" stop-color="#FAF8F6"/>
<stop offset="0.4041" stop-color="#ECEEF2"/>
<stop offset="0.6353" stop-color="#D5DCEA"/>
<stop offset="0.875" stop-color="#B5C4DF"/>
<stop offset="1" stop-color="#A1B5D8"/>
</linearGradient>
<linearGradient id="paint3_linear_634_2463" x1="12.2507" y1="9.08934" x2="12.2507" y2="11.8139" gradientUnits="userSpaceOnUse">
<stop stop-color="#C6E56F"/>
<stop offset="0.3371" stop-color="#C4E56F"/>
<stop offset="0.4953" stop-color="#BCE36E"/>
<stop offset="0.6162" stop-color="#AFE16D"/>
<stop offset="0.7182" stop-color="#9DDD6B"/>
<stop offset="0.8083" stop-color="#85D968"/>
<stop offset="0.8899" stop-color="#68D365"/>
<stop offset="0.9635" stop-color="#46CD61"/>
<stop offset="1" stop-color="#32C95F"/>
</linearGradient>
<linearGradient id="paint4_linear_634_2463" x1="18.7799" y1="11.4479" x2="16.856" y2="9.52401" gradientUnits="userSpaceOnUse">
<stop stop-color="#A1B5D8" stop-opacity="0"/>
<stop offset="0.0343" stop-color="#9FB3D5" stop-opacity="0.035294"/>
<stop offset="0.4515" stop-color="#8898AF" stop-opacity="0.45098"/>
<stop offset="0.788" stop-color="#798898" stop-opacity="0.788235"/>
<stop offset="1" stop-color="#748290"/>
</linearGradient>
<linearGradient id="paint5_linear_634_2463" x1="12.7513" y1="10.6429" x2="15.3034" y2="10.6429" gradientUnits="userSpaceOnUse">
<stop stop-color="#FF6E3A"/>
<stop offset="0.1596" stop-color="#FF6440"/>
<stop offset="0.4266" stop-color="#FF4B52"/>
<stop offset="0.7662" stop-color="#FF216E"/>
<stop offset="1" stop-color="#FF0084"/>
</linearGradient>
<linearGradient id="paint6_linear_634_2463" x1="13.8197" y1="10.6851" x2="11.9245" y2="9.40766" gradientUnits="userSpaceOnUse">
<stop offset="0.0013" stop-color="#E7EEED" stop-opacity="0"/>
<stop offset="0.7731" stop-color="#F9FBFA" stop-opacity="0.772549"/>
<stop offset="1" stop-color="white"/>
</linearGradient>
<linearGradient id="paint7_linear_634_2463" x1="16.3899" y1="7.55247" x2="17.8017" y2="8.17992" gradientUnits="userSpaceOnUse">
<stop stop-color="#FFD459"/>
<stop offset="0.2296" stop-color="#FFD355"/>
<stop offset="0.4362" stop-color="#FFCF4A"/>
<stop offset="0.634" stop-color="#FFC838"/>
<stop offset="0.825" stop-color="#FFBF1F"/>
<stop offset="1" stop-color="#FFB400"/>
</linearGradient>
<linearGradient id="paint8_linear_634_2463" x1="1.43967" y1="8.02212" x2="6.67373" y2="8.02212" gradientUnits="userSpaceOnUse">
<stop stop-color="#C6E56F"/>
<stop offset="0.3371" stop-color="#C4E56F"/>
<stop offset="0.4953" stop-color="#BCE36E"/>
<stop offset="0.6162" stop-color="#AFE16D"/>
<stop offset="0.7182" stop-color="#9DDD6B"/>
<stop offset="0.8083" stop-color="#85D968"/>
<stop offset="0.8899" stop-color="#68D365"/>
<stop offset="0.9635" stop-color="#46CD61"/>
<stop offset="1" stop-color="#32C95F"/>
</linearGradient>
<linearGradient id="paint9_linear_634_2463" x1="3.08238" y1="8.6021" x2="5.49964" y2="6.63375" gradientUnits="userSpaceOnUse">
<stop offset="0.0029" stop-color="#00E7B2" stop-opacity="0"/>
<stop offset="0.4308" stop-color="#1BC4B7" stop-opacity="0.427451"/>
<stop offset="1" stop-color="#3B9ABE"/>
</linearGradient>
<linearGradient id="paint10_linear_634_2463" x1="4.21007" y1="10.7806" x2="4.40265" y2="10.8261" gradientUnits="userSpaceOnUse">
<stop stop-color="#97A03B"/>
<stop offset="1" stop-color="#6C7D47"/>
</linearGradient>
<linearGradient id="paint11_linear_634_2463" x1="1.88464" y1="10.1386" x2="5.38969" y2="8.29116" gradientUnits="userSpaceOnUse">
<stop stop-color="#C6E56F"/>
<stop offset="0.3371" stop-color="#C4E56F"/>
<stop offset="0.4953" stop-color="#BCE36E"/>
<stop offset="0.6162" stop-color="#AFE16D"/>
<stop offset="0.7182" stop-color="#9DDD6B"/>
<stop offset="0.8083" stop-color="#85D968"/>
<stop offset="0.8899" stop-color="#68D365"/>
<stop offset="0.9635" stop-color="#46CD61"/>
<stop offset="1" stop-color="#32C95F"/>
</linearGradient>
<linearGradient id="paint12_linear_634_2463" x1="5.80952" y1="10.5722" x2="5.94484" y2="10.6042" gradientUnits="userSpaceOnUse">
<stop stop-color="#97A03B"/>
<stop offset="1" stop-color="#6C7D47"/>
</linearGradient>
<linearGradient id="paint13_linear_634_2463" x1="0.9808" y1="9.74738" x2="6.94207" y2="9.74738" gradientUnits="userSpaceOnUse">
<stop stop-color="#C6E56F"/>
<stop offset="0.3371" stop-color="#C4E56F"/>
<stop offset="0.4953" stop-color="#BCE36E"/>
<stop offset="0.6162" stop-color="#AFE16D"/>
<stop offset="0.7182" stop-color="#9DDD6B"/>
<stop offset="0.8083" stop-color="#85D968"/>
<stop offset="0.8899" stop-color="#68D365"/>
<stop offset="0.9635" stop-color="#46CD61"/>
<stop offset="1" stop-color="#32C95F"/>
</linearGradient>
<linearGradient id="paint14_linear_634_2463" x1="3.92419" y1="10.4135" x2="4.15901" y2="9.19743" gradientUnits="userSpaceOnUse">
<stop offset="0.0029" stop-color="#00E7B2" stop-opacity="0"/>
<stop offset="0.4308" stop-color="#1BC4B7" stop-opacity="0.427451"/>
<stop offset="1" stop-color="#3B9ABE"/>
</linearGradient>
<linearGradient id="paint15_linear_634_2463" x1="4.40121" y1="11.466" x2="5.01788" y2="9.06599" gradientUnits="userSpaceOnUse">
<stop stop-color="#C6E56F"/>
<stop offset="0.1955" stop-color="#C3E46F"/>
<stop offset="0.3591" stop-color="#B8E26E"/>
<stop offset="0.5111" stop-color="#A7DF6C"/>
<stop offset="0.6561" stop-color="#8FDA69"/>
<stop offset="0.7962" stop-color="#6FD566"/>
<stop offset="0.9308" stop-color="#49CD61"/>
<stop offset="1" stop-color="#32C95F"/>
</linearGradient>
<linearGradient id="paint16_linear_634_2463" x1="15.4296" y1="9.19847" x2="23.8008" y2="9.19847" gradientUnits="userSpaceOnUse">
<stop stop-color="#C6E56F"/>
<stop offset="0.3371" stop-color="#C4E56F"/>
<stop offset="0.4953" stop-color="#BCE36E"/>
<stop offset="0.6162" stop-color="#AFE16D"/>
<stop offset="0.7182" stop-color="#9DDD6B"/>
<stop offset="0.8083" stop-color="#85D968"/>
<stop offset="0.8899" stop-color="#68D365"/>
<stop offset="0.9635" stop-color="#46CD61"/>
<stop offset="1" stop-color="#32C95F"/>
</linearGradient>
<linearGradient id="paint17_linear_634_2463" x1="20.2671" y1="10.6868" x2="19.1448" y2="8.2005" gradientUnits="userSpaceOnUse">
<stop offset="0.0029" stop-color="#00E7B2" stop-opacity="0"/>
<stop offset="0.4308" stop-color="#1BC4B7" stop-opacity="0.427451"/>
<stop offset="1" stop-color="#3B9ABE"/>
</linearGradient>
<linearGradient id="paint18_linear_634_2463" x1="19.4842" y1="11.8644" x2="18.3101" y2="9.29172" gradientUnits="userSpaceOnUse">
<stop stop-color="#C6E56F"/>
<stop offset="0.3371" stop-color="#C4E56F"/>
<stop offset="0.4953" stop-color="#BCE36E"/>
<stop offset="0.6162" stop-color="#AFE16D"/>
<stop offset="0.7182" stop-color="#9DDD6B"/>
<stop offset="0.8083" stop-color="#85D968"/>
<stop offset="0.8899" stop-color="#68D365"/>
<stop offset="0.9635" stop-color="#46CD61"/>
<stop offset="1" stop-color="#32C95F"/>
</linearGradient>
<linearGradient id="paint19_linear_634_2463" x1="6.11173" y1="10.5141" x2="8.66436" y2="10.5141" gradientUnits="userSpaceOnUse">
<stop stop-color="#FF6E3A"/>
<stop offset="0.1596" stop-color="#FF6440"/>
<stop offset="0.4266" stop-color="#FF4B52"/>
<stop offset="0.7662" stop-color="#FF216E"/>
<stop offset="1" stop-color="#FF0084"/>
</linearGradient>
<linearGradient id="paint20_linear_634_2463" x1="7.18788" y1="10.5399" x2="5.29268" y2="9.26247" gradientUnits="userSpaceOnUse">
<stop offset="0.0013" stop-color="#E7EEED" stop-opacity="0"/>
<stop offset="0.7731" stop-color="#F9FBFA" stop-opacity="0.772549"/>
<stop offset="1" stop-color="white"/>
</linearGradient>
<clipPath id="clip0_634_2463">
<rect width="24" height="24" fill="white" transform="translate(0.25354)"/>
</clipPath>
</defs>
</svg>
