<svg width="33" height="33" viewBox="0 0 33 33" fill="none" xmlns="http://www.w3.org/2000/svg">
<path d="M22.6593 3.50041H10.4393C8.60798 3.49624 6.8495 4.21787 5.54904 5.50719C4.24848 6.79651 3.51161 8.54863 3.50001 10.3799V28.083C3.51216 28.4621 3.67103 28.8219 3.94307 29.0861C4.21512 29.3506 4.57928 29.4989 4.95851 29.5H22.6594C24.4819 29.4958 26.2276 28.7664 27.5111 27.4726C28.7947 26.1787 29.5103 24.4271 29.5 22.605V10.385C29.5125 8.56289 28.7972 6.81109 27.5128 5.51839C26.2286 4.22582 24.4815 3.4993 22.6591 3.5L22.6593 3.50041ZM18.2082 22.0152H8.62209C8.39593 21.972 8.20315 21.8256 8.1007 21.6194C7.99841 21.4134 7.99841 21.1713 8.1007 20.9651C8.20317 20.7589 8.39596 20.6125 8.62209 20.5695H18.2082C18.4342 20.6125 18.6271 20.7589 18.7294 20.9651C18.8319 21.1713 18.8319 21.4134 18.7294 21.6194C18.6271 21.8256 18.4342 21.972 18.2082 22.0152ZM24.4974 17.9461H8.60863C8.38265 17.903 8.18968 17.7566 8.08737 17.5506C7.98491 17.3444 7.98491 17.1023 8.08737 16.896C8.18966 16.69 8.38263 16.5435 8.60863 16.5005H24.4974C24.7234 16.5435 24.9163 16.69 25.0186 16.896C25.1209 17.1022 25.1209 17.3444 25.0186 17.5506C24.9163 17.7566 24.7234 17.903 24.4974 17.9461ZM24.4974 13.8746H8.60863C8.43542 13.8548 8.27674 13.7683 8.16647 13.6332C8.0562 13.4983 8.00306 13.3254 8.01848 13.1517C8.00306 12.9781 8.0562 12.8053 8.16647 12.6702C8.27674 12.5352 8.43543 12.4485 8.60863 12.429H24.4974C24.6691 12.4505 24.8258 12.5378 24.9345 12.6727C25.0431 12.8075 25.0951 12.9792 25.0797 13.1517C25.0951 13.3241 25.0431 13.4959 24.9345 13.6308C24.8258 13.7656 24.6691 13.853 24.4974 13.8746V13.8746ZM24.4974 9.80303L8.60863 9.80285C8.43542 9.78327 8.27674 9.69675 8.16647 9.56164C8.0562 9.42653 8.00306 9.25387 8.01848 9.08013C8.00306 8.90657 8.0562 8.73374 8.16647 8.59862C8.27674 8.46369 8.43543 8.377 8.60863 8.35741H24.4974C24.6691 8.37881 24.8258 8.46623 24.9345 8.60116C25.0431 8.73591 25.0951 8.90767 25.0797 9.08012C25.0951 9.25259 25.0431 9.42434 24.9345 9.55908C24.8258 9.69401 24.6691 9.78143 24.4974 9.80282V9.80303Z" fill="#607C34"/>
</svg>
