<svg width="32" height="33" viewBox="0 0 32 33" fill="none" xmlns="http://www.w3.org/2000/svg">
<path d="M22.1593 3.93547H9.93934C8.10797 3.9313 6.34949 4.65293 5.04903 5.94225C3.74847 7.23157 3.01161 8.98369 3 10.8149V28.5181C3.01215 28.8972 3.17102 29.257 3.44307 29.5212C3.71511 29.7856 4.07928 29.934 4.4585 29.9351H22.1594C23.9819 29.9309 25.7276 29.2014 27.0111 27.9076C28.2947 26.6138 29.0103 24.8622 28.9999 23.0401V10.8201C29.0125 8.99795 28.2972 7.24615 27.0128 5.95344C25.7285 4.66088 23.9815 3.93436 22.1591 3.93506L22.1593 3.93547ZM17.7082 22.4502H8.12208C7.89593 22.4071 7.70314 22.2607 7.60069 22.0545C7.4984 21.8485 7.4984 21.6064 7.60069 21.4001C7.70316 21.1939 7.89595 21.0476 8.12208 21.0046H17.7082C17.9341 21.0476 18.1271 21.1939 18.2294 21.4001C18.3319 21.6063 18.3319 21.8485 18.2294 22.0545C18.1271 22.2607 17.9342 22.4071 17.7082 22.4502ZM23.9974 18.3812H8.10862C7.88264 18.338 7.68968 18.1917 7.58737 17.9856C7.4849 17.7794 7.4849 17.5373 7.58737 17.3311C7.68965 17.1251 7.88262 16.9785 8.10862 16.9355H23.9974C24.2234 16.9785 24.4163 17.1251 24.5186 17.3311C24.6209 17.5373 24.6209 17.7794 24.5186 17.9856C24.4163 18.1917 24.2234 18.338 23.9974 18.3812ZM23.9974 14.3096H8.10862C7.93542 14.2899 7.77673 14.2034 7.66646 14.0682C7.55619 13.9333 7.50306 13.7605 7.51847 13.5867C7.50306 13.4132 7.55619 13.2403 7.66646 13.1052C7.77673 12.9703 7.93542 12.8836 8.10862 12.864H23.9974C24.1691 12.8856 24.3258 12.9728 24.4345 13.1078C24.5431 13.2425 24.5951 13.4143 24.5797 13.5867C24.5951 13.7592 24.5431 13.9309 24.4345 14.0659C24.3258 14.2006 24.1691 14.288 23.9974 14.3096V14.3096ZM23.9974 10.2381L8.10862 10.2379C7.93542 10.2183 7.77673 10.1318 7.66646 9.9967C7.55619 9.86159 7.50306 9.68893 7.51847 9.51519C7.50306 9.34163 7.55619 9.16879 7.66646 9.03368C7.77673 8.89875 7.93542 8.81206 8.10862 8.79247H23.9974C24.1691 8.81387 24.3258 8.90129 24.4345 9.03622C24.5431 9.17097 24.5951 9.34272 24.5797 9.51518C24.5951 9.68765 24.5431 9.8594 24.4345 9.99413C24.3258 10.1291 24.1691 10.2165 23.9974 10.2379V10.2381Z" fill="#9D9D9D"/>
</svg>
