<svg width="32" height="33" viewBox="0 0 32 33" fill="none" xmlns="http://www.w3.org/2000/svg">
<path d="M4.5214 19.0232H5.08133C5.30271 19.0239 5.48176 19.2036 5.48176 19.4249V27.606C5.48176 28.2231 5.727 28.8148 6.16334 29.2511C6.59946 29.6874 7.1912 29.9325 7.8083 29.9325H11.8218C12.1623 29.9325 12.4888 29.7973 12.7295 29.5566C12.9705 29.3156 13.1057 28.9891 13.1057 28.6486V23.9443C13.0893 23.2083 13.3434 22.4917 13.8199 21.9305C14.2966 21.3691 14.9625 21.0022 15.6914 20.899C16.5056 20.8143 17.3176 21.0785 17.9259 21.6261C18.5344 22.174 18.8821 22.9538 18.8832 23.7723V28.6512C18.8832 28.9917 19.0184 29.3182 19.2593 29.5589C19.5001 29.7999 19.8266 29.9351 20.167 29.9351H24.1754C24.7925 29.9351 25.3845 29.69 25.821 29.2537C26.2573 28.8176 26.5028 28.2258 26.5032 27.6086V19.4248C26.5032 19.2034 26.6822 19.0237 26.9036 19.0231H27.4674C28.0969 19.0226 28.6995 18.7673 29.1375 18.3153C29.5753 17.863 29.8116 17.2526 29.7918 16.6235C29.772 15.9941 29.498 15.3999 29.0324 14.9762L17.5593 4.54572C17.1328 4.15303 16.5742 3.93506 15.9943 3.93506C15.4144 3.93506 14.8558 4.15301 14.4293 4.54572L3.05524 14.8826C2.72595 15.167 2.47836 15.5339 2.33799 15.9457C2.19762 16.3575 2.16948 16.7995 2.25653 17.2257C2.37346 17.7381 2.66148 18.1955 3.07309 18.5224C3.48492 18.8491 3.99585 19.0258 4.52134 19.0232L4.5214 19.0232Z" fill="#607C34"/>
</svg>
