<svg width="32" height="33" viewBox="0 0 32 33" fill="none" xmlns="http://www.w3.org/2000/svg">
<path d="M4.5214 18.5882H5.08133C5.30271 18.5888 5.48176 18.7685 5.48176 18.9899V27.1709C5.48176 27.788 5.727 28.3798 6.16334 28.8161C6.59946 29.2524 7.1912 29.4974 7.8083 29.4974H11.8218C12.1623 29.4974 12.4888 29.3622 12.7295 29.1215C12.9705 28.8805 13.1057 28.5541 13.1057 28.2136V23.5092C13.0893 22.7733 13.3434 22.0567 13.8199 21.4954C14.2966 20.934 14.9625 20.5671 15.6914 20.4639C16.5056 20.3793 17.3176 20.6434 17.9259 21.1911C18.5344 21.739 18.8821 22.5188 18.8832 23.3373V28.2162C18.8832 28.5566 19.0184 28.8831 19.2593 29.1239C19.5001 29.3648 19.8266 29.5 20.167 29.5H24.1754C24.7925 29.5 25.3845 29.255 25.821 28.8186C26.2573 28.3825 26.5028 27.7908 26.5032 27.1735V18.9897C26.5032 18.7683 26.6822 18.5886 26.9036 18.588H27.4674C28.0969 18.5876 28.6995 18.3322 29.1375 17.8802C29.5753 17.428 29.8116 16.8176 29.7918 16.1884C29.772 15.5591 29.498 14.9648 29.0324 14.5411L17.5593 4.11066C17.1328 3.71797 16.5742 3.5 15.9943 3.5C15.4144 3.5 14.8558 3.71795 14.4293 4.11066L3.05524 14.4476C2.72595 14.7319 2.47836 15.0988 2.33799 15.5106C2.19762 15.9224 2.16948 16.3644 2.25653 16.7906C2.37346 17.303 2.66148 17.7604 3.07309 18.0873C3.48492 18.414 3.99585 18.5907 4.52134 18.5881L4.5214 18.5882Z" fill="#9D9D9D"/>
</svg>
