<svg width="32" height="33" viewBox="0 0 32 33" fill="none" xmlns="http://www.w3.org/2000/svg">
<path fill-rule="evenodd" clip-rule="evenodd" d="M8.39557 3.5C7.291 3.5 6.39557 4.39543 6.39557 5.5V27.5C6.39557 28.6046 7.291 29.5 8.39557 29.5H21.6045C23.8136 29.5 25.6045 27.7091 25.6045 25.5V7.5C25.6045 5.29086 23.8136 3.5 21.6045 3.5H8.39557ZM8.85599 15.9516C8.85599 12.0028 12.0515 8.80757 16 8.80757C19.9488 8.80757 23.144 12.0031 23.144 15.9516C23.144 19.9004 19.9485 23.0956 16 23.0956C12.0512 23.0956 8.85599 19.9001 8.85599 15.9516ZM20.7435 20.1032C21.7163 18.9931 22.3068 17.5401 22.3068 15.9516C22.3068 12.474 19.4776 9.64476 16 9.64476C14.4115 9.64476 12.9585 10.2353 11.8484 11.2081L13.9185 13.2781C14.0895 13.295 14.2749 13.3237 14.4644 13.3703C14.4337 13.227 14.4162 13.0787 14.4162 12.9262C14.4162 11.6179 15.6888 10.6124 15.7429 10.5702C15.8941 10.4526 16.1059 10.4526 16.2571 10.5702C16.3113 10.6124 17.5838 11.6179 17.5838 12.9262C17.5838 13.0787 17.5663 13.2271 17.5357 13.3703C18.2453 13.1958 18.8994 13.2726 18.9422 13.2779C19.1323 13.3016 19.2821 13.4514 19.3058 13.6415C19.3134 13.7021 19.4637 14.9844 18.8447 15.918C18.8993 15.9223 18.9335 15.9263 18.9422 15.9274C19.1323 15.9511 19.2821 16.1009 19.3058 16.291C19.3127 16.3468 19.4405 17.4371 18.9785 18.3382L20.7435 20.1032ZM14.014 18.303C14.44 18.729 15.1499 18.8039 15.5737 18.8068C15.5708 18.3833 15.4959 17.6732 15.0698 17.2471C14.6438 16.8212 13.9339 16.7463 13.5102 16.7434C13.513 17.1668 13.5879 17.8769 14.014 18.303ZM15.5736 16.1562C14.1972 16.1437 13.5199 15.5408 13.5102 14.0938C14.8821 14.103 15.5635 14.7126 15.5736 16.1562ZM18.4898 14.0938C18.4805 15.4866 17.8538 16.1472 16.4275 16.1572C16.4405 14.7177 17.1035 14.1031 18.4898 14.0938ZM15.2534 12.9261C15.2534 13.4684 15.6207 14.0008 16 14.3852C16.3772 14.0029 16.7466 13.4682 16.7466 12.9261C16.7466 12.3237 16.2976 11.7687 16 11.4671C15.7026 11.7685 15.2534 12.3235 15.2534 12.9261ZM18.4898 16.7433C18.0664 16.7462 17.3563 16.821 16.9302 17.2471C16.5042 17.6731 16.4293 18.3831 16.4264 18.8068C16.8499 18.804 17.5599 18.7291 17.986 18.303C18.4121 17.877 18.487 17.1671 18.4898 16.7433ZM11.2565 11.8C10.2837 12.9101 9.69318 14.3631 9.69318 15.9516C9.69318 19.4292 12.5224 22.2584 16 22.2584C17.5885 22.2584 19.0415 21.6679 20.1516 20.6951L18.4601 19.0037C17.8268 19.5448 16.9447 19.6411 16.4186 19.644V21.0026C16.4186 21.2338 16.2312 21.4212 16 21.4212C15.7689 21.4212 15.5814 21.2338 15.5814 21.0026V19.644C15.0219 19.6409 14.0594 19.5324 13.422 18.895C12.4969 17.9699 12.6857 16.3591 12.6943 16.291C12.7179 16.1009 12.8677 15.9511 13.0578 15.9274C13.0666 15.9263 13.1007 15.9223 13.1553 15.918C12.5363 14.9844 12.6867 13.7021 12.6943 13.6415C12.7073 13.5365 12.759 13.444 12.8345 13.378L11.2565 11.8Z" fill="#607C34"/>
</svg>
