<svg width="33" height="33" viewBox="0 0 33 33" fill="none" xmlns="http://www.w3.org/2000/svg">
<path fill-rule="evenodd" clip-rule="evenodd" d="M8.89551 3.93506C7.79094 3.93506 6.89551 4.83049 6.89551 5.93506V27.9351C6.89551 29.0396 7.79094 29.9351 8.89551 29.9351H22.1044C24.3136 29.9351 26.1044 28.1442 26.1044 25.9351V7.93506C26.1044 5.72592 24.3136 3.93506 22.1044 3.93506H8.89551ZM9.35593 16.3867C9.35593 12.4378 12.5515 9.24263 16.5 9.24263C20.4488 9.24263 23.644 12.4382 23.644 16.3867C23.644 20.3355 20.4484 23.5307 16.5 23.5307C12.5511 23.5307 9.35593 20.3351 9.35593 16.3867ZM21.2435 20.5382C22.2163 19.4281 22.8068 17.9751 22.8068 16.3867C22.8068 12.909 19.9776 10.0798 16.5 10.0798C14.9115 10.0798 13.4585 10.6703 12.3484 11.6431L14.4184 13.7132C14.5894 13.7301 14.7748 13.7588 14.9643 13.8054C14.9337 13.6621 14.9162 13.5138 14.9162 13.3612C14.9162 12.0529 16.1887 11.0475 16.2429 11.0053C16.3941 10.8876 16.6059 10.8876 16.7571 11.0053C16.8112 11.0475 18.0838 12.0529 18.0838 13.3612C18.0838 13.5138 18.0663 13.6621 18.0356 13.8054C18.7452 13.6309 19.3993 13.7076 19.4421 13.7129C19.6323 13.7366 19.782 13.8864 19.8057 14.0765C19.8133 14.1371 19.9637 15.4195 19.3447 16.3531C19.3993 16.3573 19.4334 16.3614 19.4421 16.3625C19.6323 16.3862 19.782 16.5359 19.8057 16.7261C19.8127 16.7818 19.9404 17.8721 19.4785 18.7732L21.2435 20.5382ZM14.5139 18.7381C14.9399 19.1641 15.6498 19.239 16.0736 19.2418C16.0707 18.8184 15.9959 18.1083 15.5698 17.6822C15.1438 17.2562 14.4339 17.1813 14.0101 17.1784C14.013 17.6019 14.0878 18.312 14.5139 18.7381ZM16.0736 16.5913C14.6972 16.5788 14.0199 15.9759 14.0101 14.5289C15.382 14.5381 16.0634 15.1476 16.0736 16.5913ZM18.9898 14.5288C18.9804 15.9216 18.3538 16.5823 16.9274 16.5923C16.9404 15.1528 17.6035 14.5381 18.9898 14.5288ZM15.7533 13.3612C15.7533 13.9034 16.1207 14.4359 16.5 14.8202C16.8772 14.4379 17.2466 13.9033 17.2466 13.3612C17.2466 12.7587 16.7975 12.2038 16.4999 11.9021C16.2025 12.2036 15.7533 12.7586 15.7533 13.3612ZM18.9898 17.1784C18.5663 17.1813 17.8562 17.2561 17.4301 17.6822C17.0041 18.1082 16.9292 18.8181 16.9264 19.2419C17.3498 19.239 18.0599 19.1642 18.486 18.7381C18.912 18.312 18.9869 17.6021 18.9898 17.1784ZM11.7564 12.2351C10.7836 13.3452 10.1931 14.7982 10.1931 16.3867C10.1931 19.8643 13.0223 22.6935 16.5 22.6935C18.0884 22.6935 19.5414 22.103 20.6515 21.1302L18.9601 19.4387C18.3268 19.9799 17.4447 20.0761 16.9186 20.079V21.4377C16.9186 21.6689 16.7312 21.8563 16.5 21.8563C16.2688 21.8563 16.0814 21.6689 16.0814 21.4377V20.079C15.5218 20.076 14.5593 19.9675 13.922 19.33C12.9968 18.4049 13.1857 16.7941 13.1942 16.726C13.2179 16.5359 13.3677 16.3862 13.5578 16.3625C13.5665 16.3614 13.6007 16.3573 13.6553 16.353C13.0362 15.4194 13.1866 14.1371 13.1942 14.0765C13.2073 13.9715 13.2589 13.879 13.3344 13.8131L11.7564 12.2351Z" fill="#9D9D9D"/>
</svg>
