<svg width="33" height="33" viewBox="0 0 33 33" fill="none" xmlns="http://www.w3.org/2000/svg">
<path fill-rule="evenodd" clip-rule="evenodd" d="M10.8647 4.15625C13.0138 4.15625 14.7961 5.93851 14.7961 8.14007V10.866C14.7961 12.8054 13.4332 14.3781 11.6509 14.7449V29.37C11.6509 29.7893 11.284 30.1562 10.8647 30.1562C10.4454 30.1562 10.0785 29.7894 10.0785 29.37V14.7974C8.24378 14.4305 6.88086 12.8055 6.88086 10.866V8.14012C6.88086 5.93856 8.66312 4.1563 10.8647 4.1563V4.15625Z" fill="#9D9D9D"/>
<path fill-rule="evenodd" clip-rule="evenodd" d="M22.3446 4.83765C22.8163 4.83765 23.1833 5.20454 23.1833 5.67643V11.7047C23.1833 12.1765 22.8164 12.5435 22.3446 12.5435C21.8728 12.5435 21.5058 12.1766 21.5058 11.7047V5.67643C21.5058 5.20471 21.8727 4.83765 22.3446 4.83765ZM22.2921 30.1562C21.8728 30.1562 21.5059 29.7893 21.5059 29.37V14.9023C20.0906 14.5878 18.78 13.2773 18.4656 11.0757L18.518 5.67652C18.518 5.20481 18.9373 4.83774 19.4092 4.83774C19.8285 4.83774 20.248 5.20463 20.248 5.67652L20.3004 11.0233C20.51 14.0112 24.127 14.0112 24.2842 11.0233L24.389 5.67652C24.389 5.20481 24.7559 4.83774 25.2278 4.83774C25.6995 4.83774 26.0666 5.20463 26.0666 5.67652L26.119 11.0757C25.8045 13.2773 24.5464 14.5878 23.0787 14.9023V29.37C23.0787 29.7893 22.7118 30.1562 22.2924 30.1562H22.2921Z" fill="#9D9D9D"/>
</svg>
