<svg width="32" height="33" viewBox="0 0 32 33" fill="none" xmlns="http://www.w3.org/2000/svg">
<path fill-rule="evenodd" clip-rule="evenodd" d="M10.3647 3.72119C12.5138 3.72119 14.2961 5.50345 14.2961 7.70502V10.4309C14.2961 12.3704 12.9332 13.943 11.1509 14.3099V28.935C11.1509 29.3543 10.784 29.7212 10.3647 29.7212C9.94535 29.7212 9.57846 29.3543 9.57846 28.935V14.3624C7.74378 13.9955 6.38086 12.3705 6.38086 10.4309V7.70506C6.38086 5.5035 8.16312 3.72124 10.3647 3.72124V3.72119Z" fill="#607C34"/>
<path fill-rule="evenodd" clip-rule="evenodd" d="M21.8447 4.40234C22.3164 4.40234 22.6835 4.76924 22.6835 5.24113V11.2694C22.6835 11.7412 22.3166 12.1082 21.8447 12.1082C21.373 12.1082 21.0059 11.7413 21.0059 11.2694V5.24113C21.0059 4.76941 21.3728 4.40234 21.8447 4.40234ZM21.7923 29.7209C21.373 29.7209 21.006 29.354 21.006 28.9347V14.467C19.5907 14.1525 18.2802 12.842 17.9657 10.6404L18.0181 5.24122C18.0181 4.7695 18.4374 4.40244 18.9093 4.40244C19.3286 4.40244 19.7481 4.76933 19.7481 5.24122L19.8005 10.588C20.0102 13.5759 23.6271 13.5759 23.7843 10.588L23.8892 5.24122C23.8892 4.7695 24.2561 4.40244 24.7279 4.40244C25.1997 4.40244 25.5667 4.76933 25.5667 5.24122L25.6191 10.6404C25.3047 12.842 24.0465 14.1525 22.5788 14.467V28.9347C22.5788 29.354 22.2119 29.7209 21.7926 29.7209H21.7923Z" fill="#607C34"/>
</svg>
