<svg width="24" height="26" viewBox="0 0 24 26" fill="none" xmlns="http://www.w3.org/2000/svg">
<path d="M19.5078 16.7427C18.0605 16.7427 16.7851 17.4546 15.984 18.5374L9.05808 14.9909C9.17307 14.599 9.25388 14.1928 9.25388 13.7642C9.25388 13.1828 9.13469 12.6301 8.92878 12.1218L16.1771 7.76006C16.9837 8.70674 18.1694 9.3208 19.5078 9.3208C21.9311 9.3208 23.9023 7.34956 23.9023 4.92627C23.9023 2.50298 21.9311 0.531738 19.5078 0.531738C17.0845 0.531738 15.1133 2.50298 15.1133 4.92627C15.1133 5.48472 15.2282 6.01445 15.419 6.50625L8.14914 10.8808C7.34318 9.96221 6.17463 9.36963 4.85934 9.36963C2.43605 9.36963 0.464813 11.3409 0.464813 13.7642C0.464813 16.1875 2.43605 18.1587 4.85934 18.1587C6.33054 18.1587 7.62746 17.4258 8.42551 16.3127L15.3286 19.8476C15.2015 20.2581 15.1133 20.6855 15.1133 21.1372C15.1133 23.5605 17.0845 25.5317 19.5078 25.5317C21.9311 25.5317 23.9023 23.5605 23.9023 21.1372C23.9023 18.7139 21.9311 16.7427 19.5078 16.7427Z" fill="white"/>
</svg>
