<svg width="30" height="30" viewBox="0 0 30 30" fill="none" xmlns="http://www.w3.org/2000/svg">
<path d="M15.2954 8.73252C16.2699 8.73252 17.4915 8.07367 18.219 7.19521C18.8779 6.39911 19.3583 5.28731 19.3583 4.1755C19.3583 4.02452 19.3446 3.87353 19.3171 3.75C18.2327 3.79118 16.9288 4.47748 16.1464 5.39711C15.5287 6.09714 14.966 7.19521 14.966 8.32074C14.966 8.48545 14.9934 8.65016 15.0072 8.70507C15.0758 8.71879 15.1856 8.73252 15.2954 8.73252ZM11.8639 25.3409C13.1953 25.3409 13.7855 24.4487 15.4464 24.4487C17.1347 24.4487 17.5053 25.3135 18.9877 25.3135C20.4426 25.3135 21.4172 23.9683 22.3368 22.6506C23.3663 21.1408 23.7918 19.6584 23.8192 19.5897C23.7231 19.5623 20.9368 18.423 20.9368 15.2249C20.9368 12.4522 23.1329 11.2032 23.2564 11.1071C21.8015 9.02076 19.5916 8.96586 18.9877 8.96586C17.3543 8.96586 16.0229 9.95413 15.1856 9.95413C14.2797 9.95413 13.0855 9.02076 11.6717 9.02076C8.98146 9.02076 6.25 11.2444 6.25 15.4445C6.25 18.0524 7.26572 20.8113 8.51478 22.5957C9.5854 24.1056 10.5188 25.3409 11.8639 25.3409Z" fill="white"/>
</svg>
