<svg width="23" height="26" viewBox="0 0 23 26" fill="none" xmlns="http://www.w3.org/2000/svg">
<path d="M21.4637 4.99661H16.4818C16.4818 2.24505 14.2514 0.0146484 11.4999 0.0146484C8.74835 0.0146484 6.5179 2.24505 6.5179 4.99661H1.53599C0.847963 4.99661 0.290527 5.5541 0.290527 6.24207C0.290527 6.93005 0.848014 7.48754 1.53599 7.48754H2.03418V22.6825C2.03716 24.47 3.48492 25.9177 5.27244 25.9207H17.7273C19.5148 25.9177 20.9626 24.47 20.9655 22.6825V7.48754H21.4637C22.1518 7.48754 22.7092 6.93005 22.7092 6.24207C22.7092 5.5541 22.1518 4.99661 21.4637 4.99661ZM11.4999 2.50563C12.8754 2.50563 13.9908 3.62111 13.9908 4.99661H9.00888C9.00888 3.62106 10.1244 2.50563 11.4999 2.50563ZM18.4746 22.6825C18.4746 23.095 18.1398 23.4297 17.7273 23.4297H5.27244C4.85991 23.4297 4.52516 23.0949 4.52516 22.6825V7.48754H18.4746V22.6825Z" fill="#D0662A"/>
<g opacity="0.4">
<path d="M8.75962 19.1951C8.0716 19.1951 7.51416 18.6376 7.51416 17.9496V12.9676C7.51416 12.2796 8.07165 11.7222 8.75962 11.7222C9.4476 11.7222 10.0051 12.2797 10.0051 12.9676V17.9496C10.0051 18.6376 9.44765 19.1951 8.75962 19.1951Z" fill="#D0662A"/>
<path d="M14.2401 19.1951C13.5521 19.1951 12.9946 18.6376 12.9946 17.9496V12.9676C12.9946 12.2796 13.5521 11.7222 14.2401 11.7222C14.9281 11.7222 15.4856 12.2797 15.4856 12.9676V17.9496C15.4856 18.6376 14.9281 19.1951 14.2401 19.1951Z" fill="#D0662A"/>
</g>
</svg>
