<svg width="30" height="30" viewBox="0 0 30 30" fill="none" xmlns="http://www.w3.org/2000/svg">
<path fill-rule="evenodd" clip-rule="evenodd" d="M25.8 15.2557C25.8 14.458 25.7284 13.691 25.5955 12.9546H15V17.3063H21.0545C20.7938 18.7125 20.0011 19.904 18.8097 20.7017V23.5245H22.4455C24.5727 21.566 25.8 18.6819 25.8 15.2557Z" fill="#4285F4"/>
<path fill-rule="evenodd" clip-rule="evenodd" d="M15 26.25C18.0375 26.25 20.5841 25.2426 22.4455 23.5244L18.8097 20.7017C17.8023 21.3767 16.5136 21.7755 15 21.7755C12.0699 21.7755 9.58978 19.7965 8.70512 17.1375H4.94659V20.0522C6.79773 23.7289 10.6023 26.25 15 26.25Z" fill="#34A853"/>
<path fill-rule="evenodd" clip-rule="evenodd" d="M8.70511 17.1375C8.48011 16.4625 8.35227 15.7415 8.35227 15C8.35227 14.2585 8.48011 13.5375 8.70511 12.8625V9.94775H4.94659C4.18466 11.4665 3.75 13.1847 3.75 15C3.75 16.8154 4.18466 18.5335 4.94659 20.0523L8.70511 17.1375Z" fill="#FBBC05"/>
<path fill-rule="evenodd" clip-rule="evenodd" d="M15 8.22443C16.6517 8.22443 18.1347 8.79205 19.3006 9.90682L22.5273 6.68011C20.579 4.86477 18.0324 3.75 15 3.75C10.6023 3.75 6.79773 6.27102 4.94659 9.94773L8.70512 12.8625C9.58978 10.2034 12.0699 8.22443 15 8.22443Z" fill="#EA4335"/>
</svg>
