<svg width="333" height="22" viewBox="0 0 333 22" fill="none" xmlns="http://www.w3.org/2000/svg">
<line x1="0.0613403" y1="10.261" x2="140.939" y2="10.261" stroke="#757575" stroke-width="0.8"/>
<path d="M163.461 17.328C162.167 17.328 161.1 16.9178 160.262 16.0975C159.424 15.2714 159.005 14.1727 159.005 12.8016C159.005 11.4305 159.421 10.3348 160.253 9.51453C161.091 8.69421 162.161 8.28406 163.461 8.28406C164.762 8.28406 165.829 8.69421 166.661 9.51453C167.493 10.3348 167.909 11.4305 167.909 12.8016C167.909 14.1727 167.493 15.2714 166.661 16.0975C165.829 16.9178 164.762 17.328 163.461 17.328ZM163.444 15.9393C164.252 15.9393 164.92 15.6522 165.448 15.078C165.975 14.4979 166.239 13.7391 166.239 12.8016C166.239 11.8641 165.975 11.1083 165.448 10.5341C164.92 9.95984 164.252 9.67273 163.444 9.67273C162.647 9.67273 161.988 9.95984 161.466 10.5341C160.945 11.1083 160.684 11.8641 160.684 12.8016C160.684 13.7391 160.945 14.4979 161.466 15.078C161.988 15.6522 162.647 15.9393 163.444 15.9393ZM171.657 9.97156C171.868 9.50281 172.228 9.11902 172.738 8.82019C173.248 8.52136 173.81 8.36902 174.426 8.36316V9.92761C173.529 9.92761 172.852 10.1356 172.395 10.5516C171.938 10.9677 171.71 11.6444 171.71 12.5819V17.161H170.022V8.45984H171.657V9.97156Z" fill="#757575"/>
<line x1="191.939" y1="10.261" x2="332.816" y2="10.261" stroke="#757575" stroke-width="0.8"/>
</svg>
