<svg width="237" height="238" viewBox="0 0 237 238" fill="none" xmlns="http://www.w3.org/2000/svg">
<rect x="1.0708" y="1.302" width="234.782" height="234.782" rx="63" fill="white" stroke="#CECDCA" stroke-width="2" stroke-dasharray="5 5"/>
<g clip-path="url(#clip0_108_4296)">
<path d="M120.685 117.668C124.391 117.668 127.599 116.339 130.222 113.717C132.844 111.095 134.173 107.887 134.173 104.18C134.173 100.475 132.844 97.2666 130.221 94.6437C127.599 92.0222 124.39 90.693 120.685 90.693C116.979 90.693 113.77 92.0222 111.148 94.6442C108.526 97.2662 107.197 100.475 107.197 104.18C107.197 107.887 108.526 111.095 111.148 113.717C113.771 116.339 116.98 117.668 120.685 117.668ZM113.469 96.9645C115.481 94.9526 117.841 93.9747 120.685 93.9747C123.528 93.9747 125.889 94.9526 127.901 96.9645C129.913 98.9769 130.891 101.337 130.891 104.18C130.891 107.024 129.913 109.384 127.901 111.396C125.889 113.409 123.528 114.387 120.685 114.387C117.842 114.387 115.482 113.408 113.469 111.396C111.457 109.385 110.478 107.024 110.478 104.18C110.478 101.337 111.457 98.9769 113.469 96.9645Z" fill="#E1E0DD"/>
<path d="M144.286 133.754C144.21 132.663 144.057 131.473 143.832 130.216C143.605 128.949 143.312 127.752 142.962 126.658C142.599 125.527 142.107 124.41 141.499 123.34C140.868 122.229 140.126 121.262 139.294 120.466C138.423 119.633 137.358 118.964 136.126 118.475C134.898 117.99 133.537 117.744 132.081 117.744C131.51 117.744 130.957 117.978 129.889 118.673C129.232 119.102 128.463 119.597 127.605 120.146C126.872 120.613 125.878 121.051 124.651 121.447C123.453 121.835 122.237 122.031 121.037 122.031C119.837 122.031 118.621 121.835 117.422 121.447C116.196 121.051 115.202 120.613 114.47 120.146C113.62 119.603 112.851 119.107 112.184 118.673C111.117 117.978 110.564 117.743 109.993 117.743C108.537 117.743 107.176 117.99 105.949 118.476C104.717 118.963 103.651 119.633 102.78 120.466C101.948 121.263 101.206 122.23 100.576 123.34C99.9678 124.41 99.4756 125.527 99.1133 126.658C98.7634 127.753 98.4707 128.949 98.2434 130.216C98.0178 131.471 97.8653 132.662 97.7897 133.755C97.7153 134.825 97.6777 135.938 97.6777 137.062C97.6777 139.986 98.607 142.352 100.439 144.097C102.249 145.82 104.644 146.693 107.556 146.693H134.52C137.432 146.693 139.826 145.82 141.637 144.097C143.47 142.353 144.399 139.986 144.399 137.062C144.398 135.934 144.36 134.821 144.286 133.754ZM139.374 141.72C138.178 142.858 136.59 143.411 134.52 143.411H107.556C105.485 143.411 103.898 142.858 102.702 141.72C101.529 140.604 100.959 139.08 100.959 137.062C100.959 136.013 100.994 134.977 101.063 133.982C101.131 133.007 101.269 131.935 101.473 130.796C101.675 129.671 101.933 128.615 102.239 127.659C102.532 126.743 102.932 125.835 103.429 124.961C103.903 124.128 104.448 123.413 105.049 122.837C105.612 122.298 106.321 121.858 107.157 121.527C107.93 121.221 108.799 121.053 109.741 121.028C109.856 121.089 110.061 121.206 110.393 121.422C111.067 121.862 111.845 122.363 112.704 122.912C113.673 123.53 114.922 124.088 116.413 124.57C117.938 125.063 119.493 125.313 121.037 125.313C122.581 125.313 124.136 125.063 125.66 124.57C127.153 124.088 128.401 123.53 129.371 122.912C130.251 122.349 131.007 121.862 131.681 121.422C132.013 121.206 132.218 121.089 132.333 121.028C133.276 121.053 134.144 121.221 134.918 121.527C135.753 121.858 136.462 122.299 137.025 122.837C137.627 123.413 138.172 124.127 138.646 124.961C139.142 125.835 139.543 126.743 139.836 127.659C140.143 128.616 140.4 129.671 140.602 130.795C140.806 131.936 140.945 133.009 141.012 133.983V133.984C141.082 134.974 141.117 136.01 141.117 137.062C141.117 139.08 140.547 140.604 139.374 141.72Z" fill="#E1E0DD"/>
</g>
<g clip-path="url(#clip1_108_4296)">
<path d="M150.084 71.302C142.364 71.302 136.084 77.3578 136.084 84.802C136.084 92.2462 142.364 98.302 150.084 98.302C157.804 98.302 164.084 92.2462 164.084 84.802C164.084 77.3578 157.804 71.302 150.084 71.302Z" fill="#D0662A"/>
<path d="M156.209 85.927H151.251V90.7083C151.251 91.3294 150.728 91.8332 150.084 91.8332C149.44 91.8332 148.917 91.3294 148.917 90.7083V85.927H143.959C143.315 85.927 142.792 85.4231 142.792 84.8021C142.792 84.181 143.315 83.6771 143.959 83.6771H148.917V78.8958C148.917 78.2747 149.44 77.7709 150.084 77.7709C150.728 77.7709 151.251 78.2747 151.251 78.8958V83.6771H156.209C156.853 83.6771 157.376 84.181 157.376 84.8021C157.376 85.4231 156.853 85.927 156.209 85.927Z" fill="#FAFAFA"/>
</g>
<defs>
<clipPath id="clip0_108_4296">
<rect width="56" height="56" fill="white" transform="translate(93.084 90.693)"/>
</clipPath>
<clipPath id="clip1_108_4296">
<rect width="28" height="27" fill="white" transform="translate(136.084 71.302)"/>
</clipPath>
</defs>
</svg>
